<svg width="18" height="14" viewBox="0 0 18 14" fill="none" xmlns="http://www.w3.org/2000/svg">
<path d="M17.1298 2.17281C16.7761 1.80226 16.2877 1.58329 15.7318 1.58329H12.9358V1.5496C12.9358 1.12851 12.7674 0.724271 12.481 0.454775C12.1947 0.168435 11.8073 0 11.3862 0H6.33316C5.89523 0 5.50783 0.168435 5.22149 0.454775C4.93515 0.741114 4.76671 1.12851 4.76671 1.5496V1.58329H1.98753C1.4317 1.58329 0.943236 1.80226 0.589523 2.17281C0.235809 2.52653 0 3.03183 0 3.57082V11.9589C0 12.5147 0.218966 13.0032 0.589523 13.3569C0.943236 13.7106 1.44854 13.9464 1.98753 13.9464H15.7318C16.2877 13.9464 16.7761 13.7275 17.1298 13.3569C17.4836 13.0032 17.7194 12.4979 17.7194 11.9589V3.57082C17.7194 3.01499 17.5004 2.52653 17.1298 2.17281ZM16.8435 11.9589H16.8267C16.8267 12.2621 16.7088 12.5316 16.5066 12.7337C16.3045 12.9358 16.035 13.0537 15.7318 13.0537H1.98753C1.68435 13.0537 1.41485 12.9358 1.21273 12.7337C1.01061 12.5316 0.892706 12.2621 0.892706 11.9589V3.57082C0.892706 3.26764 1.01061 2.99814 1.21273 2.79602C1.41485 2.5939 1.68435 2.476 1.98753 2.476H5.23833C5.49098 2.476 5.6931 2.27387 5.6931 2.02122V1.53276C5.6931 1.34748 5.76048 1.17905 5.87838 1.06114C5.99629 0.943236 6.16472 0.875862 6.35 0.875862H11.3862C11.5715 0.875862 11.7399 0.943236 11.8578 1.06114C11.9757 1.17905 12.0431 1.34748 12.0431 1.53276V2.02122C12.0431 2.27387 12.2452 2.476 12.4979 2.476H15.7487C16.0519 2.476 16.3214 2.5939 16.5235 2.79602C16.7256 2.99814 16.8435 3.26764 16.8435 3.57082V11.9589Z" fill="white"/>
<path d="M8.85968 3.62146C7.71432 3.62146 6.67002 4.09308 5.9289 4.83419C5.17095 5.59215 4.71617 6.6196 4.71617 7.76496C4.71617 8.91032 5.18779 9.95462 5.9289 10.6957C6.68686 11.4537 7.71432 11.9085 8.85968 11.9085C10.005 11.9085 11.0493 11.4368 11.7904 10.6957C12.5484 9.93777 13.0032 8.91032 13.0032 7.76496C13.0032 6.6196 12.5316 5.57531 11.7904 4.83419C11.0493 4.09308 10.005 3.62146 8.85968 3.62146ZM11.1504 10.0725C10.5609 10.6452 9.75238 11.0158 8.85968 11.0158C7.96697 11.0158 7.15848 10.6452 6.56896 10.0725C5.97943 9.483 5.62572 8.67451 5.62572 7.7818C5.62572 6.8891 5.99628 6.08061 6.56896 5.49109C7.15848 4.90157 7.96697 4.54785 8.85968 4.54785C9.75238 4.54785 10.5609 4.91841 11.1504 5.49109C11.7399 6.08061 12.0936 6.8891 12.0936 7.7818C12.1105 8.67451 11.7399 9.483 11.1504 10.0725Z" fill="white"/>
<path d="M14.856 5.25528C15.3118 5.25528 15.6813 4.88576 15.6813 4.42995C15.6813 3.97413 15.3118 3.60461 14.856 3.60461C14.4002 3.60461 14.0306 3.97413 14.0306 4.42995C14.0306 4.88576 14.4002 5.25528 14.856 5.25528Z" fill="white"/>
</svg>
