<svg width="22" height="22" viewBox="0 0 22 22" fill="none" xmlns="http://www.w3.org/2000/svg">
<path fill-rule="evenodd" clip-rule="evenodd" d="M6.00069 10.9993C6.00069 10.4473 6.44869 9.99927 7.00069 9.99927C7.55269 9.99927 8.00069 10.4473 8.00069 10.9993C8.00069 11.5513 7.55269 11.9993 7.00069 11.9993C6.44869 11.9993 6.00069 11.5513 6.00069 10.9993ZM11.0007 9.99927C10.4487 9.99927 10.0007 10.4473 10.0007 10.9993C10.0007 11.5513 10.4487 11.9993 11.0007 11.9993C11.5527 11.9993 12.0007 11.5513 12.0007 10.9993C12.0007 10.4473 11.5527 9.99927 11.0007 9.99927ZM15.0007 9.99927C14.4487 9.99927 14.0007 10.4473 14.0007 10.9993C14.0007 11.5513 14.4487 11.9993 15.0007 11.9993C15.5527 11.9993 16.0007 11.5513 16.0007 10.9993C16.0007 10.4473 15.5527 9.99927 15.0007 9.99927ZM18.8991 12.2942C18.3921 15.5482 15.7691 18.2472 12.5201 18.8562C10.9511 19.1522 9.35309 18.9832 7.90309 18.3692C7.49209 18.1952 7.06709 18.1072 6.65009 18.1072C6.46009 18.1072 6.27209 18.1252 6.08709 18.1622L3.27509 18.7242L3.83809 15.9072C3.95609 15.3222 3.88409 14.6962 3.63109 14.0972C3.01709 12.6472 2.84909 11.0502 3.14409 9.48017C3.75309 6.23117 6.45109 3.60817 9.70609 3.10117C12.2961 2.69817 14.8291 3.51417 16.6571 5.34217C18.4861 7.17117 19.3031 9.70517 18.8991 12.2942ZM18.0721 3.92817C15.7871 1.64417 12.6271 0.625171 9.39809 1.12417C5.32109 1.76017 1.94109 5.04417 1.17809 9.11117C0.810088 11.0692 1.02209 13.0632 1.78909 14.8762C1.88609 15.1072 1.91609 15.3222 1.87809 15.5152L1.02009 19.8032C0.954088 20.1312 1.05709 20.4702 1.29409 20.7062C1.48309 20.8962 1.73809 20.9992 2.00109 20.9992C2.06609 20.9992 2.13109 20.9932 2.19709 20.9802L6.48009 20.1232C6.72609 20.0762 6.96409 20.1452 7.12309 20.2112C8.93809 20.9782 10.9321 21.1892 12.8881 20.8222C16.9561 20.0592 20.2401 16.6792 20.8761 12.6022C21.3781 9.37517 20.3571 6.21317 18.0721 3.92817Z" fill="#39A2DB"/>
<mask id="mask0_109_201" style="mask-type:alpha" maskUnits="userSpaceOnUse" x="0" y="0" width="22" height="22">
</mask>
<g mask="url(#mask0_109_201)">
</g>
</svg>
