<svg width="24" height="24" viewBox="0 0 24 24" fill="none" xmlns="http://www.w3.org/2000/svg">
<path d="M12.0548 0C12.0483 0 12.0355 0 12.0162 0C5.5087 0 0.216553 5.29214 0.216553 11.7996C0.216553 14.4553 1.12323 17.0339 2.78225 19.1109L1.06535 23.1041C0.923888 23.432 1.07822 23.8114 1.39973 23.9465C1.51548 23.9979 1.64408 24.0108 1.76626 23.9915L8.06154 22.8855C9.32188 23.342 10.6465 23.5735 11.984 23.5671C18.4915 23.5671 23.7837 18.2749 23.7837 11.7675C23.7965 5.27928 18.543 0.00643031 12.0548 0ZM8.01653 9.42683H11.4889C11.8426 9.42683 12.1319 9.7162 12.1319 10.0699C12.1319 10.4235 11.8426 10.7129 11.4889 10.7129H8.01653C7.66286 10.7129 7.3735 10.4235 7.3735 10.0699C7.3735 9.7162 7.66286 9.42683 8.01653 9.42683ZM15.9901 13.9281H8.01653C7.66286 13.9281 7.3735 13.6387 7.3735 13.285C7.3735 12.9314 7.66286 12.642 8.01653 12.642H15.9901C16.3438 12.642 16.6332 12.9314 16.6332 13.285C16.6332 13.6387 16.3438 13.9281 15.9901 13.9281Z" fill="#39A2DB"/>
</svg>
