<svg width="48" height="48" viewBox="0 0 48 48" fill="none" xmlns="http://www.w3.org/2000/svg">
<g clip-path="url(#clip0_307_316)">
<path d="M5.6 48C8.6928 48 11.2 45.4928 11.2 42.4C11.2 39.3073 8.6928 36.8 5.6 36.8C2.50721 36.8 0 39.3073 0 42.4C0.00352691 45.4914 2.50867 47.9965 5.6 48ZM5.6 38.4C7.80914 38.4 9.6 40.1909 9.6 42.4C9.6 44.6092 7.80914 46.4 5.6 46.4C3.39086 46.4 1.6 44.6092 1.6 42.4C1.60265 40.192 3.39196 38.4027 5.6 38.4Z" fill="white"/>
<path d="M45.6001 35.2H36.8001V26.2744L39.9201 21.9224C42.3309 18.5248 41.5933 13.8246 38.2577 11.3288C36.65 10.2 34.7325 9.5961 32.7681 9.60001H32.7201C34.2823 6.91068 33.685 3.48751 31.3043 1.48621C28.9235 -0.515097 25.4486 -0.515097 23.0678 1.48621C20.6871 3.48751 20.0898 6.91068 21.6521 9.60001H21.6161C19.6436 9.5993 17.7191 10.2078 16.1056 11.3424C12.7886 13.8451 12.0637 18.5322 14.4696 21.92L16.8 25.1736V35.2072C14.5822 35.2481 12.8045 37.0554 12.8 39.2736V45.5632C12.8014 46.9085 13.8916 47.9987 15.2368 48H45.6001C46.9255 48 48.0001 46.9255 48.0001 45.6V37.6C48.0001 36.2745 46.9255 35.2 45.6001 35.2ZM35.2001 35.2H30.3705C30.3921 35.176 30.4225 35.1656 30.4425 35.1384L35.2001 28.5056V35.2ZM27.1856 1.60001C29.1351 1.60223 30.8895 2.78322 31.6252 4.58847C32.3609 6.39371 31.9318 8.46461 30.5393 9.82881L30.5273 9.83921C28.9757 11.3498 26.605 11.6345 24.7399 10.5342C22.8749 9.43395 21.9774 7.22119 22.5492 5.13264C23.1209 3.04408 25.0203 1.59694 27.1856 1.60001ZM17.04 12.64C18.3811 11.7011 19.979 11.1983 21.6161 11.2H22.9672C25.3752 13.3335 28.9969 13.3335 31.4049 11.2H32.7649C34.3933 11.1949 35.9836 11.6928 37.3185 12.6256C39.945 14.6017 40.5213 18.3095 38.6185 20.9896L30.9937 31.624C30.8697 31.2044 30.6772 30.8081 30.4241 30.4512L28.1841 27.3504L34.3233 18.8704C34.5702 18.5125 34.4859 18.0229 34.1336 17.768C33.7813 17.5131 33.29 17.5863 33.0273 17.9328L27.1937 25.9856L21.368 17.9312C21.2033 17.6924 20.9222 17.5615 20.6335 17.5891C20.3447 17.6167 20.0935 17.7984 19.9769 18.0641C19.8604 18.3297 19.8968 18.6377 20.0721 18.8688L26.5072 27.7656L29.1273 31.3872C29.5007 31.9032 29.6537 32.5465 29.5526 33.1754C29.4514 33.8042 29.1044 34.3671 28.5881 34.74C27.5081 35.4841 26.034 35.2477 25.2409 34.2032L15.7696 20.9896C13.8685 18.3201 14.431 14.6233 17.04 12.64ZM23.9441 35.14C23.9593 35.1616 23.9769 35.1792 23.9929 35.2H18.4V27.4056L23.9441 35.14ZM14.4 45.5632V39.2736C14.4036 37.9089 15.509 36.8035 16.8736 36.8H41.6001V40.08C41.3368 40.0265 41.0687 39.9997 40.8001 40H20.0001C18.2327 40 16.8 41.4327 16.8 43.2V44.8C16.8034 45.3634 16.9569 45.9157 17.2448 46.4H15.2368C14.7749 46.3996 14.4005 46.0252 14.4 45.5632ZM20.0001 46.4C19.1164 46.4 18.4 45.6837 18.4 44.8V43.2C18.4 42.3164 19.1164 41.6 20.0001 41.6H40.8001C42.1255 41.6 43.2001 42.6745 43.2001 44C43.2001 45.3255 42.1255 46.4 40.8001 46.4H20.0001ZM46.4001 45.6C46.4001 46.0418 46.0419 46.4 45.6001 46.4H43.9793C44.6266 45.5608 44.9089 44.4963 44.7623 43.4467C44.6157 42.397 44.0526 41.4505 43.2001 40.8208V36.8H45.6001C46.0419 36.8 46.4001 37.1582 46.4001 37.6V45.6Z" fill="white"/>
</g>
<defs>
<clipPath id="clip0_307_316">
<rect width="48" height="48" fill="white"/>
</clipPath>
</defs>
</svg>
