<svg width="18" height="18" viewBox="0 0 18 18" fill="none" xmlns="http://www.w3.org/2000/svg">
<g id="Icon/Outline/eye">
<path id="Mask" fill-rule="evenodd" clip-rule="evenodd" d="M9.00005 10.125C8.3798 10.125 7.87505 9.62027 7.87505 9.00002C7.87505 8.37977 8.3798 7.87502 9.00005 7.87502C9.6203 7.87502 10.1251 8.37977 10.1251 9.00002C10.1251 9.62027 9.6203 10.125 9.00005 10.125ZM9.00005 6.37502C7.55255 6.37502 6.37505 7.55252 6.37505 9.00002C6.37505 10.4475 7.55255 11.625 9.00005 11.625C10.4475 11.625 11.625 10.4475 11.625 9.00002C11.625 7.55252 10.4475 6.37502 9.00005 6.37502ZM9.16479 12.7482C5.93529 12.8232 3.82854 10.061 3.12954 8.99672C3.89904 7.79297 5.83704 5.32847 8.83554 5.25197C12.0523 5.17022 14.171 7.93922 14.87 9.00347C14.1013 10.2072 12.1625 12.6717 9.16479 12.7482ZM16.4008 8.62697C15.9223 7.79297 13.2793 3.61247 8.79731 3.75272C4.65131 3.85772 2.24006 7.51022 1.59956 8.62697C1.46681 8.85797 1.46681 9.14222 1.59956 9.37322C2.07131 10.196 4.62131 14.2497 9.01856 14.2497C9.08006 14.2497 9.14156 14.249 9.20306 14.2475C13.3483 14.1417 15.7603 10.49 16.4008 9.37322C16.5328 9.14222 16.5328 8.85797 16.4008 8.62697Z" fill="#231F20"/>
<mask id="mask0_243_392" style="mask-type:alpha" maskUnits="userSpaceOnUse" x="1" y="3" width="16" height="12">
<path id="Mask_2" fill-rule="evenodd" clip-rule="evenodd" d="M9.00005 10.125C8.3798 10.125 7.87505 9.62027 7.87505 9.00002C7.87505 8.37977 8.3798 7.87502 9.00005 7.87502C9.6203 7.87502 10.1251 8.37977 10.1251 9.00002C10.1251 9.62027 9.6203 10.125 9.00005 10.125ZM9.00005 6.37502C7.55255 6.37502 6.37505 7.55252 6.37505 9.00002C6.37505 10.4475 7.55255 11.625 9.00005 11.625C10.4475 11.625 11.625 10.4475 11.625 9.00002C11.625 7.55252 10.4475 6.37502 9.00005 6.37502ZM9.16479 12.7482C5.93529 12.8232 3.82854 10.061 3.12954 8.99672C3.89904 7.79297 5.83704 5.32847 8.83554 5.25197C12.0523 5.17022 14.171 7.93922 14.87 9.00347C14.1013 10.2072 12.1625 12.6717 9.16479 12.7482ZM16.4008 8.62697C15.9223 7.79297 13.2793 3.61247 8.79731 3.75272C4.65131 3.85772 2.24006 7.51022 1.59956 8.62697C1.46681 8.85797 1.46681 9.14222 1.59956 9.37322C2.07131 10.196 4.62131 14.2497 9.01856 14.2497C9.08006 14.2497 9.14156 14.249 9.20306 14.2475C13.3483 14.1417 15.7603 10.49 16.4008 9.37322C16.5328 9.14222 16.5328 8.85797 16.4008 8.62697Z" fill="white"/>
</mask>
<g mask="url(#mask0_243_392)">
<g id="&#240;&#159;&#142;&#168; Color">
<rect id="Base" width="18" height="18" fill="white"/>
</g>
</g>
</g>
</svg>
