<svg width="15" height="14" viewBox="0 0 15 14" fill="none" xmlns="http://www.w3.org/2000/svg">
<path d="M2.17274 2.75562H10.1591C11.1969 2.75562 12.0383 3.59693 12.0383 4.63477V9.86082C12.0383 10.8986 11.1969 11.74 10.1591 11.74H5.5787V13.4136L3.89442 11.74H2.17274C1.13493 11.74 0.293579 10.8987 0.293579 9.86082V4.63477C0.293579 3.59693 1.13493 2.75562 2.17274 2.75562Z" fill="#39A2DB" fill-opacity="0.6"/>
<path d="M12.8272 0.293701H4.84083C3.80302 0.293701 2.96167 1.13502 2.96167 2.17286V7.10562C2.96167 8.14343 3.80299 8.98478 4.84083 8.98478H9.42124V10.6584L11.1055 8.98478H12.8272C13.865 8.98478 14.7064 8.14346 14.7064 7.10562V2.17286C14.7064 1.13505 13.865 0.293701 12.8272 0.293701Z" fill="#39A2DB"/>
<path d="M12.8272 0H9.91062C9.74849 0 9.617 0.131484 9.617 0.293613C9.617 0.455741 9.74849 0.587225 9.91062 0.587225H12.8272C13.7014 0.587225 14.4127 1.29852 14.4127 2.17277V7.10554C14.4127 7.97978 13.7014 8.69108 12.8272 8.69108H11.1055C11.0279 8.69108 10.9536 8.72175 10.8985 8.77639L9.71486 9.95263V8.98469C9.71486 8.82256 9.58337 8.69108 9.42124 8.69108H4.84083C3.96658 8.69108 3.25529 7.97978 3.25529 7.10554V2.17277C3.25529 1.29852 3.96658 0.587225 4.84083 0.587225H7.63997C7.80209 0.587225 7.93358 0.455741 7.93358 0.293613C7.93358 0.131484 7.80209 0 7.63997 0H4.84083C3.64277 0 2.66806 0.974676 2.66806 2.17277V2.46184H2.17277C0.974676 2.46184 0 3.43652 0 4.63461V9.86067C0 11.0587 0.974676 12.0334 2.17277 12.0334H3.7734L5.37181 13.6217C5.42791 13.6775 5.50273 13.707 5.57885 13.707C5.61684 13.707 5.65516 13.6997 5.69158 13.6845C5.80106 13.639 5.8724 13.532 5.8724 13.4134V12.0334H10.1592C11.3573 12.0334 12.332 11.0588 12.332 9.86067V9.27831H12.8273C14.0253 9.27831 15 8.30363 15 7.10554V2.17277C15 0.974705 14.0253 0 12.8272 0ZM11.7447 9.86067C11.7447 10.7349 11.0334 11.4462 10.1591 11.4462H5.57873C5.4166 11.4462 5.28512 11.5777 5.28512 11.7398V12.7078L4.10144 11.5315C4.04642 11.4769 3.97203 11.4462 3.89446 11.4462H2.17277C2.11321 11.4462 2.05447 11.4426 1.99661 11.4362V9.68881C1.99661 9.52668 1.86512 9.3952 1.70299 9.3952C1.54087 9.3952 1.40938 9.52668 1.40938 9.68881V11.2498C0.919744 10.9796 0.587255 10.4583 0.587255 9.86064V4.63461C0.587255 3.76036 1.29855 3.04907 2.1728 3.04907H2.66806V7.10554C2.66806 8.3036 3.64274 9.27831 4.84083 9.27831H9.12763V10.6583C9.12763 10.7769 9.19897 10.8839 9.30845 10.9294C9.34492 10.9445 9.38321 10.9519 9.42121 10.9519C9.49733 10.9519 9.57212 10.9223 9.62825 10.8666L11.2267 9.27831H11.7447V9.86067H11.7447Z" fill="#A0A0A0"/>
<path d="M8.83402 0.587226C8.91125 0.587226 8.98701 0.556083 9.04159 0.501181C9.0962 0.446601 9.12767 0.370839 9.12767 0.293613C9.12767 0.216386 9.09626 0.140625 9.04159 0.0860155C8.98701 0.0314062 8.91151 0 8.83402 0C8.75679 0 8.68103 0.0313769 8.62642 0.0860155C8.57181 0.140654 8.54041 0.216386 8.54041 0.293613C8.54041 0.370839 8.57178 0.446601 8.62642 0.501181C8.68106 0.556083 8.75679 0.587226 8.83402 0.587226Z" fill="#A0A0A0"/>
<path d="M7.00606 6.54872C7.03999 6.56144 7.07473 6.56744 7.10895 6.56744C7.2279 6.56744 7.33981 6.49467 7.38399 6.37669L7.81829 5.21671H8.86219L9.29651 6.37672C9.35335 6.52851 9.52239 6.60559 9.67447 6.54872C9.82632 6.49186 9.90334 6.32267 9.84647 6.17079L8.61522 2.88228C8.5723 2.76762 8.46267 2.69165 8.34024 2.69165C8.21781 2.69165 8.10821 2.76765 8.06526 2.88231L6.83403 6.17082C6.77717 6.32267 6.85419 6.49189 7.00606 6.54872ZM8.34024 3.82263L8.64235 4.62946H8.03816L8.34024 3.82263Z" fill="white"/>
<path d="M12.8172 3.87382C12.8172 3.22185 12.2868 2.69141 11.6348 2.69141C10.9828 2.69141 10.4524 3.22182 10.4524 3.87382V5.38472C10.4524 6.03672 10.9828 6.56714 11.6348 6.56714C11.878 6.56714 12.1043 6.49322 12.2925 6.36681L12.4065 6.48098C12.4638 6.5384 12.5391 6.56714 12.6143 6.56714C12.6894 6.56714 12.7644 6.53852 12.8217 6.48133C12.9365 6.36675 12.9367 6.18086 12.8221 6.06608L12.6845 5.92818C12.7691 5.76534 12.8173 5.5806 12.8173 5.38472L12.8172 3.87382ZM12.0239 5.26648C11.9094 5.15175 11.7234 5.15161 11.6086 5.26613C11.4939 5.38071 11.4937 5.56659 11.6083 5.68138L11.8613 5.93486C11.7915 5.96371 11.715 5.97988 11.6348 5.97988C11.3066 5.97988 11.0396 5.71287 11.0396 5.38469V3.8738C11.0396 3.54561 11.3067 3.2786 11.6348 3.2786C11.963 3.2786 12.23 3.54561 12.23 3.8738V5.38469C12.23 5.41255 12.2275 5.43977 12.2237 5.46663L12.0239 5.26648Z" fill="white"/>
<path d="M5.2438 3.27863H6.12478C6.28691 3.27863 6.41839 3.14715 6.41839 2.98502C6.41839 2.82289 6.28691 2.69141 6.12478 2.69141H5.2438C4.84753 2.69141 4.52515 3.01417 4.52515 3.41091V6.27353C4.52515 6.43565 4.65663 6.56714 4.81876 6.56714C4.98089 6.56714 5.11237 6.43565 5.11237 6.27353V5.21647H6.12475C6.28688 5.21647 6.41836 5.08498 6.41836 4.92286C6.41836 4.76073 6.28688 4.62924 6.12475 4.62924H5.11237V3.41091C5.1124 3.33799 5.17135 3.27863 5.2438 3.27863Z" fill="white"/>
<path d="M1.70291 8.29419C1.62569 8.29419 1.54993 8.3256 1.49532 8.38026C1.44074 8.43484 1.4093 8.51061 1.4093 8.58783C1.4093 8.66506 1.44071 8.74082 1.49532 8.79543C1.54993 8.85004 1.62569 8.88144 1.70291 8.88144C1.78014 8.88144 1.8559 8.85007 1.91051 8.79543C1.96509 8.74082 1.99653 8.66506 1.99653 8.58783C1.99653 8.51061 1.96512 8.43484 1.91051 8.38026C1.8559 8.3256 1.78014 8.29419 1.70291 8.29419Z" fill="#A0A0A0"/>
</svg>
