<svg width="48" height="48" viewBox="0 0 48 48" fill="none" xmlns="http://www.w3.org/2000/svg">
<g clip-path="url(#clip0_307_254)">
<path d="M47.9846 23.1693C47.9305 21.6943 46.8398 20.5114 45.4307 20.3183C45.207 19.0104 44.8618 17.7213 44.4008 16.4726C45.5244 15.6009 45.8771 14.0314 45.1866 12.727C44.9259 12.2347 44.6522 11.7606 44.356 11.2883C43.5705 10.0365 42.0319 9.55763 40.7141 10.0982C39.8646 9.0781 38.9218 8.13535 37.9017 7.28579C38.4423 5.96794 37.9633 4.42941 36.7115 3.64397C36.2398 3.3481 35.7649 3.07379 35.2728 2.81335C33.9684 2.12288 32.3988 2.47566 31.5271 3.59925C30.2783 3.13819 28.9894 2.793 27.6814 2.56932C27.4886 1.16016 26.3055 0.0695674 24.8304 0.0153799C24.2772 -0.00496387 23.7222 -0.00496387 23.1692 0.0153799C21.6941 0.0696611 20.511 1.16016 20.3182 2.56932C19.0102 2.793 17.7213 3.13819 16.4725 3.59925C15.6009 2.47575 14.0313 2.12288 12.7268 2.81344C12.2349 3.07379 11.7598 3.34819 11.2882 3.64397C10.0363 4.42941 9.55746 5.96804 10.0979 7.28579C9.07784 8.13535 8.13509 9.078 7.28553 10.0982C5.96787 9.55782 4.42906 10.0367 3.64371 11.2884C3.34756 11.7606 3.07381 12.2348 2.81318 12.7271C2.12271 14.0314 2.47549 15.601 3.59899 16.4727C3.13803 17.7214 2.79274 19.0105 2.56906 20.3184C1.15999 20.5115 0.0693067 21.6944 0.0151192 23.1694C-0.00531834 23.7266 -0.00541209 24.2734 0.0151192 24.8306C0.0693067 26.3057 1.15999 27.4887 2.56906 27.6817C2.79265 28.9896 3.13793 30.2786 3.5989 31.5274C2.47531 32.3991 2.12253 33.9686 2.81309 35.2731C3.0739 35.7657 3.34709 36.2389 3.64371 36.7118C4.42906 37.9635 5.96778 38.4425 7.28553 37.9019C8.13509 38.9222 9.07774 39.8648 10.0978 40.7143C9.55728 42.0322 10.0362 43.5707 11.2881 44.3561C11.7611 44.6528 12.2328 44.9251 12.7268 45.1867C14.031 45.8771 15.6008 45.5244 16.4725 44.4008C17.7213 44.8619 19.0102 45.2071 20.3182 45.4308C20.5111 46.8398 21.6941 47.9305 23.1692 47.9847C23.7269 48.0053 24.2727 48.0053 24.8304 47.9847C26.3054 47.9305 27.4885 46.8399 27.6814 45.4308C28.9894 45.2071 30.2783 44.8619 31.5271 44.4008C32.3988 45.5244 33.9683 45.8773 35.2728 45.1867C35.7668 44.9251 36.2384 44.6528 36.7114 44.3561C37.9632 43.5708 38.4421 42.0321 37.9016 40.7144C38.9217 39.8649 39.8644 38.9223 40.714 37.902C42.0319 38.4426 43.5704 37.9636 44.3559 36.7118C44.6524 36.2391 44.9257 35.7657 45.1864 35.2732C45.8769 33.9688 45.5241 32.3993 44.4006 31.5275C44.8616 30.2787 45.2068 28.9897 45.4304 27.6818C46.8395 27.4887 47.9302 26.3058 47.9844 24.8308C48.0051 24.2733 48.0051 23.7266 47.9846 23.1693V23.1693ZM46.5793 24.7789C46.548 25.6334 45.8649 26.3029 45.0243 26.3029H44.8251C44.4752 26.3029 44.1786 26.56 44.1291 26.9064C43.9021 28.4926 43.4839 30.0544 42.8861 31.5486C42.7563 31.8731 42.8847 32.2439 43.1874 32.4187L43.359 32.5178C44.087 32.938 44.3439 33.8594 43.9437 34.6151C43.699 35.0774 43.4431 35.5207 43.1648 35.9643C42.7103 36.6887 41.784 36.9269 41.0562 36.5066L40.8804 36.4051C40.5777 36.2303 40.1929 36.3042 39.9765 36.5786C38.9824 37.8395 37.8392 38.9828 36.5786 39.9766C36.3042 40.1929 36.2303 40.5777 36.4049 40.8803L36.5065 41.0561C36.9267 41.7841 36.6886 42.7103 35.9642 43.1648C35.5204 43.4432 35.0785 43.6984 34.615 43.9438C33.8592 44.3438 32.938 44.0871 32.5176 43.359L32.4184 43.1873C32.2436 42.8845 31.8729 42.7563 31.5484 42.8861C30.0542 43.4839 28.4923 43.9021 26.9063 44.1292C26.56 44.1788 26.3027 44.4754 26.3027 44.8252V45.0243C26.3027 45.8649 25.6333 46.5479 24.7787 46.5793C24.2582 46.5984 23.7415 46.5984 23.2209 46.5793C22.3662 46.5479 21.6969 45.8648 21.6969 45.0243V44.8252C21.6969 44.4753 21.4396 44.1787 21.0933 44.1292C19.5072 43.9022 17.9454 43.484 16.4512 42.8861C16.366 42.852 16.2775 42.8357 16.1903 42.8357C15.9455 42.8357 15.7101 42.964 15.5812 43.1873L15.482 43.359C15.0617 44.087 14.1405 44.3438 13.3847 43.9437C12.9213 43.6983 12.4793 43.4431 12.0355 43.1648C11.3111 42.7103 11.0729 41.784 11.4933 41.0559L11.5947 40.8802C11.7694 40.5776 11.6954 40.1928 11.4211 39.9765C10.1605 38.9826 9.01718 37.8394 8.02315 36.5785C7.80678 36.3041 7.42184 36.2303 7.11931 36.405L6.94371 36.5064C6.21574 36.9267 5.2894 36.6884 4.83499 35.9642C4.55656 35.5205 4.30081 35.0773 4.05603 34.6149C3.6559 33.8591 3.91278 32.9378 4.64074 32.5176L4.8124 32.4185C5.11512 32.2436 5.24356 31.8729 5.11362 31.5484C4.51587 30.0542 4.09765 28.4924 3.87068 26.9063C3.82109 26.5599 3.52456 26.3027 3.17468 26.3027H2.97546C2.1349 26.3027 1.45184 25.6332 1.42043 24.7787C1.40112 24.2557 1.40112 23.7438 1.42043 23.2208C1.45174 22.3662 2.1349 21.6968 2.97546 21.6968H3.17468C3.52456 21.6968 3.82118 21.4397 3.87068 21.0933C4.09765 19.5071 4.51587 17.9453 5.11362 16.4512C5.24346 16.1266 5.11512 15.7558 4.8124 15.5811L4.64074 15.4819C3.91278 15.0616 3.6559 14.1403 4.05603 13.3846C4.30062 12.9225 4.55703 12.4784 4.83499 12.0353C5.28949 11.3109 6.21565 11.0727 6.94371 11.4931L7.11949 11.5946C7.42212 11.7694 7.80696 11.6954 8.02324 11.421C9.01728 10.1603 10.1606 9.01697 11.4212 8.02304C11.6955 7.80675 11.7695 7.42191 11.5948 7.11938L11.4933 6.9435C11.073 6.21554 11.3111 5.28919 12.0356 4.83479C12.4782 4.5571 12.9232 4.30022 13.3848 4.05582C14.1403 3.65579 15.0618 3.91257 15.4822 4.64063L15.5814 4.81238C15.7562 5.1151 16.127 5.24344 16.4514 5.1135C17.9456 4.51575 19.5074 4.09754 21.0935 3.87057C21.4398 3.82097 21.6971 3.52435 21.6971 3.17447V2.97563C21.6971 2.13507 22.3665 1.452 23.2211 1.4206C23.7399 1.40147 24.26 1.40147 24.7789 1.4206C25.6334 1.452 26.3029 2.13507 26.3029 2.97563V3.17485C26.3029 3.52472 26.5602 3.82135 26.9065 3.87094C28.4925 4.09791 30.0544 4.51613 31.5486 5.11388C31.8729 5.24372 32.2438 5.11547 32.4186 4.81275L32.5178 4.641C32.9381 3.91304 33.8593 3.65616 34.6151 4.05619C35.0768 4.30069 35.5217 4.55747 35.9643 4.83516C36.6887 5.28966 36.9268 6.21591 36.5065 6.94397L36.405 7.11975C36.2304 7.42229 36.3043 7.80713 36.5786 8.02341C37.8393 9.01735 38.9826 10.1606 39.9766 11.4214C40.1929 11.6957 40.5778 11.7697 40.8804 11.595L41.0562 11.4935C41.784 11.0733 42.7104 11.3113 43.1649 12.0357C43.4428 12.4789 43.6992 12.9229 43.9438 13.385C44.344 14.1408 44.0871 15.062 43.3591 15.4823L43.1875 15.5814C42.8847 15.7562 42.7563 16.1269 42.8862 16.4515C43.484 17.9457 43.9022 19.5075 44.1292 21.0937C44.1787 21.44 44.4753 21.6972 44.8252 21.6972H45.0244C45.865 21.6972 46.548 22.3666 46.5794 23.2211C46.5986 23.744 46.5986 24.2558 46.5793 24.7789V24.7789Z" fill="white"/>
<path d="M27.8361 28.9157C27.9483 29.6976 28.3584 30.3891 28.9903 30.8625C29.5058 31.249 30.1183 31.4533 30.7618 31.4533C31.6898 31.4533 32.5754 31.0104 33.1307 30.2687C34.5004 28.4404 35.2244 26.2727 35.2244 24.0002C35.2244 21.7277 34.5004 19.56 33.1309 17.7318C32.6569 17.0987 31.9648 16.6882 31.1821 16.5763C30.4005 16.4644 29.6218 16.6639 28.9907 17.1376C28.3583 17.6112 27.9482 18.3027 27.836 19.0847C27.7238 19.8668 27.9229 20.6457 28.3965 21.2776C28.8494 21.8825 29.14 22.5706 29.254 23.297H26.2061V14.2305C26.2061 13.8422 25.8912 13.5273 25.5029 13.5273C25.1146 13.5273 24.7998 13.8422 24.7998 14.2305V33.7699C24.7998 34.1582 25.1146 34.473 25.5029 34.473C25.8912 34.473 26.2061 34.1582 26.2061 33.7699V24.7033H29.254C29.14 25.4298 28.8495 26.1177 28.3967 26.7225C27.923 27.3546 27.7239 28.1335 27.8361 28.9157ZM29.5223 27.5656C30.1597 26.7143 30.5514 25.7359 30.6737 24.7033H30.7636C31.1519 24.7033 31.4667 24.3885 31.4667 24.0002C31.4667 23.6119 31.1519 23.297 30.7636 23.297H30.6737C30.5514 22.2643 30.1596 21.2859 29.5221 20.4345C29.2736 20.103 29.1692 19.6946 29.2281 19.2844C29.287 18.8743 29.502 18.5116 29.8344 18.2627C30.1053 18.0593 30.4277 17.9523 30.7604 17.9523C30.8343 17.9523 30.9086 17.9577 30.983 17.9683C31.3934 18.0271 31.7564 18.2423 32.0053 18.5748C33.1914 20.1579 33.8182 22.0339 33.8182 24.0002C33.8182 25.9664 33.1913 27.8424 32.0051 29.4258C31.7096 29.8206 31.2564 30.047 30.7619 30.047C30.425 30.047 30.1042 29.94 29.8337 29.7371C29.502 29.4888 29.2869 29.1259 29.2281 28.7158C29.1692 28.3057 29.2736 27.8974 29.5223 27.5656Z" fill="white"/>
<path d="M17.2381 31.4533C17.8816 31.4533 18.4942 31.249 19.0093 30.8628C19.6417 30.3891 20.0518 29.6976 20.164 28.9157C20.2762 28.1335 20.0771 27.3546 19.6034 26.7228C19.1505 26.1178 18.86 25.4298 18.746 24.7033H21.7938V33.7699C21.7938 34.1582 22.1086 34.473 22.4969 34.473C22.8853 34.473 23.2001 34.1582 23.2001 33.7699V14.2305C23.2001 13.8422 22.8853 13.5273 22.4969 13.5273C22.1086 13.5273 21.7938 13.8422 21.7938 14.2305V23.297H18.746C18.86 22.5706 19.1504 21.8826 19.6033 21.2778C20.0771 20.6457 20.2762 19.8668 20.164 19.0847C20.0518 18.3027 19.6417 17.6112 19.0095 17.1378C18.3774 16.6639 17.5985 16.4647 16.8163 16.5772C16.0344 16.6895 15.3429 17.0995 14.8693 17.7317C13.4996 19.56 12.7756 21.7276 12.7756 24.0002C12.7756 26.2728 13.4996 28.4404 14.869 30.2683C15.4242 31.0103 16.3098 31.4533 17.2381 31.4533ZM15.9947 18.5748C16.2432 18.2432 16.606 18.028 17.0161 17.9691C17.0909 17.9584 17.1656 17.9531 17.2398 17.9531C17.5725 17.9531 17.8951 18.06 18.1663 18.2632C18.4979 18.5116 18.7131 18.8744 18.7719 19.2845C18.8308 19.6947 18.7263 20.103 18.4776 20.4348C17.8403 21.2862 17.4486 22.2645 17.3263 23.2971H17.2363C16.8479 23.2971 16.5331 23.6119 16.5331 24.0003C16.5331 24.3886 16.8479 24.7034 17.2363 24.7034H17.3263C17.4486 25.7361 17.8403 26.7145 18.4779 27.5659C18.7263 27.8974 18.8308 28.3059 18.7719 28.716C18.713 29.1261 18.4979 29.4889 18.1658 29.7376C17.8957 29.9402 17.5749 30.0471 17.238 30.0471C16.7433 30.0471 16.2902 29.8207 15.9946 29.4257C14.8087 27.8425 14.1818 25.9665 14.1818 24.0003C14.1818 22.034 14.8088 20.1578 15.9947 18.5748Z" fill="white"/>
<path d="M9.67285 24C9.67285 16.1 16.1 9.67295 24 9.67295C27.2959 9.67295 30.5152 10.8219 33.0649 12.9084C33.3654 13.1544 33.8084 13.1101 34.0543 12.8095C34.3003 12.509 34.256 12.066 33.9554 11.8201C31.1552 9.52857 27.6196 8.2666 24 8.2666C15.3246 8.2666 8.2666 15.3246 8.2666 23.9999C8.2666 27.6195 9.52857 31.1551 11.8201 33.9553C11.959 34.1252 12.1611 34.2132 12.3647 34.2132C12.5213 34.2132 12.6789 34.1611 12.8095 34.0542C13.1101 33.8083 13.1544 33.3653 12.9084 33.0648C10.8219 30.5152 9.67285 27.2958 9.67285 24Z" fill="white"/>
<path d="M35.1905 13.9457C34.8899 14.1916 34.8457 14.6346 35.0916 14.9351C37.178 17.4848 38.3271 20.7042 38.3271 24C38.3271 31.9 31.9 38.327 24 38.327C20.7041 38.327 17.4848 37.178 14.9351 35.0915C14.6346 34.8456 14.1916 34.8899 13.9456 35.1904C13.6996 35.491 13.744 35.934 14.0445 36.1799C16.8449 38.4713 20.3805 39.7333 24 39.7333C32.6754 39.7333 39.7334 32.6753 39.7334 24C39.7334 20.3804 38.4714 16.8448 36.1799 14.0446C35.934 13.7439 35.4911 13.6997 35.1905 13.9457Z" fill="white"/>
</g>
<defs>
<clipPath id="clip0_307_254">
<rect width="48" height="48" fill="white"/>
</clipPath>
</defs>
</svg>
