<svg width="48" height="48" viewBox="0 0 48 48" fill="none" xmlns="http://www.w3.org/2000/svg">
<g clip-path="url(#clip0_307_312)">
<path d="M44.8487 20.8469C42.1769 16.5062 37.8845 13.8387 35.5636 12.6352C34.3647 12.0134 32.8347 12.5762 32.3304 13.8451L31.6942 15.4454C31.2535 16.5539 31.7148 17.8087 32.7673 18.3642C33.2119 18.599 33.6494 18.8523 34.0777 19.1181L31.9724 20.8577C31.7256 21.0616 31.5278 21.3102 31.3845 21.5966L29.3498 25.666H19.7328L19.1573 24.0669C20.7747 23.3548 21.5908 21.4962 20.9834 19.8087L19.2036 14.8632C18.7198 13.5187 17.435 12.6155 16.0067 12.6155C15.6938 12.6155 15.384 12.6594 15.0827 12.7449L14.7155 11.7245C16.3329 11.0123 17.149 9.15375 16.5417 7.46634L14.9604 3.07275C14.4765 1.72828 13.1918 0.824903 11.7635 0.824903C11.4165 0.824903 11.0732 0.878341 10.7412 0.983341C10.5053 0.664216 10.1928 0.40631 9.82364 0.232591C9.23667 -0.043784 8.57723 -0.074909 7.96683 0.144841C7.96683 0.144841 4.42026 1.42115 4.41792 1.422C3.17442 1.86947 2.5072 3.28528 2.95505 4.52962L5.08345 10.4437C5.21498 10.8091 5.61773 10.9987 5.98317 10.8672C6.34851 10.7358 6.53817 10.3329 6.40673 9.9675C6.40673 9.9675 4.2802 4.0589 4.27823 4.05347C4.08914 3.528 4.37011 2.93362 4.89408 2.74509C4.89408 2.74509 8.43698 1.47 8.44298 1.46784C8.96789 1.27893 9.56311 1.56065 9.75136 2.08368L18.5771 26.607C18.6775 26.8861 18.9421 27.072 19.2387 27.072H37.8068C38.688 27.072 39.4049 27.7889 39.4049 28.6701V33.2314C39.4049 34.1125 38.688 34.8294 37.8068 34.8294H33.5671C33.1788 34.8294 32.864 35.1442 32.864 35.5326C32.864 35.9209 33.1788 36.2357 33.5671 36.2357H36.6486L36.275 36.9541C35.8427 37.7852 34.9921 38.3016 34.0553 38.3016H27.8723H22.3832C21.4463 38.3016 20.5958 37.7852 20.1635 36.9541L19.7899 36.2357H30.7601C31.1484 36.2357 31.4632 35.9209 31.4632 35.5326C31.4632 35.1442 31.1484 34.8294 30.7601 34.8294H18.6318C16.6714 34.8294 14.9083 33.5901 14.2444 31.7455L7.45917 12.8925C7.32773 12.5271 6.92489 12.3375 6.55945 12.4689C6.19411 12.6005 6.00455 13.0032 6.13598 13.3687L12.9211 32.222C13.7357 34.4855 15.8222 36.048 18.1964 36.2196L18.9159 37.6031C19.3745 38.485 20.135 39.139 21.0341 39.4685L18.0318 42.8613H13.4904C11.9072 42.8613 10.439 43.7821 9.74948 45.2072C9.13411 46.4789 10.0933 48 11.5007 48C11.5007 48 38.1024 48 38.1266 48C39.5378 48 40.4928 46.478 39.878 45.2072C39.1886 43.7821 37.7202 42.8613 36.1371 42.8613H25.3986L28.189 39.708H34.0553C35.5187 39.708 36.8472 38.9015 37.5224 37.6031L38.2507 36.2029C39.6974 35.9876 40.811 34.7373 40.811 33.2317V28.6703C40.811 27.0138 39.4633 25.6661 37.8068 25.6661H34.455L35.2529 24.0704L37.7275 22.0257C38.3032 22.625 38.8559 23.2974 39.3284 24.038C39.9514 25.0142 41.2375 25.3975 42.2881 24.9049C42.2881 24.9049 43.849 24.173 43.8498 24.1726C45.0869 23.5924 45.567 22.0138 44.8487 20.8469ZM14.2376 10.3969L11.3174 2.28234C11.4639 2.2484 11.6131 2.23125 11.7634 2.23125C12.6005 2.23125 13.3535 2.76075 13.6372 3.549L15.2184 7.94259C15.5629 8.90006 15.126 9.95212 14.2376 10.3969ZM18.6795 22.7392L15.5606 14.0729C15.7072 14.039 15.8565 14.0218 16.0067 14.0218C16.8438 14.0218 17.5968 14.5513 17.8804 15.3396L19.6603 20.285C20.0048 21.2424 19.5679 22.2944 18.6795 22.7392ZM36.137 44.2676C37.1845 44.2676 38.156 44.8768 38.6123 45.82C38.7841 46.1757 38.518 46.5939 38.1267 46.5939C38.1267 46.5939 11.5697 46.5939 11.5009 46.5939C11.1084 46.5939 10.8449 46.1721 11.0153 45.8197C11.4714 44.8768 12.443 44.2676 13.4904 44.2676H36.137ZM23.5208 42.8614H19.9095L22.6999 39.7081H26.3112L23.5208 42.8614ZM34.2426 23.081C34.167 23.1434 34.1054 23.2209 34.0616 23.3085L32.8828 25.6661H30.9219L32.6422 22.2256C32.6972 22.1155 32.7732 22.0201 32.868 21.9417L35.2987 19.9332C35.784 20.2819 36.2521 20.6554 36.7017 21.049L34.2426 23.081ZM43.7441 22.3239C43.6709 22.5685 43.4991 22.7839 43.2527 22.8994C43.2527 22.8994 41.6925 23.6309 41.691 23.6317C41.2695 23.8293 40.7624 23.6711 40.5137 23.2816C39.8614 22.2593 39.0771 21.3611 38.2808 20.5926C37.4706 19.8105 36.6057 19.0837 35.6605 18.4688C35.6595 18.4682 35.6584 18.4678 35.6575 18.4672C34.9427 17.9794 34.1916 17.5262 33.4234 17.1207C33.0077 16.9012 32.8259 16.4044 33.0007 15.9649C33.0007 15.9649 33.6356 14.3678 33.6369 14.3645C33.835 13.8662 34.4395 13.6362 34.9161 13.8833C37.1078 15.0201 41.1569 17.5318 43.6509 21.584C43.7926 21.8141 43.8161 22.0832 43.7441 22.3239Z" fill="white"/>
</g>
<defs>
<clipPath id="clip0_307_312">
<rect width="48" height="48" fill="white"/>
</clipPath>
</defs>
</svg>
