<svg width="48" height="48" viewBox="0 0 48 48" fill="none" xmlns="http://www.w3.org/2000/svg">
<path d="M38.3281 29.4075C38.3292 29.4097 38.3303 29.4119 38.3311 29.4138C38.4904 29.7704 38.8284 29.9796 39.1869 29.9796C39.3151 29.9796 39.4458 29.9528 39.5718 29.8968C40.0515 29.6837 40.2588 29.1369 40.0442 28.652C39.8299 28.1672 39.2858 27.9529 38.8053 28.1642C38.3248 28.3759 38.1154 28.9219 38.3281 29.4075Z" fill="white"/>
<path d="M40.9148 32.1397C40.8343 31.6285 40.3542 31.2791 39.8426 31.3604C39.3313 31.441 38.9823 31.9211 39.0633 32.4327C39.2735 33.7646 39.3313 35.1221 39.2347 36.4672C39.0105 39.5855 37.4344 42.4313 34.9101 44.2755L34.2762 44.7384C33.0344 45.6455 31.5655 46.1249 30.0278 46.1249C29.4711 46.1249 28.9141 46.0601 28.3729 45.9323L25.8885 45.3456C21.0868 44.2118 16.7069 41.5473 13.5556 37.8431C12.1549 36.1962 11.5232 34.9983 11.0379 33.7646C11.0768 33.6393 11.0907 33.5042 11.0724 33.3654C11.0672 33.3251 10.6058 29.2759 16.3161 26.6766C20.2324 24.8939 22.0645 21.8452 22.7021 20.5308C26.9956 21.1234 28.4732 22.3319 28.5831 22.4267C28.8098 22.6669 29.1225 22.7446 29.4462 22.6713C29.5242 22.6538 29.6015 22.6369 29.6784 22.6208C32.6824 21.9902 35.7809 23.5902 37.0473 26.4235C37.2586 26.8963 37.813 27.1083 38.2858 26.897C38.7586 26.6857 38.9703 26.1313 38.7593 25.6585C38.0419 24.0541 36.8356 22.7032 35.3338 21.8056C35.3345 21.8023 35.336 21.7994 35.3371 21.7961C35.5261 21.1922 35.6216 20.5623 35.6216 19.9244C35.6216 19.7966 35.6165 19.6699 35.6092 19.5439H36.2596C36.777 19.5439 37.1971 19.1242 37.1971 18.6064C37.1971 18.0886 36.777 17.6689 36.2596 17.6689H35.1998C34.9588 17.0471 34.6222 16.4725 34.2066 15.9646L34.631 15.5401C34.9972 15.1739 34.9972 14.5803 34.631 14.2141C34.2648 13.8482 33.6716 13.8482 33.3054 14.2141L32.8146 14.7048C32.0544 14.2002 31.178 13.857 30.2347 13.7245C31.4769 12.7309 33.1087 12.2604 35.0972 12.3281C35.351 12.3376 35.5978 12.2417 35.7809 12.0652C35.9637 11.8886 36.0666 11.6455 36.0666 11.3913V7.82005C36.0666 7.33226 35.6927 6.92613 35.2064 6.88585C35.0544 6.8734 33.2988 6.73973 31.0162 7.01439C29.9956 5.03942 28.5589 3.57238 26.9066 2.75793L27.5701 1.76733C27.8583 1.33703 27.743 0.754759 27.3127 0.466918C26.8828 0.178711 26.3005 0.2937 26.0123 0.723997L25.0623 2.14233C24.6573 2.06762 24.2446 2.02771 23.8267 2.02771C23.5858 2.02771 23.3459 2.04126 23.1082 2.06652V0.937498C23.1082 0.419677 22.6886 0 22.1707 0C21.6529 0 21.2332 0.419677 21.2332 0.937498V2.54077C20.3536 2.89892 19.5205 3.43981 18.7595 4.15612C18.19 4.69188 17.6777 5.31151 17.2284 5.99889C16.8768 5.30529 16.1568 4.82811 15.3274 4.82811H12.7826C11.6078 4.82811 10.652 5.78392 10.652 6.95873V16.5421C10.1803 16.9087 9.72545 17.3382 9.29039 17.8344C7.23522 20.1785 6.82616 23.2503 6.84484 25.4143C6.86608 27.862 7.45787 30.3574 8.39317 31.9573C8.53453 32.336 8.66161 32.7011 8.78502 33.0552C9.41527 34.8621 10.0104 36.569 12.1274 39.0578C15.5357 43.0645 20.2697 45.9455 25.4578 47.1704L27.9418 47.7571C28.6245 47.9182 29.3261 47.9999 30.0278 47.9999C31.9658 47.9999 33.8173 47.3957 35.3818 46.2527L36.0157 45.7898C38.9864 43.6197 40.8412 40.271 41.1049 36.6016C41.2118 35.1141 41.1478 33.613 40.9148 32.1397ZM29.4744 20.7498C29.0965 20.4869 28.4523 20.1123 27.4456 19.7365C27.5233 18.8342 27.7851 17.1339 28.6655 15.5921C28.8936 15.5562 29.1265 15.5372 29.3591 15.5372C31.7783 15.5372 33.7466 17.5056 33.7466 19.9248C33.7466 20.2972 33.6994 20.6649 33.6078 21.0212C32.277 20.5898 30.8517 20.4928 29.4744 20.7498ZM34.1916 8.72386V10.4582C31.8691 10.5589 29.9531 11.3346 28.486 12.7694C26.4257 14.7854 25.8043 17.5858 25.6179 19.177C24.721 18.9532 23.6561 18.7514 22.396 18.6009C22.111 18.3369 21.8272 18.0879 21.5445 17.8527C21.546 17.83 21.5478 17.8077 21.5478 17.7846C21.5478 15.2666 22.3615 13.2392 23.9659 11.7594C27.0172 8.94505 32.1613 8.70408 34.1916 8.72386ZM23.8267 3.9027C24.2966 3.9027 24.7595 3.97192 25.2099 4.10338C25.2103 4.10338 25.211 4.10375 25.2114 4.10375C26.7055 4.54027 28.059 5.67443 29.0533 7.34068C26.874 7.81053 24.5159 8.70372 22.7003 10.3758C20.9714 11.9677 19.9768 14.0361 19.7329 16.5362C18.9657 16.0601 18.2065 15.6943 17.458 15.4405V10.0195C17.4741 9.98179 17.4891 9.94334 17.5008 9.90306C18.5346 6.3142 21.0769 3.9027 23.8267 3.9027ZM12.527 6.95873C12.527 6.81774 12.6416 6.70311 12.7826 6.70311H15.3274C15.4684 6.70311 15.583 6.81774 15.583 6.95873V15.037C15.2688 15.0095 14.9571 15.0022 14.6473 15.0161C13.9138 15.0487 13.2063 15.1988 12.527 15.4632V6.95873ZM10.7003 19.0708C11.9121 17.6883 13.2682 16.9544 14.7308 16.8892C16.5959 16.8058 18.7419 17.8194 20.9553 19.8248C20.3829 20.948 18.7902 23.4902 15.5394 24.97C11.9516 26.603 10.4201 28.8185 9.76683 30.3892C9.75584 30.416 9.74559 30.442 9.7346 30.4683C8.54955 27.843 7.91234 22.2506 10.7003 19.0708Z" fill="white"/>
<path d="M18.7333 37.7032C18.3348 37.3725 17.7438 37.4278 17.4131 37.8262C17.0828 38.2246 17.1377 38.8157 17.5361 39.146C20.0721 41.2503 23.1095 42.7627 26.3193 43.5208C26.3918 43.538 26.4644 43.5461 26.5358 43.5461C26.9606 43.5461 27.3455 43.2553 27.4473 42.8239C27.5663 42.32 27.2543 41.815 26.7504 41.696C23.8203 41.0042 21.0481 39.6232 18.7333 37.7032Z" fill="white"/>
<path d="M15.0813 35.3097C14.6898 35.6488 14.6455 36.238 14.9842 36.6292C15.1699 36.8518 15.4365 36.9664 15.7053 36.9664C15.917 36.9664 16.1297 36.8954 16.3048 36.7493C16.7025 36.4179 16.7563 35.8268 16.4249 35.4291L16.4059 35.4067C16.0667 35.0153 15.4724 34.9706 15.0813 35.3097Z" fill="white"/>
</svg>
