<svg width="20" height="22" viewBox="0 0 20 22" fill="none" xmlns="http://www.w3.org/2000/svg">
<path fill-rule="evenodd" clip-rule="evenodd" d="M16.99 18.9877H14V11.9878C14 11.4347 13.552 10.9878 13 10.9878H7C6.447 10.9878 6 11.4347 6 11.9878V18.9877H3L3.006 10.5708L9.998 3.41975L17 10.6117L16.99 18.9877ZM8 18.9878H12V12.9878H8V18.9878ZM18.424 9.17275L10.715 1.28875C10.338 0.90375 9.662 0.90375 9.285 1.28875L1.575 9.17375C1.21 9.54875 1 10.0728 1 10.6117V18.9877C1 20.0907 1.847 20.9877 2.888 20.9877H7H13H17.111C18.152 20.9877 19 20.0907 19 18.9877V10.6117C19 10.0728 18.79 9.54875 18.424 9.17275Z" fill="#39A2DB"/>
<mask id="mask0_109_174" style="mask-type:alpha" maskUnits="userSpaceOnUse" x="0" y="0" width="20" height="22">
</mask>
<g mask="url(#mask0_109_174)">
<rect x="-2.00024" y="-1.01221" width="24" height="24" stroke="#39A2DB" stroke-width="0.6"/>
</g>
</svg>
