<svg width="48" height="48" viewBox="0 0 48 48" fill="none" xmlns="http://www.w3.org/2000/svg">
<g clip-path="url(#clip0_307_261)">
<path d="M23 48C22.998 48 22.996 48 22.994 48C22.442 47.996 21.996 47.544 22 46.994C22.002 46.698 22.054 39.732 22.246 37.88C22.506 35.392 23.802 33.498 25.896 32.548C29.204 31.046 33.188 32.756 35.156 36.52C36.004 38.142 36.214 39.918 35.776 41.802C35.536 42.832 35.28 43.616 34.968 44.272C34.296 45.688 33.984 47.186 33.98 47.2C33.87 47.742 33.336 48.086 32.8 47.98C32.258 47.87 31.91 47.342 32.02 46.802C32.034 46.73 32.38 45.056 33.16 43.414C33.408 42.892 33.62 42.236 33.826 41.348C34.156 39.926 34.012 38.65 33.382 37.448C31.912 34.636 29.048 33.316 26.718 34.368C25.278 35.022 24.418 36.308 24.232 38.086C24.052 39.842 24 46.936 24 47.006C23.996 47.556 23.548 48 23 48Z" fill="white"/>
<path d="M38.0179 34C36.9099 34 35.8678 33.406 35.2018 32.384C33.5858 29.906 33.5979 26.034 35.2279 23.568C35.8939 22.56 36.8919 21.948 38.0679 22C39.1839 22.026 40.1778 22.638 40.7938 23.678C42.3978 26.374 42.4098 29.078 40.8338 32.186C40.2918 33.258 39.2999 33.934 38.1859 33.994C38.1299 34 38.0739 34 38.0179 34ZM37.9958 24C37.5798 24 37.1798 24.244 36.8978 24.672C35.7158 26.462 35.7079 29.494 36.8799 31.292C37.1839 31.758 37.6599 32.022 38.0799 31.998C38.4839 31.976 38.8298 31.722 39.0518 31.282C40.3058 28.808 40.3138 26.78 39.0778 24.698C38.8158 24.256 38.4398 24.008 38.0218 23.998C38.0118 24 38.0018 24 37.9958 24Z" fill="white"/>
<path d="M17.0002 48C16.4482 48 16.0002 47.552 16.0002 47V42.758C16.0002 37.344 14.0802 32.084 10.5922 27.944L0.23417 15.644C-0.12183 15.222 -0.0678297 14.59 0.35417 14.234C0.77617 13.876 1.40817 13.934 1.76417 14.354L12.1222 26.654C15.9122 31.156 18.0002 36.876 18.0002 42.758V47C18.0002 47.552 17.5522 48 17.0002 48Z" fill="white"/>
<path d="M44.088 48C44.038 48 43.988 47.996 43.938 47.988C43.392 47.906 43.016 47.396 43.1 46.85L45.82 28.898C46.704 23.058 44.24 17.106 39.39 13.362L24.39 1.78996C23.954 1.45196 23.872 0.823961 24.21 0.385961C24.546 -0.0500386 25.172 -0.132039 25.614 0.205961L40.614 11.778C46.04 15.964 48.794 22.64 47.8 29.196L45.08 47.148C45.002 47.646 44.576 48 44.088 48Z" fill="white"/>
<path d="M21.9978 30.0001C20.7418 30.0001 19.5238 29.6141 18.4878 28.8661C16.9298 27.7381 15.9998 25.9181 15.9998 24.0001C15.9998 23.3521 16.1018 22.7141 16.3058 22.1021C16.6778 20.9801 16.4778 19.8921 15.7758 19.1901L0.291768 3.70809C-0.0982324 3.31809 -0.0982324 2.68409 0.291768 2.29409C0.681768 1.90409 1.31577 1.90409 1.70577 2.29409L17.1898 17.7781C18.4378 19.0261 18.8178 20.8781 18.2038 22.7341C18.0678 23.1401 17.9998 23.5681 17.9998 24.0001C17.9998 25.2801 18.6198 26.4921 19.6598 27.2441C20.7198 28.0101 22.0758 28.2021 23.3738 27.7741C24.9778 27.2461 26.0798 25.5661 25.9938 23.7841C25.9818 23.5421 25.9498 23.3261 25.8958 23.1281C25.7998 22.7801 25.8978 22.4081 26.1518 22.1541C26.4058 21.8981 26.7738 21.7981 27.1258 21.8981C27.3778 21.9661 27.6638 22.0001 27.9998 22.0001C29.2498 22.0001 30.4078 21.4301 31.1718 20.4361C31.9378 19.4421 32.1858 18.1501 31.8538 16.8941C31.5258 15.6561 30.5838 14.6381 29.3918 14.2341C28.4578 13.9161 27.4998 13.9181 26.6158 14.2421C24.9058 14.8681 23.1098 14.5221 21.9318 13.3441L10.2918 1.70809C9.90177 1.31809 9.90177 0.684087 10.2918 0.294087C10.6818 -0.0959131 11.3158 -0.0959131 11.7058 0.294087L23.3438 11.9321C23.9738 12.5621 24.9418 12.7261 25.9278 12.3661C27.2438 11.8841 28.6638 11.8741 30.0318 12.3421C31.8498 12.9601 33.2878 14.5081 33.7838 16.3841C34.2758 18.2461 33.8998 20.1661 32.7538 21.6561C31.6098 23.1461 29.8758 24.0001 27.9998 24.0001C27.9878 26.5461 26.3458 28.9001 24.0018 29.6721C23.3378 29.8921 22.6618 30.0001 21.9978 30.0001Z" fill="white"/>
</g>
<defs>
<clipPath id="clip0_307_261">
<rect width="48" height="48" fill="white"/>
</clipPath>
</defs>
</svg>
