<svg width="48" height="48" viewBox="0 0 48 48" fill="none" xmlns="http://www.w3.org/2000/svg">
<g clip-path="url(#clip0_307_324)">
<path d="M40.2581 0C38.6292 0 37.0762 0.691406 35.7637 1.99899C34.4841 3.27482 33.8895 5.11051 34.0551 7.00554C28.4021 9.70123 24.7742 15.3916 24.7742 21.6774V26.3226H23.2258V21.6774C23.2258 15.3916 19.5979 9.70123 13.9442 7.00554C14.1098 5.11051 13.5151 3.27482 12.2355 1.99899C10.9238 0.691406 9.37084 0 7.74194 0C3.47291 0 0 4.86177 0 10.8387C0 16.8156 3.47291 21.6774 7.74194 21.6774C9.37084 21.6774 10.9238 20.986 12.2363 19.6784C13.9718 17.9482 14.4587 15.1867 13.4766 12.6449C13.3926 12.4283 13.3363 12.1883 13.286 11.9459C16.5389 14.0723 18.5806 17.7524 18.5806 21.6774V26.6012C17.1423 27.0525 15.9265 28.035 15.2778 29.3653C14.3936 31.1753 14.5554 33.3153 15.7005 34.9502L18.8819 39.4948C20.2043 41.3589 20.9025 43.3828 20.9025 45.3485V48H27.096V45.3485C27.096 43.3828 27.7942 41.3589 29.1366 39.4676L32.2103 35.0772C32.7996 34.2358 33.1618 33.3111 33.2578 32.4061C33.4241 30.8509 32.9233 29.2961 31.886 28.142C31.2161 27.3973 30.3591 26.8605 29.4194 26.5702V21.6774C29.4194 17.7524 31.4611 14.0723 34.7147 11.9452C34.6637 12.1875 34.6081 12.4272 34.5246 12.6442C33.5413 15.1867 34.0282 17.9475 35.7645 19.6777C37.0762 20.986 38.6292 21.6774 40.2581 21.6774C44.5271 21.6774 48 16.8156 48 10.8387C48 4.86177 44.5271 0 40.2581 0V0ZM11.143 18.5822C10.1273 19.5941 8.95123 20.129 7.74194 20.129C4.32686 20.129 1.54839 15.9617 1.54839 10.8387C1.54839 5.71573 4.32686 1.54839 7.74194 1.54839C8.95123 1.54839 10.1273 2.08329 11.143 3.09526C12.4446 4.39264 12.7935 6.50466 12.0318 8.47492C11.7577 9.1841 11.6129 10.0018 11.6129 10.8387C11.6129 11.6757 11.7577 12.4933 12.0318 13.2025C12.7927 15.1728 12.4438 17.2848 11.143 18.5822ZM13.2233 10.1095C13.2736 9.72845 13.3495 9.36063 13.4754 9.03251C13.5352 8.87828 13.5722 8.7214 13.6213 8.56565C18.5421 11.0685 21.6774 16.1171 21.6774 21.6774V26.3226H20.3411C20.2693 26.3226 20.2001 26.3343 20.129 26.3373V21.6774C20.129 16.875 17.4333 12.3981 13.2233 10.1095ZM30.7341 29.1763C31.4902 30.017 31.8395 31.1057 31.7181 32.2421C31.6489 32.8877 31.3805 33.5614 30.9413 34.1893L27.8547 38.5989C26.3456 40.7264 25.5484 43.0607 25.5484 45.3485V46.4516H22.4516V45.3485C22.4516 43.0607 21.6544 40.7264 20.1313 38.5796L16.9695 34.063C16.1473 32.8885 16.0328 31.3488 16.669 30.045C17.3131 28.7242 18.7549 27.871 20.3411 27.871H27.8067C28.9207 27.871 29.9883 28.3473 30.7341 29.1763ZM27.871 21.6774V26.3256C27.8494 26.3256 27.8283 26.3226 27.8067 26.3226H26.3226V21.6774C26.3226 16.1171 29.4579 11.0685 34.3787 8.56641C34.4278 8.72215 34.4648 8.87828 34.5246 9.03327C34.6505 9.36063 34.7264 9.72845 34.7767 10.1103C30.5667 12.3981 27.871 16.875 27.871 21.6774ZM40.2581 20.129C39.0488 20.129 37.8727 19.5941 36.857 18.5822C35.5554 17.2848 35.2065 15.1728 35.9682 13.2025C36.2423 12.4933 36.3871 11.6757 36.3871 10.8387C36.3871 10.0018 36.2423 9.1841 35.9682 8.47492C35.2073 6.50466 35.5562 4.3934 36.857 3.09526C37.8727 2.08329 39.0488 1.54839 40.2581 1.54839C43.6731 1.54839 46.4516 5.71573 46.4516 10.8387C46.4516 15.9617 43.6731 20.129 40.2581 20.129Z" fill="white"/>
<path d="M37.1614 5.41931V6.9677C38.4202 6.9677 39.484 8.74063 39.484 10.8387C39.484 12.9367 38.4202 14.7096 37.1614 14.7096V16.258C39.3324 16.258 41.0323 13.8772 41.0323 10.8387C41.0323 7.80011 39.3324 5.41931 37.1614 5.41931Z" fill="white"/>
<path d="M6.96777 10.8387C6.96777 13.8772 8.66775 16.258 10.8387 16.258V14.7096C9.57992 14.7096 8.51616 12.9367 8.51616 10.8387C8.51616 8.74063 9.57992 6.9677 10.8387 6.9677V5.41931C8.66775 5.41931 6.96777 7.80011 6.96777 10.8387Z" fill="white"/>
<path d="M24 35.4628C23.0391 33.0548 21.2276 31.038 18.8068 29.8272L18.1524 29.5006L17.4595 30.8857L18.1138 31.2123C21.2673 32.7894 23.2259 35.9588 23.2259 39.4839H24.7742C24.7742 35.9588 26.7328 32.7894 29.8863 31.2131L30.5406 30.8864L29.8477 29.5014L29.1933 29.828C26.7725 31.038 24.961 33.0548 24 35.4628Z" fill="white"/>
</g>
<defs>
<clipPath id="clip0_307_324">
<rect width="48" height="48" fill="white"/>
</clipPath>
</defs>
</svg>
