<svg width="15" height="15" viewBox="0 0 15 15" fill="none" xmlns="http://www.w3.org/2000/svg">
<path d="M13.4375 2.5H7.5C7.46646 2.5 7.43315 2.50527 7.40124 2.51562L7.32624 2.54061C7.16247 2.5951 7.07388 2.77202 7.12837 2.93576C7.1287 2.93676 7.12905 2.93772 7.12937 2.93872L10.2706 12.1181L8.20187 14.4819C8.08831 14.6118 8.10159 14.8093 8.23155 14.9228C8.28856 14.9726 8.36174 15.0001 8.43747 15H13.4375C14.3005 15 15 14.3005 15 13.4375V4.06252C15 3.19955 14.3005 2.5 13.4375 2.5Z" fill="#39A2DB" fill-opacity="0.6"/>
<path d="M10.9094 12.0581C10.8587 11.9466 10.7475 11.875 10.625 11.875H7.50001C7.32742 11.875 7.1875 12.0149 7.1875 12.1875C7.1875 12.2251 7.19427 12.2623 7.20751 12.2975L8.14501 14.7975C8.18371 14.9004 8.27368 14.9754 8.38188 14.995C8.40024 14.9982 8.41885 14.9998 8.43751 15C8.5276 14.9999 8.61323 14.961 8.6725 14.8931L10.86 12.3931C10.9408 12.3008 10.9601 12.1698 10.9094 12.0581Z" fill="#39A2DB"/>
<path d="M13.4375 6.87502H9.06251C8.88992 6.87502 8.75 6.7351 8.75 6.56251C8.75 6.38992 8.88992 6.25 9.06251 6.25H13.4375C13.6101 6.25 13.75 6.38992 13.75 6.56251C13.75 6.7351 13.6101 6.87502 13.4375 6.87502Z" fill="white"/>
<path d="M10.9375 6.87501C10.7649 6.87501 10.625 6.73509 10.625 6.5625V5.93751C10.625 5.76492 10.7649 5.625 10.9375 5.625C11.1101 5.625 11.25 5.76492 11.25 5.93751V6.5625C11.25 6.73509 11.1101 6.87501 10.9375 6.87501Z" fill="white"/>
<path d="M10.0001 10.625C9.82747 10.6249 9.68766 10.4848 9.68784 10.3122C9.68792 10.2114 9.7367 10.1168 9.81882 10.0582C11.1876 9.08565 12.1876 7.10313 12.1876 6.56251C12.1876 6.38992 12.3275 6.25 12.5001 6.25C12.6727 6.25 12.8126 6.38992 12.8126 6.56251C12.8126 7.38625 11.6082 9.55375 10.1813 10.5669C10.1284 10.6046 10.0651 10.625 10.0001 10.625Z" fill="white"/>
<path d="M12.5 11.25C12.4218 11.2501 12.3465 11.2209 12.2888 11.1681C12.0625 10.9606 10.065 9.11561 9.71065 8.2425C9.64558 8.08251 9.72255 7.90008 9.88254 7.83501C10.0425 7.76994 10.225 7.84691 10.29 8.0069C10.5456 8.6369 12.125 10.1694 12.7119 10.7063C12.8396 10.8224 12.849 11.02 12.733 11.1477C12.6734 11.2133 12.5887 11.2505 12.5 11.25Z" fill="white"/>
<path d="M10.9206 12.0862L6.85813 0.21126C6.81486 0.0849023 6.69606 0 6.5625 0H1.56249C0.699551 0 0 0.699551 0 1.56249V10.9375C0 11.8004 0.699551 12.5 1.56249 12.5H10.625C10.7976 12.5 10.9375 12.3601 10.9375 12.1875C10.9375 12.153 10.9318 12.1188 10.9206 12.0862Z" fill="#39A2DB"/>
<path d="M5.93753 8.74994C5.8054 8.74996 5.68754 8.66688 5.64315 8.54243L4.37504 4.99117L3.10692 8.54243C3.04238 8.7025 2.8603 8.77994 2.70022 8.71539C2.5492 8.65452 2.47024 8.48785 2.51879 8.33243L4.08128 3.95743C4.15771 3.79504 4.35134 3.72534 4.51373 3.80175C4.58214 3.83395 4.63719 3.889 4.66941 3.95743L6.2319 8.33243C6.29009 8.49447 6.20624 8.67306 6.0444 8.7318C6.01007 8.74396 5.97391 8.75008 5.93753 8.74994Z" fill="#FAFAFA"/>
<path d="M5.00008 6.87502H3.75007C3.57748 6.87502 3.43756 6.7351 3.43756 6.56251C3.43756 6.38992 3.57748 6.25 3.75007 6.25H5.00008C5.17267 6.25 5.31259 6.38992 5.31259 6.56251C5.31256 6.7351 5.17267 6.87502 5.00008 6.87502Z" fill="#FAFAFA"/>
</svg>
