<svg width="20" height="14" viewBox="0 0 20 14" fill="none" xmlns="http://www.w3.org/2000/svg">
<path fill-rule="evenodd" clip-rule="evenodd" d="M1.9355 1H18.0645C18.5795 1 19.0005 1.421 19.0005 1.936V2.064C19.0005 2.579 18.5795 3 18.0645 3H1.9355C1.4205 3 1.0005 2.579 1.0005 2.064V1.936C1.0005 1.421 1.4205 1 1.9355 1ZM3 7C3 7.553 2.552 8 2 8C1.448 8 1 7.553 1 7C1 6.447 1.448 6 2 6C2.552 6 3 6.447 3 7ZM5.9355 6H18.0645C18.5795 6 19.0005 6.421 19.0005 6.936V7.064C19.0005 7.579 18.5795 8 18.0645 8H5.9355C5.4205 8 5.0005 7.579 5.0005 7.064V6.936C5.0005 6.421 5.4205 6 5.9355 6ZM18.0645 11H1.9355C1.4205 11 1.0005 11.421 1.0005 11.936V12.064C1.0005 12.579 1.4205 13 1.9355 13H18.0645C18.5795 13 19.0005 12.579 19.0005 12.064V11.936C19.0005 11.421 18.5795 11 18.0645 11Z" fill="#39A2DB"/>
<mask id="mask0_109_189" style="mask-type:alpha" maskUnits="userSpaceOnUse" x="0" y="0" width="20" height="14">
</mask>
<g mask="url(#mask0_109_189)">
</g>
</svg>
