<svg width="18" height="22" viewBox="0 0 18 22" fill="none" xmlns="http://www.w3.org/2000/svg">
<path fill-rule="evenodd" clip-rule="evenodd" d="M9.00146 9.9995C8.17446 9.9995 7.50146 9.3265 7.50146 8.4995C7.50146 7.6725 8.17446 6.9995 9.00146 6.9995C9.82846 6.9995 10.5015 7.6725 10.5015 8.4995C10.5015 9.3265 9.82846 9.9995 9.00146 9.9995ZM9.00146 4.9995C7.07147 4.9995 5.50146 6.5695 5.50146 8.4995C5.50146 10.4295 7.07147 11.9995 9.00146 11.9995C10.9315 11.9995 12.5015 10.4295 12.5015 8.4995C12.5015 6.5695 10.9315 4.9995 9.00146 4.9995ZM9.00146 18.646C7.32646 17.062 3.00146 12.615 3.00146 8.922C3.00146 5.657 5.69246 3 9.00146 3C12.3105 3 15.0015 5.657 15.0015 8.922C15.0015 12.615 10.6765 17.062 9.00146 18.646ZM9.00146 1C4.59047 1 1.00146 4.553 1.00146 8.922C1.00146 14.397 8.05046 20.501 8.35046 20.758C8.53847 20.919 8.76946 21 9.00146 21C9.23347 21 9.46447 20.919 9.65246 20.758C9.95247 20.501 17.0015 14.397 17.0015 8.922C17.0015 4.553 13.4125 1 9.00146 1Z" fill="#39A2DB"/>
</svg>
