<svg width="16" height="16" viewBox="0 0 16 16" fill="none" xmlns="http://www.w3.org/2000/svg">
<g id="Icon/Outline/log-out">
<g id="Mask">
<path fill-rule="evenodd" clip-rule="evenodd" d="M5.33332 3.33329C5.33332 3.69996 5.03332 3.99996 4.66666 3.99996H3.99999V12H4.66666C5.03332 12 5.33332 12.3 5.33332 12.6666C5.33332 13.0333 5.03332 13.3333 4.66666 13.3333H3.33332C2.96666 13.3333 2.66666 13.0333 2.66666 12.6666V3.33329C2.66666 2.96663 2.96666 2.66663 3.33332 2.66663H4.66666C5.03332 2.66663 5.33332 2.96663 5.33332 3.33329ZM12.0026 4.94983L13.8786 7.61649C14.0453 7.85249 14.0399 8.16916 13.8666 8.39983L11.8666 11.0665C11.7359 11.2412 11.5353 11.3332 11.3326 11.3332C11.1939 11.3332 11.0533 11.2898 10.9333 11.1998C10.6386 10.9792 10.5793 10.5612 10.7999 10.2672L12.0006 8.66649H11.9999H6.66659C6.29859 8.66649 5.99992 8.36849 5.99992 7.99983C5.99992 7.63116 6.29859 7.33316 6.66659 7.33316H11.9999C12.0109 7.33316 12.0212 7.3362 12.0314 7.33926C12.0398 7.34175 12.0483 7.34426 12.0573 7.34516L10.9119 5.71649C10.6999 5.41583 10.7726 4.99983 11.0739 4.78783C11.3746 4.57516 11.7906 4.64849 12.0026 4.94983Z" fill="#231F20"/>
<path d="M3.99999 3.99996V3.79996H3.79999V3.99996H3.99999ZM3.99999 12H3.79999V12.2H3.99999V12ZM13.8786 7.61649L13.715 7.73157L13.7152 7.73187L13.8786 7.61649ZM12.0026 4.94983L12.1662 4.83475L12.1662 4.83475L12.0026 4.94983ZM13.8666 8.39983L13.7067 8.27968L13.7066 8.27983L13.8666 8.39983ZM11.8666 11.0665L11.7066 10.9465L11.7064 10.9467L11.8666 11.0665ZM10.9333 11.1998L11.0533 11.0398L11.0531 11.0397L10.9333 11.1998ZM10.7999 10.2672L10.9599 10.3872L10.9599 10.3872L10.7999 10.2672ZM12.0006 8.66649L12.1606 8.78651L12.4006 8.46649H12.0006V8.66649ZM12.0314 7.33926L11.9744 7.53096V7.53096L12.0314 7.33926ZM12.0573 7.34516L12.0374 7.54417L12.4723 7.58766L12.2209 7.23011L12.0573 7.34516ZM10.9119 5.71649L11.0755 5.60145L11.0754 5.60124L10.9119 5.71649ZM11.0739 4.78783L11.189 4.9514L11.1894 4.95111L11.0739 4.78783ZM4.66666 4.19996C5.14378 4.19996 5.53332 3.81042 5.53332 3.33329H5.13332C5.13332 3.5895 4.92287 3.79996 4.66666 3.79996V4.19996ZM3.99999 4.19996H4.66666V3.79996H3.99999V4.19996ZM4.19999 12V3.99996H3.79999V12H4.19999ZM4.66666 11.8H3.99999V12.2H4.66666V11.8ZM5.53332 12.6666C5.53332 12.1895 5.14378 11.8 4.66666 11.8V12.2C4.92287 12.2 5.13332 12.4104 5.13332 12.6666H5.53332ZM4.66666 13.5333C5.14378 13.5333 5.53332 13.1437 5.53332 12.6666H5.13332C5.13332 12.9228 4.92287 13.1333 4.66666 13.1333V13.5333ZM3.33332 13.5333H4.66666V13.1333H3.33332V13.5333ZM2.46666 12.6666C2.46666 13.1437 2.8562 13.5333 3.33332 13.5333V13.1333C3.07711 13.1333 2.86666 12.9228 2.86666 12.6666H2.46666ZM2.46666 3.33329V12.6666H2.86666V3.33329H2.46666ZM3.33332 2.46663C2.8562 2.46663 2.46666 2.85617 2.46666 3.33329H2.86666C2.86666 3.07708 3.07711 2.86663 3.33332 2.86663V2.46663ZM4.66666 2.46663H3.33332V2.86663H4.66666V2.46663ZM5.53332 3.33329C5.53332 2.85617 5.14378 2.46663 4.66666 2.46663V2.86663C4.92287 2.86663 5.13332 3.07708 5.13332 3.33329H5.53332ZM14.0422 7.50142L12.1662 4.83475L11.839 5.0649L13.715 7.73157L14.0422 7.50142ZM14.0265 8.51998C14.2518 8.22014 14.2589 7.80832 14.042 7.50112L13.7152 7.73187C13.8316 7.89667 13.8281 8.11818 13.7067 8.27968L14.0265 8.51998ZM12.0266 11.1865L14.0266 8.51983L13.7066 8.27983L11.7066 10.9465L12.0266 11.1865ZM11.3326 11.5332C11.5953 11.5332 11.8565 11.4138 12.0267 11.1863L11.7064 10.9467C11.6153 11.0685 11.4753 11.1332 11.3326 11.1332V11.5332ZM10.8133 11.3598C10.9691 11.4767 11.1522 11.5332 11.3326 11.5332V11.1332C11.2356 11.1332 11.1374 11.1029 11.0533 11.0398L10.8133 11.3598ZM10.64 10.1471C10.353 10.5294 10.4301 11.0729 10.8134 11.3599L11.0531 11.0397C10.8471 10.8854 10.8055 10.5929 10.9599 10.3872L10.64 10.1471ZM11.8406 8.54648L10.6399 10.1472L10.9599 10.3872L12.1606 8.78651L11.8406 8.54648ZM11.9999 8.86649H12.0006V8.46649H11.9999V8.86649ZM6.66659 8.86649H11.9999V8.46649H6.66659V8.86649ZM5.79992 7.99983C5.79992 8.47908 6.18826 8.86649 6.66659 8.86649V8.46649C6.40891 8.46649 6.19992 8.25791 6.19992 7.99983H5.79992ZM6.66659 7.13316C6.18826 7.13316 5.79992 7.52057 5.79992 7.99983H6.19992C6.19992 7.74175 6.40891 7.53316 6.66659 7.53316V7.13316ZM11.9999 7.13316H6.66659V7.53316H11.9999V7.13316ZM12.0885 7.14756C12.0824 7.14576 12.0447 7.13316 11.9999 7.13316V7.53316C11.987 7.53316 11.9774 7.53137 11.9732 7.53044C11.9711 7.52998 11.9699 7.52964 11.9702 7.52973C11.9708 7.52987 11.9716 7.53011 11.9744 7.53096L12.0885 7.14756ZM12.0772 7.14615C12.0847 7.14691 12.0901 7.14815 12.0918 7.14858C12.093 7.14887 12.0934 7.14903 12.0885 7.14756L11.9744 7.53096C11.9801 7.53264 12.0064 7.54108 12.0374 7.54417L12.0772 7.14615ZM10.7483 5.83154L11.8937 7.46021L12.2209 7.23011L11.0755 5.60145L10.7483 5.83154ZM10.9588 4.62425C10.5674 4.89964 10.4726 5.44043 10.7485 5.83175L11.0754 5.60124C10.9273 5.39122 10.9778 5.10001 11.189 4.9514L10.9588 4.62425ZM12.1662 4.83475C11.891 4.4436 11.3501 4.3475 10.9584 4.62454L11.1894 4.95111C11.3991 4.80283 11.6902 4.85339 11.839 5.06491L12.1662 4.83475Z" fill="black"/>
</g>
<mask id="mask0_171_416" style="mask-type:alpha" maskUnits="userSpaceOnUse" x="2" y="2" width="13" height="12">
<g id="Mask_2">
<path fill-rule="evenodd" clip-rule="evenodd" d="M5.33332 3.33329C5.33332 3.69996 5.03332 3.99996 4.66666 3.99996H3.99999V12H4.66666C5.03332 12 5.33332 12.3 5.33332 12.6666C5.33332 13.0333 5.03332 13.3333 4.66666 13.3333H3.33332C2.96666 13.3333 2.66666 13.0333 2.66666 12.6666V3.33329C2.66666 2.96663 2.96666 2.66663 3.33332 2.66663H4.66666C5.03332 2.66663 5.33332 2.96663 5.33332 3.33329ZM12.0026 4.94983L13.8786 7.61649C14.0453 7.85249 14.0399 8.16916 13.8666 8.39983L11.8666 11.0665C11.7359 11.2412 11.5353 11.3332 11.3326 11.3332C11.1939 11.3332 11.0533 11.2898 10.9333 11.1998C10.6386 10.9792 10.5793 10.5612 10.7999 10.2672L12.0006 8.66649H11.9999H6.66659C6.29859 8.66649 5.99992 8.36849 5.99992 7.99983C5.99992 7.63116 6.29859 7.33316 6.66659 7.33316H11.9999C12.0109 7.33316 12.0212 7.3362 12.0314 7.33926C12.0398 7.34175 12.0483 7.34426 12.0573 7.34516L10.9119 5.71649C10.6999 5.41583 10.7726 4.99983 11.0739 4.78783C11.3746 4.57516 11.7906 4.64849 12.0026 4.94983Z" fill="white"/>
<path d="M3.99999 3.99996V3.79996H3.79999V3.99996H3.99999ZM3.99999 12H3.79999V12.2H3.99999V12ZM13.8786 7.61649L13.715 7.73157L13.7152 7.73187L13.8786 7.61649ZM12.0026 4.94983L12.1662 4.83475L12.1662 4.83475L12.0026 4.94983ZM13.8666 8.39983L13.7067 8.27968L13.7066 8.27983L13.8666 8.39983ZM11.8666 11.0665L11.7066 10.9465L11.7064 10.9467L11.8666 11.0665ZM10.9333 11.1998L11.0533 11.0398L11.0531 11.0397L10.9333 11.1998ZM10.7999 10.2672L10.9599 10.3872L10.9599 10.3872L10.7999 10.2672ZM12.0006 8.66649L12.1606 8.78651L12.4006 8.46649H12.0006V8.66649ZM12.0314 7.33926L11.9744 7.53096V7.53096L12.0314 7.33926ZM12.0573 7.34516L12.0374 7.54417L12.4723 7.58766L12.2209 7.23011L12.0573 7.34516ZM10.9119 5.71649L11.0755 5.60145L11.0754 5.60124L10.9119 5.71649ZM11.0739 4.78783L11.189 4.9514L11.1894 4.95111L11.0739 4.78783ZM4.66666 4.19996C5.14378 4.19996 5.53332 3.81042 5.53332 3.33329H5.13332C5.13332 3.5895 4.92287 3.79996 4.66666 3.79996V4.19996ZM3.99999 4.19996H4.66666V3.79996H3.99999V4.19996ZM4.19999 12V3.99996H3.79999V12H4.19999ZM4.66666 11.8H3.99999V12.2H4.66666V11.8ZM5.53332 12.6666C5.53332 12.1895 5.14378 11.8 4.66666 11.8V12.2C4.92287 12.2 5.13332 12.4104 5.13332 12.6666H5.53332ZM4.66666 13.5333C5.14378 13.5333 5.53332 13.1437 5.53332 12.6666H5.13332C5.13332 12.9228 4.92287 13.1333 4.66666 13.1333V13.5333ZM3.33332 13.5333H4.66666V13.1333H3.33332V13.5333ZM2.46666 12.6666C2.46666 13.1437 2.8562 13.5333 3.33332 13.5333V13.1333C3.07711 13.1333 2.86666 12.9228 2.86666 12.6666H2.46666ZM2.46666 3.33329V12.6666H2.86666V3.33329H2.46666ZM3.33332 2.46663C2.8562 2.46663 2.46666 2.85617 2.46666 3.33329H2.86666C2.86666 3.07708 3.07711 2.86663 3.33332 2.86663V2.46663ZM4.66666 2.46663H3.33332V2.86663H4.66666V2.46663ZM5.53332 3.33329C5.53332 2.85617 5.14378 2.46663 4.66666 2.46663V2.86663C4.92287 2.86663 5.13332 3.07708 5.13332 3.33329H5.53332ZM14.0422 7.50142L12.1662 4.83475L11.839 5.0649L13.715 7.73157L14.0422 7.50142ZM14.0265 8.51998C14.2518 8.22014 14.2589 7.80832 14.042 7.50112L13.7152 7.73187C13.8316 7.89667 13.8281 8.11818 13.7067 8.27968L14.0265 8.51998ZM12.0266 11.1865L14.0266 8.51983L13.7066 8.27983L11.7066 10.9465L12.0266 11.1865ZM11.3326 11.5332C11.5953 11.5332 11.8565 11.4138 12.0267 11.1863L11.7064 10.9467C11.6153 11.0685 11.4753 11.1332 11.3326 11.1332V11.5332ZM10.8133 11.3598C10.9691 11.4767 11.1522 11.5332 11.3326 11.5332V11.1332C11.2356 11.1332 11.1374 11.1029 11.0533 11.0398L10.8133 11.3598ZM10.64 10.1471C10.353 10.5294 10.4301 11.0729 10.8134 11.3599L11.0531 11.0397C10.8471 10.8854 10.8055 10.5929 10.9599 10.3872L10.64 10.1471ZM11.8406 8.54648L10.6399 10.1472L10.9599 10.3872L12.1606 8.78651L11.8406 8.54648ZM11.9999 8.86649H12.0006V8.46649H11.9999V8.86649ZM6.66659 8.86649H11.9999V8.46649H6.66659V8.86649ZM5.79992 7.99983C5.79992 8.47908 6.18826 8.86649 6.66659 8.86649V8.46649C6.40891 8.46649 6.19992 8.25791 6.19992 7.99983H5.79992ZM6.66659 7.13316C6.18826 7.13316 5.79992 7.52057 5.79992 7.99983H6.19992C6.19992 7.74175 6.40891 7.53316 6.66659 7.53316V7.13316ZM11.9999 7.13316H6.66659V7.53316H11.9999V7.13316ZM12.0885 7.14756C12.0824 7.14576 12.0447 7.13316 11.9999 7.13316V7.53316C11.987 7.53316 11.9774 7.53137 11.9732 7.53044C11.9711 7.52998 11.9699 7.52964 11.9702 7.52973C11.9708 7.52987 11.9716 7.53011 11.9744 7.53096L12.0885 7.14756ZM12.0772 7.14615C12.0847 7.14691 12.0901 7.14815 12.0918 7.14858C12.093 7.14887 12.0934 7.14903 12.0885 7.14756L11.9744 7.53096C11.9801 7.53264 12.0064 7.54108 12.0374 7.54417L12.0772 7.14615ZM10.7483 5.83154L11.8937 7.46021L12.2209 7.23011L11.0755 5.60145L10.7483 5.83154ZM10.9588 4.62425C10.5674 4.89964 10.4726 5.44043 10.7485 5.83175L11.0754 5.60124C10.9273 5.39122 10.9778 5.10001 11.189 4.9514L10.9588 4.62425ZM12.1662 4.83475C11.891 4.4436 11.3501 4.3475 10.9584 4.62454L11.1894 4.95111C11.3991 4.80283 11.6902 4.85339 11.839 5.06491L12.1662 4.83475Z" fill="white"/>
</g>
</mask>
<g mask="url(#mask0_171_416)">
<g id="&#240;&#159;&#142;&#168; Color">
<rect id="Base" width="16" height="16" fill="#39A2DB"/>
</g>
</g>
</g>
</svg>
