<svg width="48" height="48" viewBox="0 0 48 48" fill="none" xmlns="http://www.w3.org/2000/svg">
<g clip-path="url(#clip0_307_372)">
<path d="M47.9951 43.4941L47.6755 37.5819C47.5157 33.8535 46.9831 30.1784 46.1309 26.5565L45.3319 23.2009C44.3732 18.9932 42.1894 15.2115 39.0469 12.2288L32.176 5.73069C31.5901 5.19806 30.8444 5.03827 30.0987 5.25132C29.4063 5.46437 28.8204 6.05026 28.6606 6.79595L27.9149 9.83193C27.6407 10.9591 27.3493 12.2084 27.1001 13.4799C26.784 10.5353 26.7037 7.54714 26.9029 4.5589L26.9562 3.91975C26.9801 3.77598 26.9499 3.64324 26.8806 3.54046C26.7425 2.86562 25.9385 2.21533 23.9202 2.21533C21.2038 2.21533 20.9908 3.33385 20.9908 3.70669C20.9908 3.73437 20.9944 3.76017 20.9975 3.78617C20.9944 3.81249 20.9908 3.8385 20.9908 3.86648L21.1505 5.78395C21.2394 7.14673 21.277 8.5092 21.2671 9.86283C21.2612 9.88655 21.2571 9.91141 21.2571 9.93846C21.2571 9.96967 21.2595 10.0061 21.2655 10.0463C21.2546 11.0645 21.2174 12.0776 21.1505 13.081L21.0973 13.5603C21.0529 14.382 20.9052 15.1847 20.6648 15.9537C20.6492 15.8657 20.6335 15.7768 20.6179 15.6909L18.9667 6.84921C18.8069 6.10353 18.2742 5.51763 17.5286 5.30458C16.7829 5.03827 16.0372 5.25132 15.4513 5.73069L9.53911 11.057C6.44986 13.7734 4.21282 17.342 3.0943 21.2835L1.81599 25.651C0.750728 29.2729 0.218098 33.0013 0.111573 36.7297L0.00504667 43.4941C-0.0482163 44.2398 0.324624 44.879 0.910517 45.3051C1.28336 45.5714 1.70946 45.6779 2.13556 45.6779C2.40188 45.6779 2.66819 45.6246 2.93451 45.5181L7.03576 43.867C8.8467 43.1745 10.7109 42.5354 12.6284 42.1093L14.9719 41.5234C18.8069 40.5647 21.5233 37.1558 21.5233 33.2144V25.5978C21.5233 24.6394 21.4753 23.6812 21.4251 22.7229C22.1375 22.0337 22.7325 21.3112 23.1744 20.5378C23.5782 19.8746 23.903 19.1798 24.1506 18.4541C24.3937 19.0881 24.707 19.6941 25.0919 20.2715C25.443 20.8232 25.8777 21.3274 26.3775 21.7958C26.3731 21.8203 26.3702 21.8448 26.3702 21.8694C26.3702 22.9346 26.3702 24.0531 26.4235 25.1184L26.8496 33.96C27.0094 37.7417 29.8856 40.9375 33.6672 41.4701L35.1586 41.6832C37.6087 42.0028 40.0055 42.8017 42.1893 44.0267L44.8525 45.5181C45.172 45.6779 45.4916 45.7844 45.8644 45.7844C46.2373 45.7844 46.6634 45.6779 46.983 45.4116C47.6755 44.9855 48.0483 44.2931 47.9951 43.4941ZM23.9202 3.28059C25.2518 3.28059 25.8377 3.65343 25.8377 3.75996C25.8377 3.79293 25.8413 3.82404 25.8458 3.85473C25.5525 4.06164 24.9336 4.22226 23.9202 4.18606C23.0147 4.1328 22.4821 3.97301 22.2158 3.86648C22.1685 3.83486 22.1117 3.79855 22.0553 3.75756C22.0547 3.75444 22.0532 3.75143 22.0525 3.74831C22.0533 3.73426 22.056 3.72115 22.056 3.70669C22.056 3.65343 22.4289 3.28059 23.9202 3.28059ZM46.4504 44.5594C46.1309 44.7724 45.7048 44.8257 45.3852 44.6126L42.722 43.1213C40.4317 41.843 37.9284 40.9908 35.3185 40.6179L33.8271 40.4049C30.5781 39.9255 28.0747 37.1558 27.9149 33.8535L27.4888 25.0651C27.4489 24.2669 27.4389 23.4687 27.4364 22.6704C27.7089 22.8708 27.9926 23.0653 28.2878 23.2542C28.341 23.3075 28.4476 23.3075 28.5541 23.3075C28.7139 23.3075 28.8737 23.2542 28.9802 23.0944C29.14 22.8281 29.0867 22.5085 28.8204 22.3487C27.6486 21.603 26.6366 20.6976 25.9442 19.6856C25.2518 18.6736 24.8789 17.6616 24.6659 16.4365C24.6659 16.2867 24.5647 16.1537 24.4287 16.0756C24.3593 16.0175 24.2761 15.9751 24.1865 15.9572C23.9202 15.9039 23.6539 16.117 23.6006 16.3833C23.4408 17.6616 22.9615 18.8866 22.3223 20.0052C21.7364 21.0172 20.8842 21.9226 19.819 22.7748L19.3396 23.1477C19.0733 23.3075 19.0733 23.6803 19.2331 23.8934C19.3396 24.0531 19.4994 24.1064 19.6592 24.1064C19.7657 24.1064 19.8722 24.1064 19.9255 23.9999L20.4014 23.6297C20.4334 24.2932 20.4581 24.9714 20.4581 25.651V33.2676C20.4581 36.7297 18.1146 39.7124 14.7057 40.5114L12.3622 41.0973C10.4447 41.5234 8.52722 42.1625 6.66302 42.9082L2.56177 44.5594C2.35319 44.6487 2.16147 44.6693 1.97682 44.6347L4.47924 41.8962C4.9586 41.3636 5.43797 40.8842 5.9706 40.4581C6.07713 40.3516 6.07713 40.1918 5.9706 40.0853C5.86407 39.9788 5.70429 39.9788 5.59776 40.0853C5.11839 40.5647 4.58576 41.044 4.1064 41.5767L1.50733 44.4208C1.21719 44.2084 1.07031 43.9025 1.07031 43.5474L1.17683 36.783C1.25922 33.9415 1.59773 31.1322 2.26342 28.3791C2.50653 29.9178 3.02345 31.4144 3.78672 32.7883C3.83998 32.8948 3.89324 32.9481 3.99977 32.9481C4.05303 32.9481 4.10629 32.9481 4.10629 32.9481C4.21282 32.8415 4.26608 32.6817 4.21282 32.5752C3.24753 30.8457 2.70814 28.9339 2.63917 26.9545C2.73321 26.6258 2.83048 26.2976 2.93451 25.9706L3.32972 24.6205C3.49263 25.0335 3.71525 25.4161 3.99977 25.7576C5.01176 26.9293 6.60965 27.675 8.8467 27.8881C9.37932 27.9946 9.96522 27.9946 10.4978 27.9946C10.8174 27.9946 11.0837 27.9946 11.2968 28.0479C11.4566 28.0479 11.5631 27.9413 11.5631 27.7815C11.5631 27.6218 11.4566 27.5152 11.2968 27.5152C10.4978 27.5685 9.6989 27.5152 8.89996 27.462C6.8227 27.2489 5.33134 26.6098 4.42587 25.4912C4.0083 24.9773 3.72742 24.366 3.60446 23.6817L4.21282 21.603C5.27808 17.8214 7.4086 14.4658 10.3381 11.8559L16.2502 6.52963C16.5166 6.26332 16.8894 6.21005 17.2622 6.31658C17.5818 6.42311 17.8481 6.68942 17.9547 7.06226L18.0465 7.55401C18.022 7.59499 18.0079 7.64462 18.0079 7.70142L18.4873 15.6909C18.5406 16.2767 18.5938 16.9159 18.5938 17.5018C18.5938 17.6616 18.7003 17.7681 18.8601 17.7681C19.0199 17.7681 19.1264 17.6083 19.1264 17.5018C19.0732 16.9159 19.0732 16.2767 19.0199 15.6909L18.7614 11.3822L19.6058 15.9039C19.7123 16.4898 19.8189 17.0757 19.9254 17.6616C19.9254 17.6738 19.9267 17.6856 19.9281 17.6975C19.6932 18.13 19.4257 18.5455 19.1264 18.9399C18.9667 19.1529 19.0199 19.5258 19.233 19.6856C19.3395 19.7388 19.446 19.7921 19.5525 19.7921C19.7123 19.7921 19.8721 19.7388 19.9787 19.5791C21.257 17.8746 22.0026 15.7974 22.1624 13.6669L22.2157 13.1875C22.2626 12.4533 22.294 11.7191 22.3134 10.9862C22.4564 11.033 22.618 11.075 22.8016 11.1102C22.9081 11.1102 23.0146 11.057 23.0679 10.8972C23.1212 10.7374 23.0146 10.5776 22.8549 10.5776C22.6559 10.5444 22.4777 10.4958 22.3266 10.4366C22.3477 9.19725 22.3293 7.96284 22.2718 6.73967C22.7036 6.87907 23.2607 6.95573 23.9202 6.95573C24.08 6.95573 24.1865 6.84921 24.1865 6.68942C24.1865 6.52963 24.08 6.4231 23.9202 6.4231C23.1467 6.4231 22.5908 6.31481 22.2406 6.16542C22.2322 6.02051 22.2253 5.87529 22.2158 5.73069L22.107 4.38881C22.5737 4.57971 23.1768 4.71869 23.9202 4.71869C23.9735 4.71869 24.08 4.71869 24.1333 4.71869C24.8475 4.71869 25.4229 4.62652 25.8376 4.45487C25.7551 5.71435 25.7211 6.97373 25.7315 8.23321C25.3973 8.41433 24.7986 8.55362 23.9202 8.55362C23.7604 8.55362 23.6539 8.66015 23.6539 8.81994C23.6539 8.97973 23.7604 9.08625 23.9202 9.08625C24.6703 9.08625 25.2879 8.98701 25.7393 8.80912C25.7619 9.99984 25.8241 11.1907 25.9236 12.3814C25.7017 12.5979 25.1795 12.7761 24.2931 12.8146C24.1333 12.8146 24.0267 12.9211 24.0267 13.0809C24.0267 13.2407 24.1333 13.3472 24.2931 13.3472C25.1081 13.3054 25.6352 13.1568 25.976 12.9726C26.0113 13.3477 26.0505 13.7229 26.0929 14.0981C26.0657 14.1402 26.0507 14.1926 26.0507 14.2526C26.0507 14.4656 25.7844 14.6787 25.305 14.7852C25.1985 14.8384 25.092 14.945 25.1453 15.1048C25.1985 15.2645 25.305 15.3178 25.4116 15.3178C25.4116 15.3178 25.4116 15.3178 25.4648 15.3178C25.7825 15.2296 26.0111 15.1118 26.1766 14.9845C26.3561 16.3203 26.8796 17.6493 27.7019 18.7799L28.7671 20.2713C28.8737 20.4311 29.0335 20.4843 29.1932 20.4843C29.2998 20.4843 29.4063 20.4843 29.5128 20.4311C29.7259 20.2713 29.7791 19.9517 29.6194 19.6854L28.5541 18.194C28.1809 17.6876 27.8879 17.1279 27.6681 16.5415C27.6827 16.5076 27.6946 16.4726 27.7019 16.4363C27.9149 14.2525 28.4476 12.0155 28.9269 10.0448L29.4208 8.03421L29.1932 9.77867C28.8737 12.1755 29.0335 14.6256 29.6194 17.0224L30.5781 20.7508C31.164 23.0411 31.3238 25.3315 31.164 27.675L31.0575 29.3262C30.7911 32.735 32.7086 36.0373 35.7979 37.4754L36.5968 37.8482C38.0882 38.5407 39.473 39.3396 40.8046 40.2983C40.8578 40.3516 40.9111 40.3516 40.9644 40.3516C41.0176 40.3516 41.1241 40.2983 41.1241 40.2451C41.2307 40.1386 41.1774 39.9788 41.0709 39.8722C39.7393 38.9135 38.3012 38.0613 36.8098 37.3689L36.0109 36.996C33.1347 35.6645 31.3238 32.5752 31.5901 29.3794L31.6966 27.7283C31.9097 25.3315 31.6966 22.9346 31.1107 20.6443L30.152 16.9159C29.5661 14.6256 29.4063 12.2288 29.7259 9.8852L30.1858 6.35923C30.2579 6.32001 30.335 6.28714 30.4183 6.26332C30.7911 6.15679 31.164 6.26332 31.4303 6.52963L38.2479 13.081C41.2839 15.9039 43.3612 19.5258 44.2667 23.5205L44.4357 24.2307C44.4416 26.5392 43.5397 28.7748 41.8697 30.4447L41.3904 30.9241C41.2838 31.0306 41.2838 31.1904 41.3904 31.2969C41.4436 31.3502 41.5501 31.3502 41.6034 31.3502C41.6567 31.3502 41.7632 31.2969 41.7632 31.2969L42.2426 30.8175C43.6095 29.4147 44.4897 27.6957 44.8193 25.8417L45.0655 26.8761C45.9177 30.3914 46.3971 34.0666 46.6101 37.6885L46.9297 43.6006C46.9831 43.9735 46.77 44.3463 46.4504 44.5594Z" fill="white"/>
<path d="M18.7535 22.7749C18.6469 22.7749 18.4871 22.8814 18.4871 23.0412C18.3273 25.0652 18.061 27.0892 17.6882 29.0599L17.4219 30.3915C16.9425 33.0547 15.0783 35.2384 12.575 36.1972L11.4032 36.6233C10.2314 37.1026 9.0596 37.6353 7.99434 38.3277C7.83455 38.4342 7.83455 38.594 7.88781 38.7005C7.94108 38.7538 7.99434 38.8071 8.10086 38.8071C8.15413 38.8071 8.20739 38.8071 8.26065 38.7005C9.27265 38.0081 10.3912 37.4755 11.563 37.0494L12.7347 36.6233C15.4511 35.6113 17.4219 33.2677 17.9545 30.4448L18.2208 29.1132C18.5937 27.0892 18.86 25.0652 19.0198 23.0412C19.0198 22.9347 18.9132 22.7749 18.7535 22.7749Z" fill="white"/>
<path d="M7.24882 38.807C7.08903 38.9135 6.9825 38.9668 6.87598 39.0733C6.76945 39.1798 6.71619 39.3396 6.82271 39.4461C6.87598 39.4994 6.92924 39.5527 7.03577 39.5527C7.08903 39.5527 7.14229 39.4994 7.19555 39.4994C7.35534 39.3929 7.46187 39.3396 7.5684 39.2331C7.67492 39.1265 7.72818 38.9668 7.62166 38.8602C7.51513 38.7537 7.35534 38.7004 7.24882 38.807Z" fill="white"/>
<path d="M42.4559 40.831C42.3494 40.7777 42.1896 40.7777 42.0831 40.8843C42.0298 40.9908 42.0298 41.1506 42.1363 41.2571L43.3081 42.2158C43.3614 42.2691 43.4146 42.2691 43.4679 42.2691C43.5212 42.2691 43.6277 42.2691 43.681 42.1626C43.7342 42.056 43.7342 41.8962 43.6277 41.7897L42.4559 40.831Z" fill="white"/>
<path d="M44.4799 42.4821C44.3733 42.4289 44.2135 42.4289 44.107 42.5354C44.0537 42.6419 44.0537 42.8017 44.1603 42.9082L44.8527 43.4941C44.906 43.5474 44.9592 43.5474 45.0125 43.5474C45.119 43.5474 45.1723 43.5474 45.2255 43.4409C45.2788 43.3343 45.2788 43.1745 45.1723 43.068L44.4799 42.4821Z" fill="white"/>
<path d="M45.8109 43.6007C45.7044 43.5474 45.5446 43.5474 45.4381 43.6539C45.3848 43.7605 45.3848 43.9202 45.4913 44.0268L45.7576 44.2398C45.8109 44.2931 45.8642 44.2931 45.9174 44.2931C45.9707 44.2931 46.0772 44.2398 46.1305 44.1866C46.1837 44.08 46.1837 43.9202 46.0772 43.8137L45.8109 43.6007Z" fill="white"/>
<path d="M37.2889 35.0786L36.9693 35.3981C36.8628 35.5047 36.8628 35.6644 36.9693 35.771C37.0226 35.8242 37.1291 35.8242 37.1824 35.8242C37.2356 35.8242 37.2889 35.771 37.3421 35.771L37.6617 35.4514C37.7683 35.3449 37.7683 35.1851 37.6617 35.0786C37.5552 34.972 37.3954 34.972 37.2889 35.0786Z" fill="white"/>
<path d="M38.4605 33.8536L37.8746 34.4395C37.768 34.546 37.768 34.7058 37.8746 34.8123C37.9278 34.8656 38.0344 34.8656 38.0876 34.8656C38.1409 34.8656 38.1942 34.8656 38.2474 34.8123L38.8333 34.2264C38.9398 34.1199 38.9398 33.9601 38.8333 33.8536C38.7269 33.747 38.567 33.747 38.4605 33.8536Z" fill="white"/>
<path d="M40.2188 32.0959L39.2601 33.0546C39.1535 33.1611 39.1535 33.3209 39.2601 33.4275C39.3133 33.4807 39.4199 33.4807 39.4731 33.4807C39.5264 33.4807 39.5796 33.4807 39.6329 33.4275L40.5916 32.4687C40.6982 32.3622 40.6982 32.2024 40.5916 32.0959C40.4851 31.9894 40.3253 31.9894 40.2188 32.0959Z" fill="white"/>
<path d="M6.92933 36.3569C7.03586 36.2504 7.03586 36.0906 6.92933 35.9841L6.23691 35.2917C6.13039 35.1852 5.9706 35.1852 5.86407 35.2917C5.75755 35.3982 5.75755 35.558 5.86407 35.6645L6.55649 36.3569C6.60965 36.4102 6.71628 36.4102 6.76944 36.4102C6.82281 36.4102 6.92933 36.4102 6.92933 36.3569Z" fill="white"/>
<path d="M4.79862 33.5339C4.6921 33.4274 4.53231 33.3741 4.42578 33.4807C4.31926 33.5872 4.26599 33.747 4.37252 33.8535C4.58557 34.1198 4.79862 34.4394 5.01168 34.7057C5.06494 34.759 5.17146 34.8122 5.22473 34.8122C5.33125 34.8122 5.38452 34.759 5.38452 34.7057C5.49104 34.5992 5.54431 34.4394 5.43778 34.3329C5.22473 34.1198 5.01157 33.8003 4.79862 33.5339Z" fill="white"/>
<path d="M12.8947 27.8348C13.3741 27.7815 13.8002 27.675 14.173 27.5685C14.3328 27.5152 14.4393 27.4087 14.3861 27.2489C14.3328 27.0891 14.2263 26.9826 14.0665 27.0358C13.6404 27.1424 13.2676 27.2489 12.8415 27.3021C12.6817 27.3554 12.6284 27.4619 12.6284 27.6217C12.6285 27.7283 12.7883 27.8348 12.8947 27.8348Z" fill="white"/>
<path d="M15.2914 27.1956C15.3447 27.1956 15.3979 27.1956 15.3979 27.1956C15.6643 27.089 15.9306 26.9825 16.1436 26.876C16.2502 26.7695 16.3034 26.6097 16.2502 26.5032C16.1436 26.3966 15.9838 26.3434 15.8773 26.3966C15.6643 26.5032 15.3979 26.6097 15.1849 26.7162C15.0251 26.7695 14.9718 26.876 15.0251 27.0358C15.0785 27.1423 15.1849 27.1956 15.2914 27.1956Z" fill="white"/>
<path d="M16.6765 26.5565C16.7298 26.5565 16.7831 26.5565 16.8363 26.5032C16.9429 26.45 16.9961 26.3967 17.1027 26.3434C17.2092 26.2369 17.2624 26.0771 17.1559 25.9706C17.0494 25.8641 16.8896 25.8108 16.7831 25.9173C16.7298 25.9706 16.6233 26.0238 16.57 26.0771C16.4102 26.1836 16.4102 26.3434 16.4635 26.45C16.5169 26.5032 16.5701 26.5565 16.6765 26.5565Z" fill="white"/>
<path d="M24.9318 6.90248C25.0384 6.84922 25.0916 6.84922 25.1449 6.84922C25.3047 6.79596 25.4112 6.68943 25.358 6.52964C25.3047 6.36985 25.1982 6.26333 25.0384 6.31659C24.9851 6.36985 24.9318 6.36985 24.8786 6.36985C24.7188 6.42312 24.6655 6.52964 24.6655 6.68943C24.6655 6.79596 24.8252 6.90248 24.9318 6.90248Z" fill="white"/>
<path d="M23.3874 8.55357C23.2809 8.55357 23.1743 8.50031 23.0678 8.50031C22.908 8.44704 22.7482 8.55357 22.7482 8.71336C22.695 8.87315 22.8015 9.03294 22.9613 9.03294C23.0678 9.0862 23.1743 9.0862 23.3341 9.0862C23.4406 9.0862 23.5472 8.97967 23.6537 8.81988C23.6537 8.71336 23.5471 8.55357 23.3874 8.55357Z" fill="white"/>
<path d="M24.1331 10.9505C24.1331 10.7907 24.0266 10.6842 23.8668 10.6842C23.6538 10.6842 23.494 10.6842 23.3342 10.6842C23.2277 10.6842 23.0679 10.7907 23.0679 10.9505C23.0679 11.057 23.1744 11.2168 23.3342 11.2168C23.5472 11.2168 23.707 11.2168 23.9201 11.2168C24.0799 11.2168 24.1331 11.1103 24.1331 10.9505Z" fill="white"/>
<path d="M24.7722 11.1635C24.8787 11.1635 24.932 11.1635 25.0385 11.1103C25.1983 11.057 25.2516 10.9505 25.2516 10.7907C25.1983 10.6309 25.0918 10.5776 24.932 10.5776C24.8787 10.6309 24.7722 10.6309 24.7189 10.6309C24.6124 10.6842 24.5059 10.7907 24.5059 10.9505C24.5059 11.057 24.6655 11.1635 24.7722 11.1635Z" fill="white"/>
<path d="M23.4938 12.8147C23.3873 12.7614 23.2808 12.7614 23.1743 12.7614C23.0145 12.7082 22.8547 12.8147 22.8547 12.9745C22.8014 13.1342 22.9079 13.294 23.0677 13.294C23.1743 13.3473 23.2808 13.3473 23.4406 13.3473C23.5471 13.3473 23.7069 13.2408 23.7602 13.081C23.7602 12.9745 23.6536 12.8147 23.4938 12.8147Z" fill="white"/>
<path d="M23.281 14.8919C23.1745 14.8919 23.0147 14.8387 22.9081 14.8387C22.7483 14.7854 22.5886 14.8919 22.5886 15.0517C22.5353 15.2115 22.6418 15.3713 22.8016 15.3713C22.9614 15.3713 23.1212 15.4246 23.281 15.4246C23.4408 15.4246 23.5473 15.3713 23.5473 15.1583C23.5473 15.0517 23.4408 14.8919 23.281 14.8919Z" fill="white"/>
</g>
<defs>
<clipPath id="clip0_307_372">
<rect width="48" height="48" fill="white"/>
</clipPath>
</defs>
</svg>
