<svg width="16" height="16" viewBox="0 0 16 16" fill="none" xmlns="http://www.w3.org/2000/svg">
<path d="M7.53827 11.8403C7.41793 11.752 7.24858 11.7778 7.16014 11.8982L7.12674 11.9436C7.03839 12.064 7.06411 12.2331 7.1843 12.3216C7.23258 12.3572 7.28883 12.3744 7.34455 12.3744C7.42746 12.3744 7.5093 12.3364 7.5623 12.2646L7.59621 12.2185C7.68462 12.0981 7.65868 11.9287 7.53827 11.8403Z" fill="white"/>
<path d="M7.60878 14.4138L6.91306 13.1487L7.56262 12.264C7.65109 12.1436 7.62512 11.9743 7.50468 11.8859C7.38428 11.7974 7.21496 11.8234 7.12656 11.9439L6.37474 12.9678C6.3124 13.0526 6.30502 13.1659 6.35574 13.2582L7.13474 14.6745V14.6745C7.18402 14.764 7.27656 14.8147 7.37203 14.8147C7.41612 14.8146 7.46081 14.8039 7.50215 14.7811C7.63303 14.7092 7.68078 14.5447 7.60878 14.4138Z" fill="white"/>
<path d="M9.62521 12.9678L8.87646 11.948C8.81437 11.8635 8.70915 11.8224 8.60621 11.8428C8.5033 11.863 8.4214 11.941 8.39596 12.0427C8.37643 12.1208 8.39271 12.2035 8.44037 12.2684L9.08674 13.1488L8.39577 14.4053C8.37384 14.4452 8.3623 14.4902 8.3623 14.5358C8.3623 14.6592 8.44593 14.767 8.56552 14.7978C8.58793 14.8035 8.61052 14.8063 8.63283 14.8063C8.72968 14.8063 8.82146 14.7541 8.86987 14.6662L9.64418 13.2583C9.69496 13.166 9.68752 13.0527 9.62521 12.9678Z" fill="white"/>
<path d="M10.054 8.71659C9.96498 8.66987 9.85742 8.67624 9.77464 8.73331C9.61373 8.84415 9.46442 8.96159 9.33086 9.08231C8.60286 9.74044 7.9112 9.65138 7.88411 9.6475C7.86779 9.64494 7.8512 9.64375 7.83479 9.64428C7.54707 9.65166 7.02832 9.38875 6.47954 8.95774C6.3956 8.89184 6.30954 8.82903 6.2236 8.77103C6.14073 8.71502 6.03363 8.70937 5.94532 8.75634C5.85698 8.80328 5.80176 8.89515 5.80176 8.99521V9.92322C5.80176 10.0053 5.8391 10.0828 5.9031 10.1342C5.91066 10.1403 5.91854 10.1459 5.92666 10.1511L7.84482 11.4329C7.84514 11.4331 7.84542 11.4333 7.84573 11.4335L7.85079 11.4369C7.89595 11.4668 7.94798 11.4819 8.0002 11.4819C8.04414 11.4819 8.08807 11.4712 8.12823 11.4498C8.1367 11.4452 8.14482 11.4403 8.15264 11.435C8.15354 11.4344 8.15445 11.4338 8.15539 11.4331C8.15645 11.4325 8.15751 11.4317 8.15857 11.431L10.0722 10.1523C10.0799 10.1474 10.0874 10.1422 10.0946 10.1365C10.1603 10.0853 10.1986 10.0066 10.1986 9.92332V8.95609C10.1986 8.85553 10.143 8.76337 10.054 8.71659ZM9.65758 9.77853L8.00017 10.886L6.34279 9.7785V9.53247C6.74635 9.82575 7.34001 10.1855 7.82392 10.1854C7.82492 10.1854 7.82604 10.1854 7.82707 10.1854C7.98954 10.2034 8.81808 10.2523 9.65764 9.51575V9.77853H9.65758Z" fill="white"/>
<path d="M8.26682 11.1669C8.24898 11.0597 8.16857 10.9735 8.06276 10.9483C7.95688 10.9232 7.84632 10.9636 7.78194 11.0513L7.16016 11.8982C7.07172 12.0187 7.09766 12.188 7.21813 12.2764C7.26635 12.3118 7.32241 12.3289 7.37801 12.3289C7.46119 12.3289 7.54326 12.2906 7.59632 12.2184L8.21485 11.3759C8.25004 11.3299 8.27054 11.2727 8.27054 11.2115C8.27051 11.1966 8.26926 11.1816 8.26682 11.1669Z" fill="white"/>
<path d="M12.1212 2.44598C12.1158 2.4036 11.9891 1.48904 11.1282 1.12825C11.1532 0.967629 11.1506 0.761191 11.0486 0.560347C10.9115 0.290409 10.6411 0.114502 10.2447 0.0374395C10.2277 0.034127 10.2104 0.0324707 10.1931 0.0324707H6.56221C5.0879 0.0324707 3.88843 1.23191 3.88843 2.70629V4.13101C3.88843 4.5022 4.01496 4.86417 4.24465 5.15017C4.35852 5.29198 4.49877 5.53964 4.51993 5.91408C4.52818 6.06026 4.65055 6.17323 4.79765 6.16917C4.94402 6.16505 5.06052 6.04517 5.06052 5.89876V4.04126C5.24421 3.2816 5.87112 3.13376 5.9789 3.11379H7.15334C7.2915 3.11379 7.42734 3.0927 7.55719 3.05107C7.7805 2.97945 8.13478 2.84763 8.39272 2.74966C8.56528 2.68407 8.75634 2.68166 8.93063 2.74291L10.1879 3.18429C10.8165 3.41617 10.9287 3.96798 10.9426 4.05467V6.28395C10.9426 6.42555 11.0518 6.54302 11.1929 6.55355C11.1998 6.55405 11.2066 6.55433 11.2133 6.55433C11.346 6.5543 11.4606 6.45708 11.4807 6.32386C11.4817 6.31689 11.5897 5.61917 11.938 5.06054C12.0592 4.86607 12.1233 4.64436 12.1233 4.41935V2.48013C12.1233 2.46873 12.1226 2.45732 12.1212 2.44598ZM11.5823 4.41923C11.5823 4.54007 11.5482 4.65995 11.4836 4.76654V4.03617C11.4836 4.02639 11.4831 4.01667 11.482 4.00695C11.4778 3.96767 11.366 3.0406 10.3727 2.67573C10.3715 2.67529 10.3703 2.67485 10.369 2.67441L9.10981 2.23235C8.96784 2.18251 8.81931 2.15763 8.67087 2.15763C8.51125 2.15763 8.35172 2.18641 8.20056 2.24391C7.83944 2.3811 7.55978 2.48207 7.39194 2.53588C7.31559 2.56035 7.23531 2.57279 7.15331 2.57279H5.95703C5.94543 2.57279 5.93381 2.57354 5.92228 2.57501C5.87649 2.58094 4.79752 2.73438 4.52599 3.95142C4.52168 3.97076 4.51949 3.99051 4.51949 4.01032V4.56707C4.46059 4.43095 4.4294 4.28226 4.4294 4.13104V2.70635C4.4294 1.53035 5.38618 0.573565 6.56215 0.573565H10.1658C10.3149 0.605347 10.4963 0.670566 10.565 0.803254C10.6493 0.96566 10.5533 1.18929 10.5532 1.18947C10.5186 1.26307 10.519 1.34829 10.5542 1.42157C10.5894 1.49485 10.6557 1.54841 10.7348 1.56744C11.4234 1.73322 11.5639 2.39376 11.5822 2.5006V4.41923H11.5823Z" fill="white"/>
<path d="M11.4823 4.00701C11.4781 3.96773 11.3663 3.04067 10.373 2.67579C10.3718 2.67535 10.3706 2.67492 10.3694 2.67448L9.11013 2.23242C8.81545 2.12898 8.49257 2.1331 8.20085 2.24392C7.83972 2.3811 7.56007 2.48207 7.39222 2.53592C7.31588 2.56039 7.2356 2.57279 7.1536 2.57279H5.95731C5.94572 2.57279 5.93409 2.57354 5.92256 2.57501C5.87678 2.58095 4.79781 2.73439 4.52628 3.95142C4.52196 3.97076 4.51978 3.99051 4.51978 4.01033V6.33583C4.51978 6.33783 4.51981 6.33983 4.51984 6.34183C4.52162 6.42261 4.57878 8.33033 5.8969 9.20281L5.90372 9.20762C5.90937 9.21162 5.91503 9.21562 5.92094 9.21959C5.99609 9.27034 6.07156 9.32543 6.14537 9.38337C6.52938 9.6849 7.25303 10.1856 7.82391 10.1856C7.82497 10.1856 7.82597 10.1856 7.82707 10.1856C7.85807 10.189 7.91341 10.1935 7.98847 10.1935C8.31201 10.1935 9.00226 10.1087 9.69364 9.48374C9.80967 9.3789 9.94014 9.27634 10.0816 9.1789L10.1018 9.16474C10.1084 9.16009 10.115 9.1554 10.1218 9.15084C10.5615 8.85552 11.323 8.09352 11.4829 6.30808C11.4836 6.30008 11.484 6.29199 11.484 6.28392V4.03623C11.4839 4.02648 11.4834 4.01676 11.4823 4.00701ZM10.9429 6.2717C10.7955 7.88302 10.1089 8.50768 9.82011 8.70165C9.80986 8.70855 9.79973 8.71568 9.78961 8.7228L9.77461 8.73337C9.6137 8.84421 9.46439 8.96165 9.33082 9.08237C8.60554 9.73806 7.91613 9.65206 7.88232 9.64731C7.8666 9.64496 7.85066 9.64396 7.83475 9.6444C7.54704 9.65177 7.02828 9.38887 6.4795 8.95787C6.39556 8.89193 6.3095 8.82912 6.22369 8.77121L6.21703 8.76652C6.21053 8.7619 6.20406 8.7573 6.19644 8.75224C5.13275 8.04821 5.06315 6.40067 5.06081 6.33192V4.04129C5.24515 3.27886 5.87594 3.1327 5.97875 3.11382H7.15363C7.29178 3.11382 7.42763 3.09273 7.55747 3.0511C7.78079 2.97948 8.1351 2.84767 8.39301 2.7497C8.56557 2.6841 8.75663 2.6817 8.93091 2.74295L10.1882 3.18432C10.8168 3.4162 10.929 3.96801 10.9429 4.0547V6.2717H10.9429Z" fill="white"/>
<path d="M8.24205 11.0907C8.1999 11.0064 8.1169 10.9501 8.02299 10.9421C7.92924 10.9343 7.8378 10.9756 7.78202 11.0516L7.13402 11.9341C7.04568 12.0545 7.07149 12.2237 7.19177 12.3122C7.24002 12.3477 7.29618 12.3648 7.35183 12.3648C7.43483 12.3648 7.51677 12.3267 7.5698 12.2547L8.21784 11.3754C8.25212 11.3289 8.27062 11.2695 8.27062 11.2117C8.27065 11.1698 8.2608 11.1283 8.24205 11.0907Z" fill="white"/>
<path d="M8.25927 15.4462C8.15765 15.34 7.98975 15.3343 7.88125 15.4336L7.81941 15.4901C7.72681 15.5748 7.7046 15.7121 7.76578 15.8216L7.76769 15.825C7.809 15.8991 7.88269 15.9494 7.96665 15.9611C7.97909 15.9628 7.99153 15.9637 8.0039 15.9637C8.07512 15.9637 8.14409 15.9355 8.19518 15.8844L8.25509 15.8244C8.35905 15.7205 8.36093 15.5525 8.25927 15.4462Z" fill="white"/>
<path d="M8.18071 15.4901L8.11887 15.4336C8.01037 15.3343 7.84243 15.34 7.7408 15.4462C7.63914 15.5525 7.64102 15.7206 7.74502 15.8245L7.80502 15.8845C7.85611 15.9356 7.92505 15.9637 7.99627 15.9637C8.00899 15.9637 8.02177 15.9628 8.03455 15.961C8.1188 15.9489 8.19249 15.8979 8.23346 15.8233L8.23537 15.8199C8.29531 15.7105 8.27274 15.5743 8.18071 15.4901Z" fill="white"/>
<path d="M8.18509 15.4943L8.18474 15.494C8.14296 15.4549 8.08893 15.4292 8.0294 15.4226C7.94968 15.4139 7.87203 15.4409 7.81556 15.4935L7.81475 15.4943C7.76006 15.5442 7.72822 15.6143 7.72663 15.6883C7.72503 15.7624 7.75384 15.8338 7.80631 15.886L7.80916 15.8888C7.86194 15.9413 7.9309 15.9675 7.9999 15.9675C8.06915 15.9675 8.13837 15.9411 8.19115 15.8883L8.19399 15.8855C8.24624 15.8332 8.27487 15.7618 8.27315 15.688C8.27152 15.6141 8.23968 15.5441 8.18509 15.4943Z" fill="white"/>
<path d="M8.08763 10.9497C7.9756 10.9138 7.85266 10.9554 7.78444 11.0513C7.70813 11.1587 7.72072 11.3052 7.81369 11.3986C7.866 11.4511 7.93544 11.4781 8.00541 11.4781C8.05975 11.4781 8.11438 11.4618 8.1615 11.4286C8.2335 11.378 8.27634 11.2955 8.27634 11.2074V11.2067C8.27634 11.089 8.19978 10.9854 8.08763 10.9497Z" fill="white"/>
<path d="M8.21984 11.0491L8.21753 11.046C8.14812 10.952 8.02625 10.9134 7.91534 10.9499C7.80443 10.9864 7.72949 11.09 7.72949 11.2068V11.2114C7.72949 11.311 7.7854 11.4018 7.87315 11.4489C7.9129 11.4703 7.95678 11.4808 8.00059 11.4808C8.05343 11.4808 8.10622 11.4655 8.15159 11.4354C8.21344 11.3945 8.25578 11.3299 8.26869 11.2569C8.28159 11.1839 8.26394 11.1087 8.21984 11.0491Z" fill="white"/>
<path d="M11.2181 10.1993C11.1901 10.1252 11.131 10.0671 11.0564 10.0404L10.0192 9.66862C10.0108 9.66562 10.0021 9.66293 9.99337 9.66081C9.91933 9.64228 9.8409 9.65587 9.77746 9.69831L7.85565 10.9825C7.85515 10.9828 7.85458 10.9832 7.85405 10.9836L8.00496 11.2079L7.85068 10.9858C7.7943 11.0231 7.75393 11.0803 7.73755 11.1458C7.72855 11.1818 7.72708 11.2194 7.73318 11.256C7.74015 11.2978 7.75683 11.3375 7.78196 11.3717L9.18899 13.288C9.24012 13.3577 9.32124 13.3984 9.40699 13.3984C9.41286 13.3984 9.41877 13.3982 9.42468 13.3978C9.51683 13.3917 9.59955 13.3392 9.64405 13.2582L11.2021 10.4254C11.2403 10.356 11.2461 10.2733 11.2181 10.1993ZM9.37424 12.6261L8.38533 11.2792L9.96477 10.2238L10.5752 10.4427L9.37424 12.6261Z" fill="white"/>
<path d="M8.26651 11.1649C8.25379 11.0923 8.21201 11.028 8.15076 10.9869L6.22255 9.6984C6.16117 9.65734 6.08552 9.64328 6.01342 9.65928C6.00236 9.66172 5.99148 9.6649 5.98083 9.66872L4.94361 10.0405C4.86905 10.0672 4.80995 10.1253 4.78192 10.1994C4.75389 10.2735 4.7597 10.3561 4.79789 10.4255L6.35592 13.2583C6.40042 13.3392 6.48314 13.3918 6.5753 13.3979C6.58117 13.3983 6.58708 13.3985 6.59295 13.3985C6.6787 13.3985 6.7598 13.3577 6.81101 13.288L7.56283 12.2641C7.56342 12.2633 7.56401 12.2624 7.56461 12.2616L8.21808 11.3716C8.2617 11.3121 8.2792 11.2375 8.26651 11.1649ZM7.12676 11.9438C7.12611 11.9446 7.12548 11.9455 7.12483 11.9464L6.62567 12.6262L5.42473 10.4428L6.03517 10.2239L7.61458 11.2794L7.12676 11.9438Z" fill="white"/>
<path d="M15.9867 14.8174L15.6377 12.7101C15.5278 12.046 15.0662 11.4912 14.4332 11.2622L11.0572 10.0408C10.9531 10.0032 10.8367 10.0327 10.7632 10.1152C10.6896 10.1978 10.6737 10.3169 10.7231 10.4159L11.4279 11.8295L10.7363 11.8401C10.6424 11.8416 10.5559 11.8916 10.5079 11.9724C10.4599 12.0531 10.4573 12.1529 10.5008 12.2361L10.7845 12.7778L7.88128 15.4337C7.87831 15.4364 7.8754 15.4391 7.87256 15.442L7.81262 15.5019C7.72772 15.5868 7.70893 15.7176 7.76659 15.823L7.76872 15.8268C7.81618 15.9135 7.90719 15.9675 8.00606 15.9675H15.0114C15.3024 15.9675 15.5773 15.8402 15.7654 15.6183C15.9536 15.3963 16.0343 15.1044 15.9867 14.8174ZM15.3529 15.2684C15.2676 15.3689 15.1432 15.4265 15.0114 15.4265H8.69062L11.3035 13.0364C11.3941 12.9535 11.4175 12.8201 11.3605 12.7113L11.184 12.3743L11.8661 12.3638C11.9591 12.3624 12.0447 12.3133 12.0931 12.2339C12.1413 12.1544 12.1455 12.0558 12.104 11.9726L11.5091 10.7796L14.2493 11.7709C14.6985 11.9334 15.0261 12.3272 15.1041 12.7985L15.4531 14.9057C15.4531 14.9058 15.4531 14.9058 15.4531 14.9058C15.4746 15.0357 15.4381 15.1679 15.3529 15.2684Z" fill="white"/>
<path d="M8.1875 15.4964L8.18435 15.4935C8.07729 15.3966 7.91285 15.4009 7.81098 15.5034L7.80816 15.5062C7.73113 15.5837 7.70829 15.6999 7.75023 15.8008C7.7922 15.9017 7.89076 15.9675 8.00001 15.9675H8.00594C8.11779 15.9675 8.21813 15.8986 8.25832 15.7942C8.2986 15.6898 8.27044 15.5714 8.1875 15.4964Z" fill="white"/>
<path d="M8.17895 15.4886C8.11755 15.4334 8.03427 15.4091 7.95271 15.423C7.87124 15.4368 7.80055 15.4872 7.7608 15.5596L7.75893 15.563C7.70189 15.667 7.71924 15.796 7.80171 15.8812L7.80268 15.8822C7.85567 15.937 7.9263 15.9646 7.99711 15.9646C8.06227 15.9646 8.12761 15.9412 8.17936 15.8939L8.1822 15.8914C8.20677 15.869 8.22702 15.8422 8.24189 15.8124C8.29636 15.7036 8.26942 15.57 8.17895 15.4886Z" fill="white"/>
<path d="M8.19071 15.5052L8.18958 15.5041C8.18887 15.5033 8.18812 15.5026 8.18743 15.5019L8.12743 15.442C8.12462 15.4391 8.12171 15.4363 8.11877 15.4337L5.21555 12.7778L5.49927 12.2362C5.54286 12.153 5.54014 12.0531 5.49217 11.9724C5.44417 11.8917 5.35774 11.8416 5.26383 11.8402L4.57211 11.8295L5.27699 10.416C5.32636 10.317 5.31042 10.1979 5.23689 10.1153C5.16336 10.0327 5.04686 10.0031 4.94289 10.0408L1.56685 11.2623C0.933852 11.4912 0.472288 12.046 0.362319 12.7101L0.01335 14.8174C-0.0341813 15.1046 0.0465064 15.3964 0.234694 15.6183C0.422913 15.8402 0.697758 15.9675 0.988696 15.9675H8.00002C8.10958 15.9675 8.2083 15.9014 8.25005 15.8002C8.29183 15.6989 8.2684 15.5824 8.19071 15.5052ZM0.988727 15.4265C0.856977 15.4265 0.732539 15.3689 0.647351 15.2684C0.562164 15.1679 0.525664 15.0358 0.547164 14.9058L0.896133 12.7985C0.974164 12.3271 1.3017 11.9335 1.75092 11.771L4.49108 10.7796L3.8962 11.9726C3.8547 12.0558 3.85883 12.1544 3.90717 12.2339C3.95545 12.3133 4.04117 12.3624 4.13414 12.3638L4.8162 12.3743L4.6397 12.7113C4.58273 12.82 4.60617 12.9535 4.69673 13.0364L7.30958 15.4265H0.988727Z" fill="white"/>
<path d="M8.92071 12.1737C8.94024 12.0956 8.92396 12.0128 8.87631 11.9479L8.21799 11.0514C8.14881 10.9572 8.02681 10.9197 7.91574 10.9561C7.85577 10.9758 7.80637 11.0155 7.77349 11.0662L7.12721 11.9431C7.11796 11.9556 7.10974 11.969 7.10277 11.983C7.05849 12.0716 7.06615 12.1773 7.12271 12.2585L7.39793 12.6538L7.10474 14.5018C7.09534 14.5611 7.10596 14.6219 7.1349 14.6745L7.76296 15.8164C7.81049 15.9029 7.90137 15.9566 7.99999 15.9566C8.09865 15.9566 8.18949 15.9029 8.23703 15.8164L8.86978 14.6661C8.89171 14.6261 8.90325 14.5813 8.90325 14.5357V14.5356C8.90325 14.5214 8.90209 14.5072 8.8999 14.4932L8.60806 12.6538L8.88031 12.2629C8.89899 12.2358 8.91278 12.2056 8.92071 12.1737ZM7.99999 15.1248L7.65359 14.495L7.94934 12.631C7.96031 12.5619 7.94409 12.4913 7.90415 12.434L7.67746 12.1084L8.00077 11.6698L8.32578 12.1124L8.10181 12.434C8.06187 12.4913 8.04568 12.5619 8.05662 12.631L8.35103 14.4865L7.99999 15.1248Z" fill="white"/>
</svg>
