<svg width="48" height="48" viewBox="0 0 48 48" fill="none" xmlns="http://www.w3.org/2000/svg">
<g clip-path="url(#clip0_307_267)">
<path d="M40.1923 5.92894C36.3689 2.10562 31.2855 0 25.8786 0C20.4716 0 15.3882 2.10562 11.565 5.92894C7.78101 9.71288 5.67961 14.7305 5.63676 20.0751L1.95314 27.4423C1.78851 27.7716 1.90514 28.1721 2.22079 28.3614L5.63611 30.4106V41.2837C5.63611 41.6728 5.95158 41.9883 6.34064 41.9883H13.1508V47.2956C13.1508 47.6846 13.4663 48.0001 13.8554 48.0001C14.2444 48.0001 14.5599 47.6846 14.5599 47.2956V41.2837C14.5599 40.8947 14.2444 40.5792 13.8554 40.5792H7.04498V30.0117C7.04498 29.7643 6.91514 29.5349 6.70298 29.4076L3.50498 27.4888L6.97054 20.5577C7.01948 20.4598 7.04498 20.3521 7.04498 20.2426C7.04498 9.85772 15.4937 1.40897 25.8786 1.40897C36.2635 1.40897 44.7122 9.85772 44.7122 20.2426C44.7122 26.0783 42.0719 31.4892 37.4682 35.0885C37.2974 35.222 37.1975 35.4267 37.1975 35.6436V47.2955C37.1975 47.6845 37.5129 48 37.902 48C38.2912 48 38.6066 47.6845 38.6066 47.2955V35.9834C43.3871 32.1166 46.1213 26.3995 46.1213 20.2427C46.1212 14.8357 44.0157 9.75225 40.1923 5.92894Z" fill="#FFF9F9"/>
<path d="M34.8962 6.76318C33.679 6.76318 32.6887 7.75346 32.6887 8.97062C32.6887 9.32265 32.772 9.65556 32.9193 9.95115L26.8833 15.9872C26.7512 16.1192 26.677 16.2984 26.677 16.4852V33.769C26.677 34.1581 26.9924 34.4735 27.3815 34.4735C27.7707 34.4735 28.0861 34.1581 28.0861 33.769V16.7771L33.9156 10.9475C34.2112 11.0948 34.544 11.1782 34.8962 11.1782C36.1133 11.1782 37.1036 10.1879 37.1036 8.97072C37.1036 7.75356 36.1133 6.76318 34.8962 6.76318ZM34.8962 9.769C34.4559 9.769 34.0977 9.41087 34.0977 8.97053C34.0977 8.53018 34.4558 8.17206 34.8962 8.17206C35.3364 8.17206 35.6946 8.53018 35.6946 8.97053C35.6946 9.41087 35.3364 9.769 34.8962 9.769Z" fill="#FFF9F9"/>
<path d="M40.1564 22.544C39.1855 22.544 38.3597 23.1743 38.0648 24.0469H34.0977V19.7829L36.9214 16.9592C37.217 17.1064 37.5499 17.1898 37.902 17.1898C39.1191 17.1898 40.1094 16.1995 40.1094 14.9823C40.1094 13.7652 39.1191 12.7749 37.902 12.7749C36.6848 12.7749 35.6945 13.7652 35.6945 14.9823C35.6945 15.3344 35.7779 15.6673 35.9251 15.9629L32.895 18.993C32.7629 19.1251 32.6887 19.3042 32.6887 19.4911V36.7748C32.6887 37.1639 33.0041 37.4793 33.3933 37.4793C33.7824 37.4793 34.0978 37.1639 34.0978 36.7748V25.4559H38.065C38.3598 26.3285 39.1856 26.9588 40.1566 26.9588C41.3737 26.9588 42.364 25.9685 42.364 24.7514C42.3638 23.5342 41.3735 22.544 40.1564 22.544ZM37.902 14.1839C38.3422 14.1839 38.7004 14.542 38.7004 14.9823C38.7004 15.4227 38.3423 15.7808 37.902 15.7808C37.4617 15.7808 37.1035 15.4227 37.1035 14.9823C37.1035 14.542 37.4617 14.1839 37.902 14.1839ZM40.1564 25.5498C39.7161 25.5498 39.3579 25.1917 39.3579 24.7514C39.3579 24.3111 39.716 23.9529 40.1564 23.9529C40.5966 23.9529 40.9548 24.311 40.9548 24.7514C40.9548 25.1917 40.5966 25.5498 40.1564 25.5498Z" fill="#FFF9F9"/>
<path d="M29.3825 8.47254L27.1039 6.19395C27.2511 5.89836 27.3344 5.56545 27.3344 5.21342C27.3344 3.99626 26.3441 3.00598 25.127 3.00598C23.9098 3.00598 22.9195 3.99626 22.9195 5.21342C22.9195 6.43058 23.9098 7.42086 25.127 7.42086C25.479 7.42086 25.8119 7.33751 26.1075 7.19033L27.888 8.97073L20.8714 15.9872C20.7392 16.1193 20.665 16.2984 20.665 16.4853V42.7866C20.665 43.1757 20.9805 43.4912 21.3696 43.4912C21.7586 43.4912 22.0741 43.1757 22.0741 42.7866V16.7771L29.3825 9.46873C29.6575 9.19376 29.6575 8.74751 29.3825 8.47254ZM25.127 6.0117C24.6867 6.0117 24.3285 5.65358 24.3285 5.21323C24.3285 4.77298 24.6866 4.41476 25.127 4.41476C25.5672 4.41476 25.9254 4.77289 25.9254 5.21323C25.9254 5.65358 25.5672 6.0117 25.127 6.0117Z" fill="#FFF9F9"/>
<path d="M18.0634 23.4588L15.1612 21.0403C15.2574 20.7927 15.3109 20.5238 15.3109 20.2426C15.3109 19.0254 14.3206 18.0352 13.1034 18.0352C11.8863 18.0352 10.896 19.0254 10.896 20.2426C10.896 21.4598 11.8863 22.45 13.1034 22.45C13.5268 22.45 13.9225 22.3299 14.2589 22.1225L16.9077 24.3298V39.0292C16.9077 39.4183 17.2232 39.7338 17.6123 39.7338C18.0013 39.7338 18.3168 39.4183 18.3168 39.0292V24C18.3169 23.7909 18.224 23.5926 18.0634 23.4588ZM13.1036 21.0411C12.6634 21.0411 12.3052 20.6829 12.3052 20.2426C12.3052 19.8023 12.6633 19.4441 13.1036 19.4441C13.544 19.4441 13.9021 19.8023 13.9021 20.2426C13.9021 20.6829 13.5439 21.0411 13.1036 21.0411Z" fill="#FFF9F9"/>
<path d="M27.3813 36.4462C26.9921 36.4462 26.6768 36.7616 26.6768 37.1507V44.2897C26.6768 44.6787 26.9921 44.9942 27.3813 44.9942C27.7704 44.9942 28.0858 44.6787 28.0858 44.2897V37.1507C28.0858 36.7616 27.7704 36.4462 27.3813 36.4462Z" fill="#FFF9F9"/>
<path d="M24.3754 24.7985C23.9863 24.7985 23.6709 25.1139 23.6709 25.503V42.7867C23.6709 43.1758 23.9863 43.4913 24.3754 43.4913C24.7646 43.4913 25.08 43.1758 25.08 42.7867V25.503C25.08 25.1138 24.7645 24.7985 24.3754 24.7985Z" fill="#FFF9F9"/>
<path d="M24.3754 18.0353C23.9863 18.0353 23.6709 18.3507 23.6709 18.7398V20.9942C23.6709 21.3833 23.9863 21.6987 24.3754 21.6987C24.7646 21.6987 25.08 21.3833 25.08 20.9942V18.7397C25.08 18.3507 24.7645 18.0353 24.3754 18.0353Z" fill="#FFF9F9"/>
<path d="M30.3874 23.2955C29.9982 23.2955 29.6829 23.611 29.6829 24.0001V42.0353C29.6829 42.4244 29.9982 42.7398 30.3874 42.7398C30.7765 42.7398 31.0919 42.4244 31.0919 42.0353V24.0001C31.0918 23.611 30.7765 23.2955 30.3874 23.2955Z" fill="#FFF9F9"/>
<path d="M30.3874 16.5322C29.9982 16.5322 29.6829 16.8477 29.6829 17.2368V20.2427C29.6829 20.6317 29.9982 20.9472 30.3874 20.9472C30.7765 20.9472 31.0919 20.6317 31.0919 20.2427V17.2368C31.0918 16.8477 30.7765 16.5322 30.3874 16.5322Z" fill="#FFF9F9"/>
<path d="M21.8677 10.7269C21.5926 10.4517 21.1465 10.4517 20.8715 10.7269L15.6112 15.9872C15.336 16.2623 15.336 16.7084 15.6112 16.9835L18.6171 19.9894C18.9037 20.276 19.3873 20.2566 19.6508 19.949C19.887 19.6732 19.8699 19.2495 19.6133 18.9931L17.1056 16.4854L21.8677 11.7232C22.1429 11.448 22.1429 11.0019 21.8677 10.7269Z" fill="#FFF9F9"/>
</g>
<defs>
<clipPath id="clip0_307_267">
<rect width="48" height="48" fill="white"/>
</clipPath>
</defs>
</svg>
