<svg width="48" height="48" viewBox="0 0 48 48" fill="none" xmlns="http://www.w3.org/2000/svg">
<path d="M24.0001 3.4425C20.4045 3.44657 16.9574 4.87672 14.4149 7.41918C11.8724 9.96164 10.4423 13.4088 10.4382 17.0044V30.9956C10.4377 32.9004 10.8394 34.7838 11.617 36.5227C12.3946 38.2615 13.5306 39.8166 14.9506 41.0861C14.9765 41.1128 15.0046 41.1371 15.0346 41.1589C16.9902 42.8876 19.4034 44.0149 21.9842 44.4051C24.565 44.7953 27.2036 44.4319 29.5829 43.3586C31.9621 42.2853 33.9808 40.5477 35.3963 38.3547C36.8117 36.1617 37.5638 33.6065 37.562 30.9964V17.0044C37.5579 13.4088 36.1278 9.96164 33.5853 7.41918C31.0428 4.87672 27.5957 3.44657 24.0001 3.4425ZM11.7507 30.9956V17.0044C11.7507 13.7556 13.0413 10.64 15.3385 8.34276C17.6357 6.04556 20.7514 4.755 24.0001 4.755C27.2488 4.755 30.3645 6.04556 32.6617 8.34276C34.9589 10.64 36.2495 13.7556 36.2495 17.0044V22.6466C34.5124 24.8058 32.6571 26.8671 30.692 28.821C28.6317 27.4478 26.3829 24.8209 25.2567 23.4184C27.2301 23.0972 29.0048 22.0304 30.2144 20.4384C31.4239 18.8464 31.9759 16.8507 31.7565 14.8634C31.537 12.8761 30.5627 11.049 29.0349 9.75933C27.5071 8.46966 25.5424 7.81592 23.5464 7.93311C21.5505 8.0503 19.6758 8.92946 18.3094 10.3891C16.943 11.8487 16.1892 13.7772 16.2038 15.7766C16.2184 17.7759 17.0001 19.6933 18.3877 21.1328C19.7752 22.5723 21.6626 23.4241 23.66 23.5121C24.3912 24.4706 27.1051 27.9098 29.7372 29.7574C25.9655 33.3994 20.9289 37.5094 15.5296 39.8318C14.3349 38.691 13.384 37.3198 12.7345 35.801C12.085 34.2822 11.7503 32.6475 11.7507 30.9956ZM24.0001 22.2169C22.717 22.2169 21.4627 21.8364 20.3958 21.1235C19.329 20.4107 18.4975 19.3975 18.0064 18.212C17.5154 17.0266 17.3869 15.7222 17.6373 14.4637C17.8876 13.2053 18.5055 12.0493 19.4128 11.142C20.32 10.2347 21.476 9.61686 22.7345 9.36654C23.9929 9.11621 25.2973 9.24469 26.4828 9.73571C27.6682 10.2267 28.6814 11.0583 29.3943 12.1251C30.1071 13.192 30.4876 14.4463 30.4876 15.7294C30.4861 17.4495 29.8021 19.0988 28.5858 20.3151C27.3695 21.5314 25.7202 22.2154 24.0001 22.2169ZM24.0001 43.245C21.3435 43.2475 18.7589 42.382 16.6396 40.7801C25.6572 36.684 33.3822 28.1576 36.2495 24.7301V30.9956C36.246 34.2433 34.9543 37.357 32.6579 39.6534C30.3614 41.9499 27.2478 43.2415 24.0001 43.245Z" fill="white"/>
<path d="M22.2536 14.8256C22.3899 14.8257 22.5228 14.7833 22.6339 14.7044C22.745 14.6254 22.8288 14.5139 22.8736 14.3852C22.9184 14.2565 22.9221 14.117 22.884 13.9861C22.8459 13.8553 22.7681 13.7395 22.6612 13.6549C22.2472 13.2837 21.7107 13.0785 21.1547 13.0785C20.5986 13.0785 20.0621 13.2837 19.6481 13.6549C19.5139 13.7636 19.428 13.9208 19.409 14.0925C19.39 14.2641 19.4394 14.4364 19.5466 14.5718C19.6537 14.7073 19.8099 14.795 19.9813 14.8161C20.1527 14.8371 20.3255 14.7898 20.4622 14.6843C20.5524 14.592 20.6601 14.5188 20.7791 14.4687C20.898 14.4187 21.0257 14.393 21.1547 14.393C21.2837 14.393 21.4114 14.4187 21.5303 14.4687C21.6492 14.5188 21.7569 14.592 21.8471 14.6843C21.9627 14.776 22.106 14.8258 22.2536 14.8256Z" fill="white"/>
<path d="M28.3524 13.6549C27.9384 13.2837 27.4019 13.0785 26.8459 13.0785C26.2898 13.0785 25.7533 13.2837 25.3393 13.6549C25.2706 13.7079 25.213 13.7741 25.17 13.8496C25.127 13.925 25.0995 14.0082 25.0889 14.0944C25.0783 14.1806 25.0849 14.268 25.1084 14.3517C25.1318 14.4353 25.1716 14.5134 25.2255 14.5815C25.2794 14.6496 25.3462 14.7064 25.4222 14.7484C25.4981 14.7905 25.5817 14.8171 25.668 14.8267C25.7543 14.8362 25.8417 14.8286 25.925 14.8041C26.0083 14.7797 26.086 14.7389 26.1534 14.6843C26.2436 14.592 26.3513 14.5188 26.4703 14.4687C26.5892 14.4187 26.7169 14.393 26.8459 14.393C26.9749 14.393 27.1026 14.4187 27.2215 14.4687C27.3404 14.5188 27.4481 14.592 27.5383 14.6843C27.675 14.7898 27.8478 14.8371 28.0192 14.8161C28.1906 14.795 28.3468 14.7073 28.454 14.5718C28.5611 14.4364 28.6105 14.2641 28.5915 14.0925C28.5725 13.9208 28.4866 13.7636 28.3524 13.6549Z" fill="white"/>
<path d="M25.3928 18.0138C24.3428 18.6836 23.499 18.6937 22.6526 18.0457C22.5142 17.9437 22.3413 17.9002 22.1711 17.9243C22.0009 17.9485 21.847 18.0385 21.7425 18.175C21.6379 18.3115 21.5911 18.4835 21.6121 18.6541C21.6331 18.8248 21.7202 18.9804 21.8546 19.0874C22.4379 19.5633 23.1645 19.8286 23.9171 19.8404C24.699 19.8152 25.457 19.5648 26.1 19.1193C26.244 19.0244 26.3449 18.8766 26.3807 18.7078C26.4166 18.5391 26.3846 18.3631 26.2916 18.2178C26.1987 18.0725 26.0522 17.9696 25.884 17.9314C25.7158 17.8933 25.5393 17.9229 25.3928 18.0138Z" fill="white"/>
</svg>
