<svg width="48" height="48" viewBox="0 0 48 48" fill="none" xmlns="http://www.w3.org/2000/svg">
<g clip-path="url(#clip0_307_321)">
<path d="M41.9474 31.3858H38.6651V28.1036C38.6651 27.3799 38.0764 26.7912 37.3527 26.7912H33.9768C33.2531 26.7912 32.6643 27.3799 32.6643 28.1036V31.3858H29.3821C28.6584 31.3858 28.0697 31.9746 28.0697 32.6983V36.0742C28.0697 36.7979 28.6584 37.3867 29.3821 37.3867H32.6643V40.6689C32.6643 41.3926 33.2531 41.9813 33.9768 41.9813H37.3527C38.0764 41.9813 38.6651 41.3926 38.6651 40.6689V37.3867H41.9474C42.6711 37.3867 43.2598 36.7979 43.2598 36.0742V32.6983C43.2598 31.9746 42.6711 31.3858 41.9474 31.3858ZM41.8537 35.9804H38.5714C37.8477 35.9804 37.259 36.5691 37.259 37.2928V40.5751H34.0705V37.2928C34.0705 36.5691 33.4818 35.9804 32.7581 35.9804H29.4758V32.7919H32.7581C33.4818 32.7919 34.0705 32.2032 34.0705 31.4795V28.1972H37.259V31.4795C37.259 32.2032 37.8477 32.7919 38.5714 32.7919H41.8537V35.9804ZM35.887 10.3158C34.598 10.3158 33.5494 11.3645 33.5494 12.6534C33.5494 13.9423 34.598 14.991 35.887 14.991C37.1758 14.991 38.2246 13.9423 38.2246 12.6534C38.2245 11.3645 37.1758 10.3158 35.887 10.3158ZM35.887 13.5848C35.3733 13.5848 34.9555 13.167 34.9555 12.6533C34.9555 12.1396 35.3733 11.7218 35.887 11.7218C36.4006 11.7218 36.8184 12.1396 36.8184 12.6533C36.8183 13.167 36.4005 13.5848 35.887 13.5848ZM44.5657 25.8547C46.0357 24.8781 46.7436 22.9748 46.024 21.1836L45.9567 21.0165C45.5758 20.0685 45.8269 18.9686 46.5813 18.2798L46.7146 18.1582C48.934 16.1319 48.0989 12.4588 45.2168 11.5952C45.1605 11.5658 44.0719 11.3848 43.5278 10.2442C43.3607 9.89362 42.9408 9.74513 42.5906 9.91228C42.2401 10.0794 42.0915 10.4991 42.2586 10.8495C42.728 11.8336 43.5961 12.5775 44.6402 12.8904L44.8131 12.9423C46.6454 13.4912 47.181 15.8284 45.7667 17.1197L45.6334 17.2413C44.4479 18.3236 44.0535 20.0515 44.652 21.541L44.7193 21.7081C45.2299 22.9792 44.6091 24.3208 43.4868 24.8551C40.0542 22.033 35.4737 21.3363 31.4771 22.7832C32.0484 20.9953 32.3385 19.1943 32.3385 17.41C32.3385 14.1698 31.3951 11.0926 29.636 8.47031C30.2111 7.09632 31.9675 6.47105 33.3115 7.40342L33.4597 7.50616C34.7785 8.4211 36.5509 8.42119 37.8696 7.50626L38.0179 7.40342C39.2444 6.5526 40.6499 7.01841 41.3499 7.88845C41.5932 8.19105 42.0358 8.23886 42.3384 7.9956C42.6409 7.75224 42.6889 7.30968 42.4455 7.00707C41.1757 5.42843 38.8787 5.09508 37.2165 6.24794L37.0683 6.35087C36.2288 6.93311 35.1006 6.9332 34.2612 6.35077L34.113 6.24794C32.2756 4.97349 29.8905 5.53811 28.7195 7.23421C25.5151 3.32004 20.6847 1.02032 15.3421 1.30202C6.62968 1.75987 -0.074485 8.96575 0.0792545 17.7064C0.167748 22.7374 2.51293 27.7502 7.04947 32.6172C5.45742 33.5668 3.76488 34.4872 1.98787 35.3663C0.258586 36.2217 -0.47402 38.2664 0.319988 40.0214L2.07187 43.8939C2.8955 45.7148 5.06698 46.5129 6.88607 45.6187C7.1868 45.4707 7.48565 45.3218 7.78254 45.1717C8.12911 44.9966 8.26813 44.5736 8.09293 44.2271C7.91772 43.8806 7.49465 43.7414 7.14836 43.9168C6.85598 44.0646 6.56172 44.2114 6.26568 44.3569C5.17309 44.894 3.85459 44.4236 3.35297 43.3143L1.60109 39.442C1.12121 38.381 1.5649 37.1443 2.61136 36.6268C8.17786 33.8728 12.9532 30.713 16.421 27.4889C19.6365 24.4991 20.7242 22.3548 20.9339 22.0566C21.8073 20.812 23.1066 17.9361 23.9 14.8473C24.7452 11.5564 25.1716 7.40886 23.3474 4.52962C27.8706 7.05441 30.9324 11.8629 30.9324 17.4101C30.9324 19.4601 30.514 21.5403 29.6909 23.5973C26.4066 25.4231 24.0383 28.7045 23.4643 32.564C19.6062 36.449 14.802 39.7373 10.0716 42.3671C9.73222 42.5557 9.61007 42.9837 9.79878 43.3232C9.98739 43.6625 10.4155 43.7846 10.7549 43.5959C12.685 42.5229 14.5042 41.4102 16.209 40.2641C19.0409 42.1686 22.1734 43.969 25.5292 45.6187C26.8376 46.262 28.4149 46.0374 29.4917 45.0626C31.3084 46.1171 33.4173 46.7217 35.6648 46.7217C42.4666 46.7217 48.0002 41.1881 48.0002 34.3863C48.0002 31.079 46.6918 28.0719 44.5657 25.8547ZM8.27432 31.8684C3.85272 27.1963 1.56875 22.4257 1.48531 17.6817C1.38538 12.008 4.4508 7.04363 9.08914 4.49756C7.24089 7.37811 7.66658 11.5419 8.51561 14.8471C9.30887 17.9358 10.6081 20.8118 11.4815 22.0564C11.6527 22.3002 12.6208 24.1596 15.1879 26.7121C13.2563 28.47 10.9221 30.2084 8.27432 31.8684ZM16.2081 25.744C14.0905 23.6465 11.4369 20.3778 11.4369 17.4099C11.4369 14.7793 13.577 12.6391 16.2077 12.6391C18.8384 12.6391 20.9785 14.7793 20.9785 17.4099C20.9785 20.3804 18.3259 23.6475 16.2081 25.744ZM22.1699 15.7984C21.4592 13.1716 19.0561 11.2329 16.2077 11.2329C13.3592 11.2329 10.9561 13.1715 10.2453 15.7983C9.31769 12.7861 8.56633 8.63662 9.96086 5.80884C11.2137 3.26811 13.9315 2.57872 16.7738 2.69721C19.5841 2.81692 21.4954 3.86385 22.4545 5.80884C23.8487 8.63624 23.0979 12.7852 22.1699 15.7984ZM26.1495 44.3568C23.0324 42.8242 20.1135 41.161 17.4565 39.4056C19.5246 37.9455 21.5076 36.3637 23.3328 34.6524C23.4162 38.5674 25.3322 42.0391 28.2559 44.2424C27.6368 44.6341 26.8374 44.695 26.1495 44.3568ZM35.6648 45.3155C29.6384 45.3155 24.7356 40.4126 24.7356 34.3862C24.7356 28.3598 29.6384 23.4569 35.6648 23.4569C41.6912 23.4569 46.5941 28.3598 46.5941 34.3862C46.5941 40.4126 41.6912 45.3155 35.6648 45.3155ZM39.7431 20.4461C41.032 20.4461 42.0807 19.3974 42.0807 18.1085C42.0807 16.8195 41.0321 15.7709 39.7431 15.7709C38.4541 15.7709 37.4054 16.8195 37.4054 18.1085C37.4054 19.3974 38.4541 20.4461 39.7431 20.4461ZM39.7431 17.177C40.2567 17.177 40.6745 17.5948 40.6745 18.1085C40.6745 18.6221 40.2567 19.0399 39.7431 19.0399C39.2295 19.0399 38.8116 18.6221 38.8116 18.1085C38.8116 17.5948 39.2294 17.177 39.7431 17.177Z" fill="white"/>
</g>
<defs>
<clipPath id="clip0_307_321">
<rect width="48" height="48" fill="white"/>
</clipPath>
</defs>
</svg>
