<svg width="48" height="48" viewBox="0 0 48 48" fill="none" xmlns="http://www.w3.org/2000/svg">
<g clip-path="url(#clip0_307_329)">
<path d="M12.4002 13.1171C10.3762 14.4139 9.56071 16.8038 9.23306 18.5802C9.23043 18.5944 9.22828 18.6088 9.22649 18.6231C9.07687 19.858 8.97403 21.1944 9.23306 22.5984C9.56071 24.3748 10.3762 26.7646 12.4003 28.0615C12.7547 28.2886 13.1508 28.4027 13.5487 28.4027C13.9001 28.4027 14.2531 28.3137 14.5802 28.1347C15.2734 27.7556 15.704 27.0301 15.704 26.2413V14.937C15.704 14.1481 15.2734 13.4227 14.5801 13.0435C13.8824 12.6619 13.0675 12.6894 12.4002 13.1171ZM14.2967 26.2414C14.2967 26.5197 14.1502 26.7659 13.9049 26.9001C13.79 26.9629 13.4872 27.0867 13.1595 26.8765C11.8937 26.0656 11.0145 24.498 10.617 22.3432C10.406 21.1991 10.4654 20.1039 10.6209 18.8143C11.0203 16.6704 11.8979 15.1103 13.1595 14.3019C13.4872 14.092 13.79 14.2154 13.9049 14.2783C14.1502 14.4125 14.2967 14.6587 14.2967 14.937V26.2414Z" fill="white"/>
<path d="M47.8522 41.0929L43.3616 33.3148C43.2205 33.0704 43.2397 32.7655 43.4105 32.5378C45.9616 29.1368 47.3365 25.0877 47.3866 20.8283C47.4503 15.4093 45.3554 10.3088 41.4877 6.4665C37.6192 2.62341 32.5043 0.560442 27.0841 0.660848C23.5312 0.726098 20.0587 1.73954 17.0422 3.59194C14.1088 5.39325 11.6772 7.93594 10.0104 10.9453C9.486 11.8921 8.69296 12.4754 7.80365 13.0449C6.33899 13.9834 5.41771 15.5337 4.89103 17.1581C4.28859 19.0163 4.13128 21.0571 4.48696 22.9853C4.86149 25.0157 5.70159 27.1001 7.37315 28.4047C7.8989 28.8149 8.5245 29.0471 9.06187 29.4465C9.57196 29.8256 10.0151 30.2968 10.3419 30.8431C11.9415 33.5169 14.1821 35.8083 16.8216 37.4692C17.1505 37.6763 17.585 37.5774 17.7919 37.2484C17.9989 36.9194 17.9 36.4851 17.5711 36.2781C15.1182 34.7346 13.036 32.6053 11.5495 30.1206C11.2027 29.5408 10.7558 29.0239 10.2413 28.587C9.72046 28.1447 9.12834 27.8877 8.56275 27.5249C7.22184 26.6659 6.29109 25.0078 5.8709 22.73C5.64787 21.521 5.71068 20.365 5.87484 19.004C6.08362 17.8826 6.43687 16.7635 7.05112 15.7947C7.47056 15.133 7.99228 14.6098 8.64956 14.1901C9.7125 13.5113 10.6195 12.7504 11.2416 11.6273C12.7911 8.82985 15.0515 6.46604 17.7786 4.79138C20.5811 3.07041 23.8079 2.12879 27.1099 2.06822C32.1473 1.97372 36.8998 3.89241 40.4958 7.46513C44.0911 11.0369 46.0386 15.7769 45.9793 20.8119C45.9328 24.7704 44.6552 28.5333 42.2846 31.6935C41.7751 32.3727 41.7194 33.2854 42.1428 34.0187L46.4814 41.5335L45.1182 42.3205L40.1319 33.6958C39.6311 32.8296 39.7162 31.7633 40.3488 30.9793C42.7123 28.0501 44.0139 24.3602 44.0139 20.5894C44.0139 18.221 43.5242 15.9338 42.5583 13.7913C42.3986 13.4369 41.982 13.2792 41.6275 13.439C41.2733 13.5987 41.1156 14.0153 41.2752 14.3697C42.1586 16.3291 42.6066 18.4217 42.6066 20.5894C42.6066 24.0397 41.4157 27.4158 39.2535 30.0955C38.2524 31.3362 38.119 33.026 38.9136 34.4003L43.8995 43.0242L41.9977 44.1222L37.5173 36.393C36.5766 34.7704 34.6099 34.0812 32.8409 34.7543C31.1228 35.4082 29.3111 35.7398 27.4563 35.7398C25.6666 35.7398 23.9152 35.4309 22.2507 34.822C20.4832 34.1754 19.2958 32.468 19.2958 30.5735V10.6257C19.2958 8.73179 20.4836 7.02432 22.2516 6.37688C23.9512 5.75447 25.7024 5.43891 27.4563 5.43891C29.9167 5.43891 32.2633 6.00994 34.4309 7.13607C36.5 8.211 38.3221 9.7771 39.7005 11.6649C39.9296 11.9786 40.3699 12.0473 40.6838 11.8183C40.9976 11.5891 41.0662 11.1489 40.8371 10.835C39.3314 8.77266 37.3405 7.06182 35.0797 5.88722C32.7431 4.67316 30.107 4.03154 27.4563 4.03154C25.5368 4.03154 23.6229 4.37597 21.7677 5.05529C19.4475 5.90504 17.8885 8.1436 17.8885 10.6257V30.5733C17.8885 33.0563 19.4473 35.2947 21.7672 36.1434C23.5871 36.8093 25.5012 37.1469 27.4563 37.1469C29.4829 37.1469 31.463 36.7844 33.3415 36.0695C34.4627 35.6427 35.7067 36.0757 36.2998 37.0988L40.779 44.8258L39.0508 45.8236L35.2761 39.2855C34.7827 38.4309 33.7819 38.0333 32.8419 38.3185C31.2277 38.8083 29.547 39.0744 27.8466 39.1096C25.2627 39.1628 22.7571 38.6997 20.398 37.733C20.0384 37.5855 19.6275 37.7576 19.48 38.1172C19.3327 38.4768 19.5047 38.8878 19.8643 39.0352C22.4029 40.0756 25.0987 40.575 27.8756 40.5166C29.7047 40.4788 31.5131 40.1923 33.2506 39.6653C33.5611 39.5709 33.8929 39.7043 34.0573 39.9892C34.0573 39.9892 37.9826 46.7881 37.984 46.7904C38.1814 47.1323 38.5473 47.3426 38.9415 47.3426C39.1327 47.3426 39.3214 47.2924 39.4914 47.1943L47.4486 42.6003C47.9753 42.296 48.1566 41.6199 47.8522 41.0929Z" fill="white"/>
<path d="M2.03064 23.7767L0.730606 24.5273C0.394044 24.7216 0.278731 25.1521 0.473075 25.4885C0.603388 25.7143 0.839919 25.8405 1.08311 25.8405C1.20245 25.8405 1.32348 25.81 1.43429 25.746L2.73432 24.9955C3.07089 24.8011 3.1862 24.3708 2.99186 24.0343C2.79751 23.6977 2.3672 23.5825 2.03064 23.7767Z" fill="white"/>
<path d="M2.73408 16.1146L1.43405 15.3641C1.09749 15.1697 0.667081 15.285 0.472831 15.6216C0.278487 15.9582 0.3938 16.3885 0.730362 16.5828L2.03039 17.3334C2.14121 17.3973 2.26224 17.4278 2.38158 17.4278C2.62477 17.4278 2.8613 17.3016 2.99161 17.0759C3.18605 16.7393 3.07074 16.309 2.73408 16.1146Z" fill="white"/>
<path d="M2.16975 21.2587C2.55834 21.2587 2.87344 20.9437 2.87344 20.555C2.87344 20.1663 2.55834 19.8513 2.16975 19.8513H0.703687C0.315094 19.8513 0 20.1663 0 20.555C0 20.9437 0.315094 21.2587 0.703687 21.2587H2.16975Z" fill="white"/>
</g>
<defs>
<clipPath id="clip0_307_329">
<rect width="48" height="48" fill="white"/>
</clipPath>
</defs>
</svg>
