<svg width="48" height="48" viewBox="0 0 48 48" fill="none" xmlns="http://www.w3.org/2000/svg">
<g clip-path="url(#clip0_307_337)">
<path d="M45.1977 30.4C45.204 29.6632 45.2825 28.9286 45.4321 28.207C46.3933 23.1502 46.8507 18.0107 46.7977 12.8637V3.19997C46.7959 1.43344 45.3643 0.00187548 43.5978 4.79886e-07H6.31491C5.28554 -0.00056202 4.3186 0.493407 3.71569 1.32778C2.27897 3.32775 1.19775 6.26878 1.19775 7.2C1.19775 7.97888 1.19775 9.6 3.59775 9.6C4.74928 9.6 5.19779 10.0484 5.19779 11.2C5.05407 11.8575 4.75125 12.4697 4.31578 12.9829C3.4321 14.0705 2.90232 15.4026 2.79779 16.8001C2.79779 18.9235 3.60563 20.0001 5.19779 20.0001C7.41422 20.0001 8.39775 17.1017 8.39775 16C8.39775 15.6043 8.39775 14.4 13.1978 14.4C23.1228 14.4 26.2658 18.8207 28.561 22.0484C29.9157 23.9543 31.086 25.5999 33.1977 25.5999C34.3907 25.5999 35.5977 24.5007 35.5977 22.4C35.5448 21.2463 35.1216 20.1403 34.3907 19.246C33.642 18.3274 33.2221 17.1847 33.1977 15.9999C33.1325 15.1145 33.4634 14.2458 34.1012 13.6282C34.739 13.0105 35.618 12.7078 36.5008 12.8016C38.2356 12.869 39.605 14.2987 39.5977 16.0347C39.5977 16.6387 39.6094 17.1085 39.6188 17.5109C39.6424 18.0739 39.6353 18.6378 39.5977 19.2C39.569 24.7805 39.1127 30.3505 38.2328 35.8613C37.7213 39.0559 37.3853 42.2761 37.2266 45.5075C37.2037 46.1595 37.4463 46.793 37.899 47.2628C38.3517 47.7327 38.9757 47.9987 39.6281 48H44.2024C44.886 48.0007 45.5375 47.7095 45.9928 47.1996C46.4482 46.6897 46.6643 46.0097 46.5867 45.3305C46.1696 41.6547 45.1977 32.8414 45.1977 30.4ZM44.7988 46.1338C44.6469 46.3034 44.43 46.4002 44.2024 46.4H39.6281C39.4114 46.4004 39.2039 46.3122 39.0539 46.1558C38.8999 45.997 38.8172 45.7823 38.825 45.5613C38.9831 42.3871 39.3143 39.224 39.8171 36.0859C40.7058 30.5222 41.1666 24.8985 41.1953 19.2644C41.2358 18.6682 41.2434 18.0701 41.2179 17.473C41.2086 17.0809 41.1976 16.6226 41.1976 16.034C41.1998 13.4305 39.1385 11.2936 36.5366 11.202C36.489 11.2008 36.4413 11.2 36.3937 11.2C35.1023 11.1358 33.8442 11.6211 32.9303 12.5357C32.0165 13.4503 31.5323 14.7088 31.5976 16C31.6211 17.5025 32.1355 18.956 33.0624 20.1387C33.6061 20.7743 33.9336 21.5662 33.9976 22.4001C33.9976 23.4391 33.5851 24.0001 33.1976 24.0001C31.9718 24.0001 31.1719 22.9598 29.8648 21.1212C27.5086 17.8075 23.9484 12.8002 13.1977 12.8002C10.218 12.8002 6.79763 13.1638 6.79763 16.0001C6.79763 16.5802 6.1336 18.4001 5.1976 18.4001C4.64447 18.4001 4.39763 18.1693 4.39763 16.8001C4.51379 15.7241 4.947 14.7068 5.64216 13.8774C6.28482 13.1197 6.6871 12.1875 6.79763 11.2001C6.88894 10.3267 6.58125 9.45853 5.96025 8.83753C5.33925 8.21653 4.47113 7.90884 3.59766 8.00016C2.79769 8.00016 2.79769 7.98534 2.79769 7.20094C3.21666 5.42841 3.96938 3.75188 5.01563 2.26106C5.31741 1.84491 5.80079 1.599 6.31482 1.60013H43.5976C44.4808 1.60116 45.1966 2.31694 45.1976 3.20016V12.8638C45.2504 17.9053 44.8034 22.9397 43.8632 27.8932C43.6927 28.7181 43.6037 29.5578 43.5976 30.4002C43.5976 32.8327 44.4742 40.9119 44.9976 45.512C45.0231 45.7379 44.9507 45.9642 44.7988 46.1338Z" fill="white"/>
<path d="M32.5193 33.2481C31.4431 32.7113 30.7727 31.6024 30.7974 30.4001C30.7974 26.5868 25.3545 22.4001 20.3974 22.4001C19.9404 22.4001 9.19739 22.4365 9.19739 25.6001C9.19739 26.3314 9.86218 26.9962 10.6318 27.7657C10.9525 28.0711 11.2524 28.3976 11.5293 28.7431C11.0205 28.7959 10.5087 28.8149 9.99736 28.8001C8.95833 28.8001 8.39733 28.388 8.39733 28.0001C8.39733 26.8075 7.29811 25.6001 5.19736 25.6001C4.41849 25.6001 2.79736 25.6001 2.79736 28.0001C2.80674 28.839 3.18511 29.6312 3.8318 30.1657C4.22396 30.558 4.39739 30.7505 4.39739 31.2002C4.34002 32.2641 4.04958 33.3026 3.54661 34.242C3.1178 35.0317 2.86233 35.9039 2.79736 36.8001C2.79736 41.1025 5.53646 41.6001 7.59736 41.6001C8.8808 41.6343 10.1487 41.8911 11.3443 42.3591C12.7025 42.8839 14.1417 43.1685 15.5974 43.2002C18.7427 43.2002 19.8591 44.8579 20.242 46.249C20.5309 47.2846 21.4746 48.0006 22.5498 48.0001H30.7975C32.1224 47.9987 33.1961 46.925 33.1975 45.6002V40.0002C33.2395 38.5907 33.4096 37.1879 33.7061 35.8092C33.906 34.7885 33.4272 33.7552 32.5193 33.2481ZM32.1373 35.4946C31.82 36.9768 31.6393 38.4849 31.5975 40V45.6001C31.597 46.0417 31.2391 46.3997 30.7975 46.4H22.5498C22.1945 46.4015 21.8816 46.1664 21.7843 45.8246C21.3507 44.2469 19.9702 41.5999 15.5975 41.5999C14.3141 41.5658 13.0462 41.3089 11.8506 40.8409C10.4924 40.3161 9.05321 40.0316 7.59746 39.9999C5.57086 39.9999 4.39749 39.4765 4.39749 36.7999C4.47511 36.1324 4.68174 35.4862 5.00611 34.8976C5.6078 33.7542 5.94652 32.4909 5.99752 31.1999C5.98814 30.361 5.60977 29.5688 4.96308 29.0343C4.57093 28.642 4.39749 28.4495 4.39749 27.9998C4.39749 27.1999 4.4123 27.1999 5.19746 27.1999C6.23649 27.1999 6.79749 27.612 6.79749 27.9998C6.79749 29.1924 7.89671 30.3998 9.99746 30.3998C11.6428 30.3998 13.1974 30.3998 13.1974 28.7998C13.1974 28.0685 12.5326 27.4037 11.7631 26.6342C11.4249 26.317 11.1133 25.9728 10.8311 25.6049C11.474 24.8657 15.8615 24.0001 20.3974 24.0001C24.763 24.0001 29.1975 27.7235 29.1975 30.4001C29.1782 32.1768 30.1561 33.8144 31.7295 34.6399C32.0358 34.8066 32.2004 35.1515 32.1373 35.4946Z" fill="white"/>
</g>
<defs>
<clipPath id="clip0_307_337">
<rect width="48" height="48" fill="white"/>
</clipPath>
</defs>
</svg>
