<svg width="48" height="48" viewBox="0 0 48 48" fill="none" xmlns="http://www.w3.org/2000/svg">
<path d="M41.2038 28.4595H38.1108C38.3195 28.0739 38.4245 27.6408 38.4154 27.2025C38.4064 26.7642 38.2837 26.3357 38.0593 25.9591C37.8348 25.5825 37.5164 25.2706 37.1353 25.0541C36.7541 24.8375 36.3232 24.7237 35.8848 24.7237H18.2755C17.6044 24.7245 16.9611 24.9915 16.4865 25.466C16.012 25.9405 15.7451 26.5839 15.7443 27.255V28.4595H15.1499C15.4701 28.0009 15.6584 27.4634 15.6944 26.9053C15.7304 26.3472 15.6128 25.79 15.3542 25.2941C15.0956 24.7982 14.7061 24.3827 14.2279 24.0927C13.7497 23.8027 13.2011 23.6494 12.6419 23.6494C12.0826 23.6494 11.5341 23.8027 11.0559 24.0927C10.5777 24.3827 10.1881 24.7982 9.92957 25.2941C9.67101 25.79 9.55334 26.3472 9.58936 26.9053C9.62539 27.4634 9.81372 28.0009 10.1339 28.4595H6.79639C6.62234 28.4595 6.45542 28.5286 6.33235 28.6517C6.20928 28.7748 6.14014 28.9417 6.14014 29.1157V33.957C6.14014 34.131 6.20928 34.2979 6.33235 34.421C6.45542 34.5441 6.62234 34.6132 6.79639 34.6132H9.61976L7.59476 41.0058C7.56356 41.1042 7.55599 41.2085 7.57267 41.3103C7.58935 41.4121 7.6298 41.5085 7.69074 41.5917C7.75168 41.6749 7.83139 41.7426 7.92339 41.7892C8.0154 41.8359 8.11711 41.8602 8.22026 41.8601H9.95464C10.0838 41.8601 10.21 41.8219 10.3176 41.7505C10.4252 41.6791 10.5094 41.5775 10.5595 41.4585L13.3611 34.7947C13.3772 35.3187 13.5557 35.8248 13.8719 36.2429C14.188 36.6611 14.6263 36.9707 15.1261 37.1289C15.6259 37.2872 16.1625 37.2862 16.6617 37.1262C17.161 36.9663 17.5982 36.6551 17.9129 36.2358L19.1185 34.6125H34.5633L37.4414 41.4577C37.4915 41.5767 37.5757 41.6783 37.6833 41.7497C37.7909 41.8212 37.9171 41.8593 38.0463 41.8594H39.7806C39.8838 41.8594 39.9855 41.8351 40.0775 41.7885C40.1695 41.7419 40.2492 41.6742 40.3102 41.591C40.3711 41.5077 40.4116 41.4113 40.4282 41.3095C40.4449 41.2077 40.4373 41.1034 40.4061 41.0051L38.3811 34.6125H41.2045C41.3786 34.6125 41.5455 34.5433 41.6686 34.4203C41.7916 34.2972 41.8608 34.1303 41.8608 33.9562V29.1157C41.8608 29.0295 41.8438 28.9441 41.8107 28.8644C41.7777 28.7847 41.7293 28.7124 41.6683 28.6514C41.6073 28.5905 41.5348 28.5421 41.4551 28.5092C41.3754 28.4763 41.29 28.4594 41.2038 28.4595ZM10.8963 26.7127C10.8963 26.3672 10.9987 26.0295 11.1907 25.7422C11.3826 25.455 11.6554 25.2311 11.9746 25.0989C12.2938 24.9667 12.6451 24.9321 12.9839 24.9996C13.3228 25.067 13.634 25.2334 13.8783 25.4777C14.1226 25.722 14.2889 26.0333 14.3562 26.3722C14.4236 26.711 14.389 27.0623 14.2567 27.3814C14.1244 27.7006 13.9005 27.9734 13.6132 28.1653C13.3259 28.3572 12.9881 28.4595 12.6426 28.4595C12.1796 28.4589 11.7357 28.2746 11.4083 27.9472C11.0809 27.6197 10.8968 27.1758 10.8963 26.7127ZM7.45226 29.772H15.7443V30.6611L13.8659 33.1927C13.8396 33.2276 13.8171 33.2647 13.7909 33.3007H7.45226V29.772ZM9.51739 40.5476H9.11576L10.9964 34.6125H12.0126L9.51739 40.5476ZM16.8606 35.4495C16.6661 35.7076 16.3771 35.8779 16.057 35.9229C15.737 35.9679 15.4122 35.8839 15.154 35.6895C14.8957 35.494 14.7257 35.2039 14.6812 34.883C14.6368 34.5621 14.7216 34.2367 14.917 33.9784L16.9278 31.269C17.0116 31.1558 17.0569 31.0187 17.0568 30.8779V27.255C17.0572 26.9319 17.1857 26.6221 17.4142 26.3936C17.6426 26.1652 17.9524 26.0366 18.2755 26.0362H35.8848C36.1949 26.0362 36.4934 26.1548 36.719 26.3676C36.9446 26.5805 37.0804 26.8715 37.0984 27.1812C37.1165 27.4908 37.0155 27.7957 36.8162 28.0333C36.6168 28.2709 36.3342 28.4234 36.0261 28.4595H20.1501C19.9761 28.4595 19.8092 28.5286 19.6861 28.6517C19.563 28.7748 19.4939 28.9417 19.4939 29.1157V29.1247V29.13V31.5052C19.4931 31.7712 19.4062 32.0297 19.246 32.2421L16.8606 35.4495ZM38.884 40.5495H38.4824L35.9871 34.6125H37.0034L38.884 40.5495ZM40.5475 33.3H20.0946L20.2971 33.0273C20.6268 32.588 20.8056 32.0538 20.8068 31.5045V29.772H40.5475V33.3Z" fill="white"/>
<path d="M6.7959 7.45241H23.3435V8.72741H23.2123C23.0383 8.72751 22.8714 8.79668 22.7483 8.91973C22.6253 9.04278 22.5561 9.20964 22.556 9.38366V11.2163H21.2938C21.1401 11.2163 20.9912 11.2702 20.8732 11.3687C20.7552 11.4672 20.6755 11.6039 20.648 11.7552L19.6636 17.1619H19.5346C19.4485 17.1619 19.3631 17.1788 19.2835 17.2118C19.2038 17.2447 19.1314 17.2931 19.0705 17.354C19.0096 17.415 18.9612 17.4873 18.9283 17.567C18.8953 17.6466 18.8783 17.732 18.8784 17.8182V20.0734C18.8783 20.1596 18.8953 20.245 18.9283 20.3246C18.9612 20.4042 19.0096 20.4766 19.0705 20.5376C19.1314 20.5985 19.2038 20.6468 19.2835 20.6798C19.3631 20.7128 19.4485 20.7297 19.5346 20.7297H20.7481C20.8997 21.4803 21.3064 22.1554 21.899 22.6404C22.4917 23.1254 23.234 23.3903 23.9998 23.3903C24.7656 23.3903 25.5078 23.1254 26.1005 22.6404C26.6932 22.1554 27.0998 21.4803 27.2514 20.7297H28.4649C28.5511 20.7297 28.6364 20.7128 28.7161 20.6798C28.7957 20.6468 28.8681 20.5985 28.929 20.5376C28.99 20.4766 29.0383 20.4042 29.0713 20.3246C29.1043 20.245 29.1212 20.1596 29.1211 20.0734V17.8182C29.1212 17.732 29.1043 17.6466 29.0713 17.567C29.0383 17.4873 28.99 17.415 28.929 17.354C28.8681 17.2931 28.7957 17.2447 28.7161 17.2118C28.6364 17.1788 28.5511 17.1619 28.4649 17.1619H28.3359L27.3515 11.7552C27.324 11.6039 27.2443 11.4672 27.1263 11.3687C27.0083 11.2702 26.8595 11.2163 26.7058 11.2163H25.4454V9.38291C25.4453 9.20889 25.3761 9.04203 25.2531 8.91898C25.13 8.79593 24.9632 8.72676 24.7892 8.72666H24.656V7.45166H41.2036C41.3777 7.45166 41.5446 7.38252 41.6677 7.25945C41.7908 7.13638 41.8599 6.96946 41.8599 6.79541C41.8599 6.62136 41.7908 6.45444 41.6677 6.33137C41.5446 6.2083 41.3777 6.13916 41.2036 6.13916H6.7959C6.62185 6.13916 6.45493 6.2083 6.33186 6.33137C6.20879 6.45444 6.13965 6.62136 6.13965 6.79541C6.13965 6.96946 6.20879 7.13638 6.33186 7.25945C6.45493 7.38252 6.62185 7.45166 6.7959 7.45166V7.45241ZM23.9998 22.0782C23.5842 22.0767 23.1795 21.9459 22.8416 21.704C22.5038 21.4621 22.2496 21.121 22.1143 20.7282H25.8853C25.75 21.121 25.4958 21.4621 25.1579 21.704C24.8201 21.9459 24.4153 22.0767 23.9998 22.0782ZM27.8086 19.4157H20.1909V18.4744H27.8086V19.4157ZM27.002 17.1604H20.9975L21.8413 12.5273H26.1583L27.002 17.1604ZM23.8666 11.2163V10.0392H24.1329V11.2163H23.8666Z" fill="white"/>
</svg>
