<svg width="16" height="16" viewBox="0 0 16 16" fill="none" xmlns="http://www.w3.org/2000/svg">
<path d="M7.99983 0C4.74073 0 2.08936 2.65137 2.08936 5.91047C2.08936 6.9834 2.57054 8.13733 2.5907 8.18601C2.74611 8.55489 3.05276 9.12786 3.27388 9.46371L7.32638 15.604C7.49222 15.8557 7.73768 16 7.99983 16C8.26198 16 8.50744 15.8557 8.67328 15.6043L12.7261 9.46371C12.9476 9.12786 13.2539 8.55489 13.4093 8.18601C13.4295 8.13768 13.9103 6.98375 13.9103 5.91047C13.9103 2.65137 11.2589 0 7.99983 0ZM12.7682 7.91621C12.6295 8.24685 12.344 8.77983 12.1455 9.08092L8.09266 15.2216C8.01269 15.3429 7.98731 15.3429 7.90735 15.2216L3.8545 9.08092C3.65598 8.77983 3.37054 8.2465 3.23182 7.91586C3.2259 7.90161 2.78471 6.83946 2.78471 5.91047C2.78471 3.03485 5.12421 0.69535 7.99983 0.69535C10.8755 0.69535 13.215 3.03485 13.215 5.91047C13.215 6.84085 12.7727 7.90578 12.7682 7.91621Z" fill="white"/>
<path d="M7.99992 2.78174C6.27441 2.78174 4.87085 4.18565 4.87085 5.91081C4.87085 7.63598 6.27441 9.03989 7.99992 9.03989C9.72543 9.03989 11.129 7.63598 11.129 5.91081C11.129 4.18565 9.72543 2.78174 7.99992 2.78174ZM7.99992 8.34454C6.65824 8.34454 5.5662 7.25284 5.5662 5.91081C5.5662 4.56879 6.65824 3.47709 7.99992 3.47709C9.3416 3.47709 10.4336 4.56879 10.4336 5.91081C10.4336 7.25284 9.3416 8.34454 7.99992 8.34454Z" fill="white"/>
</svg>
