<svg width="18" height="18" viewBox="0 0 18 18" fill="none" xmlns="http://www.w3.org/2000/svg">
<path d="M9.00001 0C5.69167 0 3 2.69167 3 6.00001C3 6.99318 3.24831 7.9779 3.72035 8.85132L8.6719 17.8066C8.73782 17.926 8.86343 18 9.00001 18C9.13659 18 9.26221 17.926 9.32812 17.8066L14.2815 8.84837C14.7517 7.9779 15 6.99314 15 5.99998C15 2.69167 12.3084 0 9.00001 0ZM9.00001 9C7.34584 9 6.00002 7.65418 6.00002 6.00001C6.00002 4.34584 7.34584 3.00002 9.00001 3.00002C10.6542 3.00002 12 4.34584 12 6.00001C12 7.65418 10.6542 9 9.00001 9Z" fill="#39A2DB"/>
</svg>
