<svg width="48" height="48" viewBox="0 0 48 48" fill="none" xmlns="http://www.w3.org/2000/svg">
<g clip-path="url(#clip0_307_248)">
<path d="M43.9858 0C41.7776 0.00273438 39.9886 1.7918 39.9858 4V47.2C39.9858 47.6418 40.344 48 40.7858 48C44.7604 47.9957 47.9815 44.7746 47.9858 40.8V32.8C47.9847 31.7832 47.344 30.877 46.3858 30.5367V28.8H47.1858C47.6276 28.8 47.9858 28.4418 47.9858 28V4C47.9831 1.7918 46.194 0.00273438 43.9858 0ZM43.9858 1.6C45.3112 1.6 46.3858 2.67461 46.3858 4V17.6H43.9858C43.544 17.6 43.1858 17.9582 43.1858 18.4C43.1858 18.8418 43.544 19.2 43.9858 19.2H46.3858V20.8H41.5858V4C41.5858 2.67461 42.6604 1.6 43.9858 1.6ZM46.3858 24H41.5858V22.4H46.3858V24ZM45.5858 32C46.0276 32 46.3858 32.3582 46.3858 32.8V40.8C46.3823 43.5824 44.3394 45.9418 41.5858 46.3434V28.8H44.7858V31.2C44.7858 31.6418 45.144 32 45.5858 32ZM45.5858 27.2H41.5858V25.6H46.3858V27.2H45.5858Z" fill="white"/>
<path d="M43.986 35.2C43.5442 35.2 43.186 35.5582 43.186 36V40.8C43.186 41.2417 43.5442 41.6 43.986 41.6C44.4278 41.6 44.786 41.2417 44.786 40.8V36C44.786 35.5582 44.4278 35.2 43.986 35.2Z" fill="white"/>
<path d="M29.33 36.8719C28.6944 36.964 28.08 37.168 27.5155 37.4734L20.1066 17.1199C20.3651 17.0254 20.5941 16.8641 20.7706 16.6527C20.9007 16.5602 20.9995 16.4305 21.0546 16.2809L24.2546 7.48477C25.3085 4.57892 23.8112 1.36837 20.9073 0.307827C20.7077 0.235952 20.4882 0.245718 20.2956 0.33439C20.103 0.424233 19.9546 0.586343 19.8819 0.785561L17.8722 6.30548L15.8628 0.785561C15.7905 0.585952 15.6417 0.423062 15.4495 0.332827C15.2569 0.242984 15.0366 0.233218 14.837 0.305484C11.9335 1.36603 10.4362 4.57657 11.4898 7.48243L15.3179 18L8.23468 37.4734C7.66983 37.168 7.05577 36.964 6.42022 36.8719C3.52608 36.4433 0.789365 38.3152 0.139755 41.1679C-0.509854 44.0207 1.14601 46.8929 3.94015 47.7601C4.45851 47.9195 4.99796 48.0004 5.54015 48C7.96202 47.9683 10.1062 46.4281 10.9089 44.1433L12.7601 39.0566L15.0163 39.8785C15.4284 40.0195 15.878 39.8047 16.0269 39.3953C16.1761 38.9855 15.9698 38.532 15.5636 38.3754L13.3073 37.5535L17.8675 25.0176L22.4273 37.5535L20.173 38.3754C19.7698 38.534 19.5663 38.9855 19.7144 39.3929C19.8624 39.8 20.3081 40.0156 20.7194 39.8785L22.9753 39.0574L24.8257 44.1433C25.6304 46.4308 27.7792 47.9718 30.2042 48C30.7464 48.0004 31.2858 47.9195 31.8042 47.7601C34.5987 46.8929 36.2546 44.0207 35.6046 41.1679C34.955 38.3152 32.2187 36.4433 29.3241 36.8719H29.33ZM21.0866 2.16017C22.7046 3.15626 23.4003 5.15196 22.753 6.93829L20.4284 13.3246L18.7257 8.64805L21.0866 2.16017ZM9.40968 43.6C8.69171 45.6511 6.51163 46.8 4.41397 46.232C2.41593 45.614 1.23116 43.5613 1.69601 41.5222C2.16046 39.4832 4.11749 38.1461 6.18585 38.4543C6.90108 38.5594 7.57335 38.8601 8.12843 39.323C8.32882 39.4887 8.59679 39.5461 8.84757 39.4781C9.09835 39.4097 9.29991 39.2242 9.38897 38.9801L16.1722 20.3398L17.0257 22.6824L9.40968 43.6ZM33.837 43.9863C33.3737 45.0664 32.4589 45.8879 31.3355 46.2328C29.2374 46.8004 27.0569 45.6515 26.3386 43.6L24.2187 37.7734V37.7625L24.2148 37.7512L12.9964 6.93985C12.348 5.15314 13.0441 3.15665 14.6628 2.16017L19.5593 15.616C18.7292 15.9188 18.3015 16.8371 18.6042 17.6672L26.3644 38.9785C26.4534 39.2222 26.655 39.4078 26.9054 39.4758C27.1558 39.5441 27.4237 39.4867 27.6241 39.3215C28.1796 38.8582 28.8519 38.5578 29.5675 38.4527C31.0023 38.2363 32.4421 38.8144 33.3292 39.9629C34.2163 41.1113 34.412 42.65 33.8401 43.984L33.837 43.9863Z" fill="white"/>
<path d="M31.3912 41.109C30.9756 41.259 30.7608 41.718 30.9115 42.1336C31.0627 42.5488 30.8487 43.0082 30.4334 43.1598C30.0182 43.3109 29.5588 43.0969 29.4073 42.6816C29.3346 42.482 29.3444 42.2613 29.4342 42.0687C29.5244 41.8762 29.6873 41.7273 29.8873 41.6551C30.1612 41.5613 30.3631 41.3269 30.4155 41.0422C30.4674 40.7574 30.3615 40.4668 30.1385 40.282C29.9155 40.0976 29.6104 40.0476 29.3401 40.1519C28.0948 40.6055 27.4522 41.9824 27.9057 43.2281C28.3588 44.4738 29.7362 45.116 30.9819 44.6625C32.2272 44.2094 32.8694 42.832 32.4162 41.5863C32.2647 41.1719 31.8061 40.9582 31.3912 41.109Z" fill="white"/>
<path d="M7.36472 42.2032C7.16511 42.1305 6.94479 42.1407 6.75222 42.2305C6.56003 42.3207 6.4112 42.4836 6.33893 42.6832C6.18854 43.0989 5.72956 43.3137 5.31432 43.1633C4.8987 43.0125 4.68464 42.5532 4.83542 42.1379C4.9862 41.7227 5.44518 41.5082 5.86042 41.6594C6.12956 41.759 6.43151 41.7071 6.65183 41.5235C6.87175 41.3395 6.97683 41.0516 6.92643 40.7692C6.87643 40.4868 6.67878 40.2528 6.40847 40.1559C5.16315 39.7028 3.78581 40.345 3.33229 41.5903C2.87917 42.836 3.52135 44.2133 4.76706 44.6665C6.01237 45.12 7.38972 44.4778 7.84284 43.2321C7.91667 43.0321 7.90769 42.8114 7.81784 42.618C7.728 42.425 7.56472 42.2758 7.36472 42.2032Z" fill="white"/>
</g>
<defs>
<clipPath id="clip0_307_248">
<rect width="48" height="48" fill="white"/>
</clipPath>
</defs>
</svg>
