<svg width="48" height="48" viewBox="0 0 48 48" fill="none" xmlns="http://www.w3.org/2000/svg">
<g clip-path="url(#clip0_307_343)">
<path d="M45.5999 0H2.39994C1.03575 0.0435325 -0.0368553 1.18121 -5.73825e-05 2.5456V37.4544C-0.0368553 38.8188 1.03575 39.9565 2.39994 40H16.3055L14.7055 43.2H11.9999C10.6745 43.2 9.59994 44.2745 9.59994 45.6C9.59994 46.9255 10.6745 48 11.9999 48H35.9999C37.3254 48 38.3999 46.9255 38.3999 45.6C38.3999 44.2745 37.3254 43.2 35.9999 43.2H33.2943L31.6943 40H45.5999C46.9641 39.9565 48.0367 38.8188 47.9999 37.4544V2.5456C48.0367 1.18121 46.9641 0.0435325 45.5999 0V0ZM36.7999 45.6C36.7999 46.0418 36.4418 46.4 35.9999 46.4H11.9999C11.5581 46.4 11.1999 46.0418 11.1999 45.6C11.1999 45.1582 11.5581 44.8 11.9999 44.8H35.9999C36.4418 44.8 36.7999 45.1582 36.7999 45.6ZM31.5055 43.2H16.4943L18.0943 40H29.9055L31.5055 43.2ZM45.5999 38.4H2.39994C1.92265 38.3507 1.56948 37.9333 1.59994 37.4544V35.2H4.79994C5.24177 35.2 5.59994 34.8418 5.59994 34.4C5.59994 33.9582 5.24177 33.6 4.79994 33.6H1.59994V2.5456C1.56948 2.06674 1.92265 1.64929 2.39994 1.6H45.5999C46.0772 1.64929 46.4304 2.06674 46.3999 2.5456V33.6H7.99994C7.55812 33.6 7.19994 33.9582 7.19994 34.4C7.19994 34.8418 7.55812 35.2 7.99994 35.2H46.3999V37.4544C46.4304 37.9333 46.0772 38.3507 45.5999 38.4Z" fill="white"/>
<path d="M4.0002 8.00007C4.44202 8.00007 4.8002 7.6419 4.8002 7.20007V4.80007H7.2002C7.64202 4.80007 8.0002 4.4419 8.0002 4.00007C8.0002 3.55825 7.64202 3.20007 7.2002 3.20007H4.0002C3.55837 3.20007 3.2002 3.55825 3.2002 4.00007V7.20007C3.2002 7.6419 3.55837 8.00007 4.0002 8.00007Z" fill="white"/>
<path d="M8.0002 31.2001C8.0002 30.7582 7.64202 30.4001 7.2002 30.4001H4.8002V28.0001C4.8002 27.5582 4.44202 27.2001 4.0002 27.2001C3.55837 27.2001 3.2002 27.5582 3.2002 28.0001V31.2001C3.2002 31.6419 3.55837 32.0001 4.0002 32.0001H7.2002C7.64202 32.0001 8.0002 31.6419 8.0002 31.2001Z" fill="white"/>
<path d="M44 27.2001C43.5582 27.2001 43.2 27.5582 43.2 28.0001V30.4001H40.8C40.3582 30.4001 40 30.7582 40 31.2001C40 31.6419 40.3582 32.0001 40.8 32.0001H44C44.4418 32.0001 44.8 31.6419 44.8 31.2001V28.0001C44.8 27.5582 44.4418 27.2001 44 27.2001Z" fill="white"/>
<path d="M40.8 4.80007H43.2V7.20007C43.2 7.6419 43.5582 8.00007 44 8.00007C44.4418 8.00007 44.8 7.6419 44.8 7.20007V4.00007C44.8 3.55825 44.4418 3.20007 44 3.20007H40.8C40.3582 3.20007 40 3.55825 40 4.00007C40 4.4419 40.3582 4.80007 40.8 4.80007Z" fill="white"/>
<path d="M6.40546 20.8361C6.43965 21.2683 6.64921 21.6678 6.98546 21.9417C16.8902 30.0195 31.1095 30.0195 41.0143 21.9417C41.3505 21.6678 41.5601 21.2683 41.5943 20.8361C41.6302 20.3977 41.4881 19.9634 41.1999 19.6313L31.5455 8.56006C30.9959 7.9277 30.0529 7.82327 29.3783 8.32006C27.8593 9.5798 25.9711 10.31 23.9999 10.4001C22.0276 10.3081 20.1391 9.57561 18.6207 8.31366C17.9463 7.81697 17.0036 7.92141 16.4543 8.55366L6.79986 19.6313C6.51141 19.9633 6.3692 20.3977 6.40546 20.8361ZM17.6607 9.59366C21.9167 12.7873 26.0831 12.7713 30.3391 9.60886L39.9935 20.6833L40.0015 20.7025C35.4811 24.3846 29.8301 26.3967 23.9999 26.4C18.1682 26.4003 12.5165 24.3801 8.00626 20.6833L17.6607 9.59366Z" fill="white"/>
</g>
<defs>
<clipPath id="clip0_307_343">
<rect width="48" height="48" fill="white"/>
</clipPath>
</defs>
</svg>
