<svg width="18" height="18" viewBox="0 0 18 18" fill="none" xmlns="http://www.w3.org/2000/svg">
<g clip-path="url(#clip0_131_1087)">
<path d="M16.928 7.39465L2.40516 1.36851C1.79334 1.11461 1.10213 1.22631 0.601328 1.65985C0.100527 2.09347 -0.108934 2.76158 0.0547532 3.40343L1.34741 8.47268H7.67646C7.9677 8.47268 8.20384 8.70879 8.20384 9.00006C8.20384 9.29129 7.96773 9.52743 7.67646 9.52743H1.34741L0.0547532 14.5966C-0.108934 15.2385 0.100491 15.9066 0.601328 16.3402C1.10315 16.7746 1.79443 16.885 2.4052 16.6316L16.9281 10.6055C17.5893 10.3311 18 9.71594 18 9.00006C18 8.28417 17.5893 7.66897 16.928 7.39465Z" fill="#39A2DB"/>
</g>
<defs>
<clipPath id="clip0_131_1087">
<rect width="18" height="18" fill="white"/>
</clipPath>
</defs>
</svg>
