<svg width="48" height="48" viewBox="0 0 48 48" fill="none" xmlns="http://www.w3.org/2000/svg">
<path d="M32 3.99997C28.5673 3.99997 24.9585 5.91932 23.1622 9.99997H21.9999C19.7949 9.99997 18 8.20597 18 5.99994C18 5.75778 17.9121 5.52341 17.7519 5.34172C17.6328 5.204 16.5058 3.99988 14 3.99988C11.4941 3.99988 10.3672 5.204 10.248 5.34172C10.0879 5.52341 9.99994 5.75778 9.99994 5.99994C9.99994 12.6171 15.3828 17.9999 21.9999 17.9999H22.3919C22.79 19.097 23.4703 20.0819 24.4277 20.7929C24.207 21.6006 24.0956 22.4043 24.0956 23.1895C24.0956 24.4033 24.3378 25.5918 24.8182 26.7334C23.58 27.4405 22.6542 28.6143 22.2479 30.001C19.3143 30.0342 17.0545 30.6475 15.6483 31.7344C14.5057 31.0616 12.0584 30 7.99988 30C2.99025 29.9999 0 34.8593 0 43C0 43.5527 0.447281 44 1.00003 44H5.00006C5.55281 44 6.00009 43.5527 6.00009 43C6.00009 38.6054 6.96103 38 8.00006 38C8.75006 38 8.89462 38.1836 9.24225 38.627C9.67191 39.1739 10.3204 40.0001 12.0001 40.0001H14.6427C15.8048 40.9141 20.1564 44.0001 26.0002 44.0001C33.6094 43.9999 48 39.8203 48 23.9999C48 7.59275 36.4512 3.99997 32 3.99997ZM22 16C16.6446 16 12.2578 11.7675 12.0117 6.47169C12.3379 6.27153 12.9727 6.00003 14 6.00003C15.0664 6.00003 15.7089 6.293 16.0195 6.48828C16.2696 9.56938 18.8555 12 22 12H22.4736C22.1723 13.1937 22 14.5218 22 16ZM26 41.9999C20.0566 41.9999 15.6992 38.2831 15.6562 38.2451C15.4746 38.0878 15.2402 37.9999 15 37.9999H12C11.2929 37.9999 11.1543 37.8222 10.8164 37.3915C10.3808 36.8368 9.72262 35.9999 7.99997 35.9999C4.54875 35.9999 4.07419 39.6523 4.00969 41.9999H2.01956C2.14847 38.7295 3.02344 31.9999 8.00006 31.9999C11.3243 31.9999 13.3673 32.7831 14.3594 33.3056C14.1231 33.8183 14.0001 34.3846 14.0001 34.9999C14.0001 35.5527 14.4473 35.9999 15.0001 35.9999C15.5528 35.9999 16.0001 35.5527 16.0001 34.9999C16.0001 34.5126 16.1622 34.0947 16.4513 33.7392C16.469 33.7215 16.4865 33.7031 16.5041 33.6835C16.5256 33.6581 16.5471 33.6317 16.5667 33.6054C17.6545 32.4452 20.1389 31.9999 22.5003 31.9999C22.5803 31.9999 22.6585 32.0087 22.7366 32.0156L23.0081 32.0361C23.5179 32.0761 23.9867 31.6738 24.0472 31.1543C24.2112 29.7627 25.1624 28.5957 26.471 28.1806C26.7562 28.0898 26.9866 27.8759 27.098 27.5976C27.2074 27.3193 27.1878 27.0058 27.0433 26.7431C26.4144 25.6073 26.0961 24.412 26.0961 23.1894C26.0961 22.3759 26.2464 21.5624 26.5531 20.703C26.7191 20.2401 26.5238 19.7255 26.0921 19.4892C24.8008 18.7812 24 17.4443 24 16C24 9.12885 28.1465 5.99994 32 5.99994C35.8945 5.99994 45.9999 9.23338 45.9999 23.9999C46 38.2382 32.918 41.9999 26 41.9999Z" fill="white"/>
</svg>
