<svg width="48" height="48" viewBox="0 0 48 48" fill="none" xmlns="http://www.w3.org/2000/svg">
<g clip-path="url(#clip0_307_301)">
<path d="M2.4 48H6.4C7.07879 47.9979 7.72461 47.707 8.176 47.2H28.24C29.4138 47.2004 30.565 46.8774 31.5672 46.2664L46.56 37.1392C47.8621 36.3471 48.3614 34.7033 47.7199 33.3207C47.0785 31.9382 45.5008 31.258 44.0552 31.7408C27.3768 37.3016 29.2448 36.8 28.0312 36.8C29.0008 34.1104 26.576 31.2 23.5456 31.2H19.36C17.8842 31.1982 16.4526 30.696 15.2992 29.7752C13.862 28.6286 12.0786 28.0028 10.24 28H8.6528C8.315 27.0445 7.41343 26.4042 6.4 26.4H2.4C1.07452 26.4 0 27.4745 0 28.8V45.6C0 46.9255 1.07452 48 2.4 48ZM14.3 31.0248C15.7374 32.1716 17.5211 32.7974 19.36 32.8H23.5448C25.6672 32.8 27.5096 35.0984 26.2408 36.8H21.38C19.8003 36.7985 18.2558 37.2663 16.9424 38.144L16.356 38.5344C15.9884 38.7796 15.8892 39.2764 16.1344 39.644C16.3796 40.0116 16.8764 40.1108 17.244 39.8656C18.4216 38.9312 19.8768 38.4155 21.38 38.4C28.9864 38.4 28.9216 38.472 29.756 38.1952L44.5648 33.2584C45.0351 33.1012 45.5535 33.2057 45.9261 33.5329C46.2987 33.86 46.4694 34.3605 46.3744 34.8472C46.3026 35.2326 46.0698 35.5691 45.7344 35.772L30.736 44.9C29.9839 45.3578 29.1205 45.6 28.24 45.6H8.8V29.6C10.6176 29.6 12.344 29.46 14.3 31.0248ZM1.6 28.8C1.6 28.3582 1.95817 28 2.4 28H6.4C6.84183 28 7.2 28.3582 7.2 28.8V45.6C7.2 46.0418 6.84183 46.4 6.4 46.4H2.4C1.95817 46.4 1.6 46.0418 1.6 45.6V28.8Z" fill="white"/>
<path d="M30.3999 3.22877L30.0951 2.92797C26.1153 -0.964486 19.7549 -0.964486 15.7751 2.92797C13.8743 4.7934 12.8035 7.34476 12.8035 10.008C12.8035 12.6712 13.8743 15.2225 15.7751 17.088L29.8399 30.9696C30.151 31.2745 30.6488 31.2745 30.9599 30.9696L45.0279 17.0904C46.9299 15.2256 48.0016 12.674 48.0016 10.0104C48.0016 7.34675 46.9299 4.79515 45.0279 2.93037C41.3639 -0.688827 35.0479 -1.35363 30.3999 3.22877ZM43.9047 15.9488L30.3999 29.28L16.8951 15.9512C15.2982 14.3863 14.3983 12.2446 14.3983 10.0088C14.3983 7.77296 15.2982 5.63124 16.8951 4.06637C20.2512 0.77991 25.619 0.77991 28.9751 4.06637L29.8399 4.92237C30.1515 5.22991 30.6523 5.22991 30.9639 4.92237L31.8311 4.06637C35.1872 0.77991 40.555 0.77991 43.9111 4.06637C45.5072 5.6321 46.4059 7.77431 46.4047 10.0101C46.4035 12.2459 45.5024 14.3872 43.9047 15.9512V15.9488Z" fill="white"/>
<path d="M42.9661 8.23435C42.6537 7.92205 42.1473 7.92205 41.8349 8.23435L40.8005 9.26875L39.7661 8.23435C39.4522 7.93117 38.9533 7.93551 38.6447 8.2441C38.3361 8.55268 38.3318 9.05165 38.6349 9.36555L39.6693 10.3999L37.6005 12.4687L36.5661 11.4343C36.2522 11.1312 35.7533 11.1355 35.4447 11.4441C35.1361 11.7527 35.1318 12.2516 35.4349 12.5655L36.4693 13.5999L35.4349 14.6343C35.2062 14.8631 35.1378 15.2072 35.2616 15.5061C35.3854 15.805 35.677 15.9999 36.0005 15.9999C36.4405 15.9999 36.5493 15.7823 37.6005 14.7311L38.6349 15.7655C38.8358 15.9735 39.1332 16.0569 39.4129 15.9837C39.6926 15.9105 39.9111 15.6921 39.9843 15.4124C40.0575 15.1326 39.9741 14.8352 39.7661 14.6343L38.7317 13.5999L40.8005 11.5311L41.8349 12.5655C42.0358 12.7735 42.3332 12.8569 42.6129 12.7837C42.8926 12.7105 43.1111 12.4921 43.1843 12.2124C43.2575 11.9327 43.1741 11.6352 42.9661 11.4343L41.9317 10.3999L42.9661 9.36555C43.2784 9.05315 43.2784 8.54675 42.9661 8.23435Z" fill="white"/>
</g>
<defs>
<clipPath id="clip0_307_301">
<rect width="48" height="48" fill="white"/>
</clipPath>
</defs>
</svg>
