<svg width="48" height="48" viewBox="0 0 48 48" fill="none" xmlns="http://www.w3.org/2000/svg">
<path d="M21.5998 7.99995H26.3998C26.8416 7.99995 27.1998 7.64175 27.1998 7.19995V3.99995C27.1998 3.55815 26.8416 3.19995 26.3998 3.19995H21.5998C21.158 3.19995 20.7998 3.55815 20.7998 3.99995V7.19995C20.7998 7.64175 21.158 7.99995 21.5998 7.99995ZM22.3998 4.79995H25.5998V6.39995H22.3998V4.79995Z" fill="white"/>
<path d="M21.5998 14.4H26.3998C26.8416 14.4 27.1998 14.0418 27.1998 13.6V10.4C27.1998 9.95818 26.8416 9.59998 26.3998 9.59998H21.5998C21.158 9.59998 20.7998 9.95818 20.7998 10.4V13.6C20.7998 14.0418 21.158 14.4 21.5998 14.4ZM22.3998 11.2H25.5998V12.8H22.3998V11.2Z" fill="white"/>
<path d="M21.5998 20.8H26.3998C26.8416 20.8 27.1998 20.4418 27.1998 20V16.8C27.1998 16.3582 26.8416 16 26.3998 16H21.5998C21.158 16 20.7998 16.3582 20.7998 16.8V20C20.7998 20.4418 21.158 20.8 21.5998 20.8ZM22.3998 17.6H25.5998V19.2H22.3998V17.6Z" fill="white"/>
<path d="M21.5998 27.2H26.3998C26.8416 27.2 27.1998 26.8418 27.1998 26.4V23.2C27.1998 22.7582 26.8416 22.4 26.3998 22.4H21.5998C21.158 22.4 20.7998 22.7582 20.7998 23.2V26.4C20.7998 26.8418 21.158 27.2 21.5998 27.2ZM22.3998 24H25.5998V25.6H22.3998V24Z" fill="white"/>
<path d="M21.5998 33.6H26.3998C26.8416 33.6 27.1998 33.2418 27.1998 32.8V29.6C27.1998 29.1583 26.8416 28.8 26.3998 28.8H21.5998C21.158 28.8 20.7998 29.1583 20.7998 29.6V32.8C20.7998 33.2418 21.158 33.6 21.5998 33.6ZM22.3998 30.4H25.5998V32H22.3998V30.4Z" fill="white"/>
<path d="M21.5998 40H26.3998C26.8416 40 27.1998 39.6417 27.1998 39.2V36C27.1998 35.5582 26.8416 35.2 26.3998 35.2H21.5998C21.158 35.2 20.7998 35.5582 20.7998 36V39.2C20.7998 39.6417 21.158 40 21.5998 40ZM22.3998 36.8H25.5998V38.4H22.3998V36.8Z" fill="white"/>
<path d="M10.1704 11.1664L18.1704 13.5664C18.245 13.5887 18.3224 13.6 18.4001 13.6C18.7974 13.6 19.1341 13.309 19.1919 12.916C19.2493 12.523 19.0103 12.1476 18.6298 12.0336L11.6697 9.94491L12.6697 8.44413C12.915 8.07655 12.8158 7.57968 12.4482 7.33436C12.0806 7.08905 11.5837 7.18827 11.3384 7.55585L9.73841 9.95585C9.59778 10.1672 9.56536 10.4324 9.6513 10.6711C9.73724 10.9098 9.93138 11.0937 10.1743 11.1664H10.1704Z" fill="white"/>
<path d="M8.54726 18.3593L18.1473 21.5593C18.5668 21.6988 19.0203 21.4718 19.1601 21.0519C19.2996 20.6324 19.0726 20.1789 18.6527 20.039L10.0465 17.1718L11.0656 15.6441C11.3109 15.2765 11.2117 14.7796 10.8441 14.5343C10.4766 14.289 9.97968 14.3882 9.73437 14.7558L8.13437 17.1558C7.99726 17.3632 7.96406 17.6226 8.04492 17.8578C8.12578 18.0929 8.31133 18.2769 8.54726 18.3558V18.3593Z" fill="white"/>
<path d="M6.93092 25.5535L18.1309 29.5535C18.2173 29.584 18.3083 29.6 18.3997 29.6C18.7891 29.6 19.1219 29.3199 19.1883 28.9363C19.2548 28.5527 19.0352 28.177 18.6684 28.0465L8.43327 24.391L9.4653 22.8442C9.71061 22.4766 9.61139 21.9797 9.24381 21.7344C8.87623 21.4891 8.37936 21.5883 8.13405 21.9559L6.53405 24.3559C6.39655 24.5617 6.36178 24.8192 6.43991 25.0539C6.51803 25.2887 6.70045 25.4742 6.93405 25.5559L6.93092 25.5535Z" fill="white"/>
<path d="M29.6004 13.6C29.6781 13.5996 29.7554 13.5883 29.8301 13.5664L37.8301 11.1664C38.073 11.0937 38.2672 10.9098 38.3531 10.6711C38.4391 10.4324 38.4066 10.1672 38.266 9.95585L36.666 7.55585C36.4207 7.18827 35.9238 7.08905 35.5562 7.33436C35.1887 7.57968 35.0894 8.07655 35.3348 8.44413L36.3348 9.94491L29.3746 12.0336C28.9949 12.1472 28.7558 12.5219 28.8125 12.914C28.8687 13.3062 29.2039 13.598 29.6004 13.6Z" fill="white"/>
<path d="M29.6 21.5999C29.6859 21.5999 29.771 21.5863 29.8527 21.5593L39.4527 18.3593C39.6886 18.28 39.8742 18.096 39.955 17.8609C40.0359 17.6257 40.0027 17.3663 39.8656 17.1593L38.2656 14.7593C38.0203 14.3913 37.5234 14.2925 37.1558 14.5374C36.7882 14.7827 36.689 15.2796 36.9343 15.6472L37.9535 17.1753L29.3472 20.0406C28.9746 20.1644 28.7468 20.5406 28.8097 20.9281C28.8726 21.3156 29.2074 21.6003 29.6 21.5999Z" fill="white"/>
<path d="M29.6003 29.6001C29.6917 29.6001 29.7827 29.584 29.869 29.5536L41.069 25.5536C41.3026 25.4719 41.4851 25.2864 41.5632 25.0516C41.6417 24.8168 41.6069 24.5594 41.469 24.3536L39.869 21.9536C39.6237 21.586 39.1272 21.4868 38.7597 21.7321C38.3917 21.9774 38.2929 22.4739 38.5378 22.8414L39.5698 24.3887L29.3315 28.0465C28.9647 28.177 28.7452 28.5528 28.8116 28.9364C28.878 29.32 29.2108 29.6001 29.6003 29.6001Z" fill="white"/>
<path d="M14.4 39.2H12.8C12.3582 39.2 12 39.5582 12 40C12 40.4417 12.3582 40.8 12.8 40.8H14.4C14.8418 40.8 15.2 40.4417 15.2 40C15.2 39.5582 14.8418 39.2 14.4 39.2Z" fill="white"/>
<path d="M35.1998 39.2H33.5998C33.158 39.2 32.7998 39.5582 32.7998 40C32.7998 40.4417 33.158 40.8 33.5998 40.8H35.1998C35.6416 40.8 35.9998 40.4417 35.9998 40C35.9998 39.5582 35.6416 39.2 35.1998 39.2Z" fill="white"/>
<path d="M47.2 0H0.8C0.358203 0 0 0.358203 0 0.8V47.2C0 47.6418 0.358203 48 0.8 48H47.2C47.6418 48 48 47.6418 48 47.2V0.8C48 0.358203 47.6418 0 47.2 0ZM11.0559 46.4L9.58008 39.0199C9.46719 38.6336 9.53125 38.2168 9.75508 37.8824C9.91328 37.6914 10.1523 37.5863 10.4 37.6L17.5703 37.5887C17.5969 37.641 17.6125 37.6984 17.616 37.7566L18.4078 41.7129C18.4566 42.5539 19.1574 43.2086 20 43.2H28C28.8262 43.2152 29.5207 42.5836 29.584 41.7602L30.3922 37.716C30.4031 37.6359 30.4383 37.607 30.4527 37.6031H37.6C37.8289 37.6078 38.0422 37.7207 38.1742 37.9078C38.4188 38.2332 38.5066 38.65 38.4145 39.0465L36.9441 46.4H11.0559ZM46.4 46.4H38.5762L39.9801 39.3801C40.1723 38.5148 39.9691 37.6094 39.4266 36.909C38.9922 36.3383 38.3172 36.0023 37.6 36H30.4527C29.6148 35.9793 28.9023 36.6063 28.816 37.4398L28.0078 41.484C28.0023 41.5219 27.9949 41.5598 27.9855 41.5969L20.0344 41.6391C20.0059 41.5762 19.9887 41.509 19.984 41.4398L19.1922 37.484C19.1191 36.6336 18.4004 35.9852 17.5473 36H10.4C9.66445 35.9852 8.96406 36.3121 8.50313 36.8855C7.97266 37.5934 7.79336 38.5039 8.01602 39.3602L9.42383 46.4H1.6V1.6H46.4V46.4Z" fill="white"/>
</svg>
